<?xml version="1.0" encoding="utf-8"?>
<!-- Generator: Adobe Illustrator 16.0.0, SVG Export Plug-In . SVG Version: 6.00 Build 0)  -->
<!DOCTYPE svg PUBLIC "-//W3C//DTD SVG 1.1//EN" "http://www.w3.org/Graphics/SVG/1.1/DTD/svg11.dtd">
<svg version="1.1" xmlns="http://www.w3.org/2000/svg" xmlns:xlink="http://www.w3.org/1999/xlink" x="0px" y="0px" width="100px"
	 height="100px" viewBox="0 0 100 100" enable-background="new 0 0 100 100" xml:space="preserve">
<g id="Warstwa_2" display="none">
	<rect display="inline" fill="#2D348B"  />
</g>
<g id="Warstwa_1">
	<g>
		<path fill="#FFFFFF" d="M24.825,28.695c4.28,0,7.75-3.47,7.75-7.751c0-1.014-0.197-1.982-0.551-2.871
			c1.477-0.426,2.559-1.784,2.559-3.398c0-1.955-1.586-3.541-3.542-3.541c-1.625,0-2.99,1.097-3.407,2.589
			c-0.871-0.341-1.818-0.527-2.81-0.527c-4.28,0-7.75,3.47-7.75,7.749C17.075,25.226,20.545,28.695,24.825,28.695z"/>
		<path fill="#FFFFFF" d="M18.167,83.37c0,1.918,1.211,3.486,2.691,3.486c1.48,0,2.69-1.568,2.69-3.486V70.004h-5.382V83.37z"/>
		<path fill="#FFFFFF" d="M26.432,83.37c0,1.918,1.211,3.486,2.691,3.486c1.48,0,2.691-1.568,2.691-3.486V70.004h-5.382V83.37z"/>
		<circle fill="#FFFFFF" cx="50.563" cy="56.853" r="5.219"/>
		<path fill="#FFFFFF" d="M92.66,58.212l-5.869-20.047c-2.851-8.871-10.138-7.128-10.138-7.128l-4.447-0.077
			c-5.863,1.461-6.673,7.646-6.673,7.646l-2.621,8.92l-5.238,7.673c-0.936,1.122-0.375,2.307-0.375,2.307l-3.806,5.426l-2.93,0.043
			l-2.928-0.043l-3.806-5.426c0,0,0.562-1.185-0.375-2.307l-5.239-7.673l-2.62-8.92c0,0-0.811-6.186-6.674-7.646l-4.446,0.077
			c0,0-7.287-1.743-10.138,7.128l-2.192,7.609L7.388,58.618c-0.45,1.211,0.169,2.559,1.382,3.007
			c0.268,0.101,0.543,0.148,0.813,0.148c0.951,0,1.846-0.585,2.196-1.529l4.02-10.853l0.149,0.068l2.22,0.124l-6.274,18.838h27.009
			l-6.176-18.838l0.999-0.063l6.424,9.357l0.624,0.21l0.209,0.85l4.718,6.985l-0.998,18.151c0,0,0,1.633,1.809,1.784
			c1.807,0.15,2.058-2.096,2.058-2.096l0.499-8.108l1.494-0.106l1.495,0.106l0.499,8.108c0,0,0.25,2.246,2.059,2.096
			c1.81-0.151,1.81-1.784,1.81-1.784l-0.998-18.151l4.718-6.985l0.209-0.85l0.624-0.21l6.424-9.357l2.077-6.851v20.478V83.37
			c0,1.918,1.211,3.486,2.691,3.486s2.69-1.568,2.69-3.486V63.148h2.883V83.37c0,1.918,1.211,3.486,2.691,3.486
			s2.69-1.568,2.69-3.486V42.659l5.046,16.894c0.304,1.017,1.235,1.671,2.242,1.671c0.221,0,0.448-0.03,0.671-0.098
			C92.325,60.756,93.029,59.452,92.66,58.212z"/>
		<circle fill="#FFFFFF" cx="76.303" cy="20.945" r="7.75"/>
	</g>
</g>
</svg>
