<?xml version="1.0" encoding="utf-8"?>
<!-- Generator: Adobe Illustrator 16.0.0, SVG Export Plug-In . SVG Version: 6.00 Build 0)  -->
<!DOCTYPE svg PUBLIC "-//W3C//DTD SVG 1.1//EN" "http://www.w3.org/Graphics/SVG/1.1/DTD/svg11.dtd">
<svg version="1.1" id="Warstwa_1" xmlns="http://www.w3.org/2000/svg" xmlns:xlink="http://www.w3.org/1999/xlink" x="0px" y="0px"
	 width="500px" height="480.769px" viewBox="0 0 500 480.769" enable-background="new 0 0 500 480.769" xml:space="preserve">
<g>
	<g>
		<path fill="#FFFFFF" d="M137.846,393.063c10.227-21.503,25.57-34.541,44.365-37.709c12.597-2.124,17.083-4.718,20.495-8.269
			c-5.584-4.271-12.021-7.271-19.381-8.511c-22.02-3.711-24.278-9.896-30.606-17.157c-1.606,1.838-3.311,3.581-5.12,5.211
			c-9.235,8.308-20.17,12.886-30.791,12.886c-10.62,0-21.555-4.578-30.79-12.886c-1.81-1.63-3.514-3.373-5.12-5.211
			c-6.329,7.262-8.587,13.446-30.605,17.157c-35.662,6.008-49.708,53.255-49.708,86.788c0,17.081,51.03,30.41,116.223,30.41
			c3.233,0,6.427-0.034,9.585-0.098c-0.551-1.716-0.837-3.487-0.837-5.317C125.556,430.365,130.035,409.482,137.846,393.063z"/>
		<path fill="#FFFFFF" d="M74.48,290.932c6.085,25.005,25.433,40.251,42.327,40.251c16.895,0,36.244-15.246,42.328-40.251
			c7.624-3.505,13.216-14.518,13.216-22.823v-4.166c0-3.813-2.36-7.986-4.859-10.271c1.11-2.436,1.665-12.707,1.665-15.765
			c0-28.913-23.437-51.518-52.348-51.518h-0.001l0,0c-28.911,0-52.349,22.605-52.349,51.518c0,3.058,0.556,13.33,1.667,15.765
			c-2.499,2.284-4.86,6.457-4.86,10.271v4.166C61.265,276.414,66.857,287.427,74.48,290.932z"/>
		<path fill="#FFFFFF" d="M449.932,338.575c-22.021-3.711-24.279-9.896-30.606-17.157c-1.606,1.838-3.311,3.581-5.12,5.211
			c-9.234,8.308-20.171,12.886-30.79,12.886s-21.556-4.578-30.791-12.886c-1.809-1.63-3.513-3.373-5.119-5.211
			c-6.33,7.262-8.585,13.446-30.607,17.157c-7.358,1.239-13.797,4.24-19.38,8.511c3.413,3.551,7.897,6.145,20.494,8.269
			c18.797,3.168,34.139,16.206,44.367,37.709c7.81,16.419,12.287,37.302,12.287,57.295c0,1.83-0.286,3.602-0.835,5.317
			c3.156,0.063,6.353,0.098,9.584,0.098c65.193,0,116.224-13.329,116.224-30.41C499.639,391.83,485.593,344.583,449.932,338.575z"/>
		<path fill="#FFFFFF" d="M341.086,290.932c6.086,25.005,25.436,40.251,42.329,40.251s36.242-15.246,42.326-40.251
			c7.624-3.505,13.216-14.518,13.216-22.823v-4.166c0-3.813-2.359-7.986-4.857-10.271c1.109-2.436,1.665-12.707,1.665-15.765
			c0-28.913-23.439-51.518-52.35-51.518l0,0c-28.911,0-52.351,22.605-52.351,51.518c0,3.058,0.557,13.33,1.667,15.765
			c-2.498,2.284-4.86,6.457-4.86,10.271v4.166C327.871,276.414,333.464,287.427,341.086,290.932z"/>
		<path fill="#FFFFFF" d="M366.335,450.358c0-33.536-14.046-80.779-49.708-86.788c-22.019-3.711-24.276-9.896-30.605-17.159
			c-0.001,0.002-0.001,0.003-0.002,0.003c-0.774,0.888-1.572,1.752-2.395,2.589c-0.077,0.077-0.154,0.152-0.23,0.23
			c-0.811,0.818-1.638,1.619-2.493,2.389c-9.234,8.31-20.171,12.887-30.79,12.887c-10.62,0-21.555-4.577-30.79-12.887
			c-0.855-0.77-1.682-1.57-2.493-2.389c-0.077-0.078-0.154-0.153-0.229-0.23c-0.823-0.837-1.621-1.701-2.396-2.589
			c0,0-0.002-0.001-0.003-0.003c-6.328,7.263-8.586,13.448-30.606,17.159c-35.66,6.009-49.707,53.252-49.707,86.788
			c0,17.08,51.03,30.41,116.223,30.41S366.335,467.438,366.335,450.358z"/>
		<path fill="#FFFFFF" d="M207.784,315.927c6.085,25.004,25.434,40.25,42.327,40.25s36.243-15.246,42.326-40.25
			c7.625-3.505,13.218-14.517,13.218-22.824v-4.167c0-3.813-2.362-7.985-4.86-10.271c1.11-2.435,1.665-12.706,1.665-15.764
			c0-28.913-23.437-51.518-52.348-51.518h-0.001l0,0c-28.911,0-52.35,22.605-52.35,51.518c0,3.058,0.557,13.329,1.667,15.764
			c-2.499,2.285-4.859,6.457-4.859,10.271v4.167C194.569,301.41,200.16,312.422,207.784,315.927z"/>
	</g>
	<g>
		<path fill="#EA1B47" d="M306.605,0h-34.674c-2.148,0-4.277,0.093-6.382,0.266c28.323,13.844,47.882,42.95,47.882,76.542v4.923
			c0,33.592-19.559,62.699-47.882,76.542c2.104,0.174,4.233,0.267,6.382,0.267h34.674c8.102,0,15.908-1.258,23.237-3.582
			l20.247,20.245v-30.154c20.124-13.849,33.325-37.04,33.325-63.318v-4.923C383.415,34.387,349.026,0,306.605,0z"/>
		<path fill="#00B58D" d="M305.1,81.73v-4.923C305.1,34.387,270.713,0,228.291,0h-34.674c-42.42,0-76.809,34.387-76.809,76.807
			v4.923c0,26.278,13.2,49.47,33.326,63.318v30.154l20.245-20.245c7.332,2.324,15.137,3.582,23.238,3.582h34.674
			C270.713,158.54,305.1,124.151,305.1,81.73z M177.627,92.244c-4.601,0-8.332-3.73-8.332-8.332c0-4.602,3.73-8.332,8.332-8.332
			c4.602,0,8.332,3.73,8.332,8.332C185.959,88.514,182.229,92.244,177.627,92.244z M210.954,92.244c-4.602,0-8.331-3.73-8.331-8.332
			c0-4.602,3.729-8.332,8.331-8.332c4.601,0,8.331,3.73,8.331,8.332C219.285,88.514,215.555,92.244,210.954,92.244z M244.28,92.244
			c-4.602,0-8.332-3.73-8.332-8.332c0-4.602,3.729-8.332,8.332-8.332c4.601,0,8.333,3.73,8.333,8.332
			C252.612,88.514,248.88,92.244,244.28,92.244z"/>
	</g>
</g>
</svg>
