<?xml version="1.0" encoding="utf-8"?>
<!-- Generator: Adobe Illustrator 16.0.0, SVG Export Plug-In . SVG Version: 6.00 Build 0)  -->
<!DOCTYPE svg PUBLIC "-//W3C//DTD SVG 1.1//EN" "http://www.w3.org/Graphics/SVG/1.1/DTD/svg11.dtd">
<svg version="1.1" xmlns="http://www.w3.org/2000/svg" xmlns:xlink="http://www.w3.org/1999/xlink" x="0px" y="0px"
	  viewBox="0 0 230 230" enable-background="new 0 0 230 230" xml:space="preserve">
<g id="Warstwa_2" display="none">
	<rect display="inline" fill="#2D348B"  />
</g>
<g id="Warstwa_1">
	<g>
		<path fill="#FFFFFF" d="M154.069,58.419h-23.979c-1.486,0-2.958,0.064-4.414,0.184c19.587,9.574,33.112,29.703,33.112,52.934
			v3.404c0,23.229-13.525,43.359-33.112,52.934c1.456,0.119,2.928,0.183,4.414,0.183h23.979c5.603,0,11.001-0.869,16.07-2.476
			l14.001,14v-20.854c13.918-9.576,23.047-25.615,23.047-43.787v-3.404C207.188,82.2,183.405,58.419,154.069,58.419z"/>
		<path fill="#FFFFFF" d="M153.027,114.94v-3.404c0-29.336-23.78-53.117-53.117-53.117H75.932
			c-29.335,0-53.118,23.781-53.118,53.117v3.404c0,18.172,9.128,34.211,23.047,43.787v20.854l14-14
			c5.07,1.606,10.469,2.476,16.07,2.476H99.91C129.247,168.057,153.027,144.276,153.027,114.94z M64.874,122.211
			c-3.182,0-5.762-2.58-5.762-5.761c0-3.183,2.58-5.762,5.762-5.762s5.762,2.579,5.762,5.762
			C70.636,119.631,68.056,122.211,64.874,122.211z M87.921,122.211c-3.182,0-5.762-2.58-5.762-5.761c0-3.183,2.58-5.762,5.762-5.762
			c3.182,0,5.761,2.579,5.761,5.762C93.682,119.631,91.103,122.211,87.921,122.211z M110.968,122.211
			c-3.183,0-5.762-2.58-5.762-5.761c0-3.183,2.58-5.762,5.762-5.762c3.182,0,5.762,2.579,5.762,5.762
			C116.729,119.631,114.15,122.211,110.968,122.211z"/>
	</g>
</g>
</svg>
