<?xml version="1.0" encoding="utf-8"?>
<!-- Generator: Adobe Illustrator 16.0.0, SVG Export Plug-In . SVG Version: 6.00 Build 0)  -->
<!DOCTYPE svg PUBLIC "-//W3C//DTD SVG 1.1//EN" "http://www.w3.org/Graphics/SVG/1.1/DTD/svg11.dtd">
<svg version="1.1" xmlns="http://www.w3.org/2000/svg" xmlns:xlink="http://www.w3.org/1999/xlink" x="0px" y="0px"
	  viewBox="0 0 230 230" enable-background="new 0 0 230 230" xml:space="preserve">
<g id="Warstwa_2" display="none">
	<rect display="inline" fill="#2D348B"  />
</g>
<g id="Warstwa_1">
	<g>
		<path fill="#FFFFFF" d="M180.769,42.313h-29.733v-9.557c0-2.543-2.061-4.604-4.604-4.604h-15.645
			c-1.997-6.832-8.318-11.84-15.787-11.84c-7.469,0-13.79,5.008-15.787,11.84H83.568c-2.543,0-4.604,2.061-4.604,4.604v9.557H49.231
			c-2.542,0-4.604,2.061-4.604,4.604v162.168c0,2.543,2.061,4.604,4.604,4.604h131.538c2.542,0,4.604-2.061,4.604-4.604V46.916
			C185.372,44.373,183.311,42.313,180.769,42.313z M85.89,37.36h17.271c2.543,0,4.604-2.062,4.604-4.604
			c0-3.99,3.246-7.234,7.234-7.234s7.235,3.244,7.235,7.234c0,2.543,2.061,4.604,4.604,4.604h17.271v23.237H85.89V37.36z
			 M176.164,204.48H53.835V51.52h25.129v11.4c0,2.543,2.061,4.604,4.604,4.604h62.863c2.544,0,4.604-2.061,4.604-4.604v-11.4h25.129
			V204.48z"/>
		<path fill="#FFFFFF" d="M146.743,86.66c0,1.661,1.345,3.008,3.007,3.008h1.083l-21.831,22.182L109.45,92.927
			c-0.589-0.555-1.372-0.853-2.183-0.816c-0.809,0.032-1.569,0.388-2.111,0.987l-22.344,24.707
			c-1.115,1.232-1.019,3.135,0.213,4.248c0.575,0.521,1.297,0.777,2.017,0.777c0.82,0,1.638-0.334,2.231-0.99l20.285-22.43
			l19.459,18.836c1.191,1.123,3.062,1.088,4.207-0.078l22.922-23.291v0.52c0,1.661,1.347,3.008,3.008,3.008s3.008-1.347,3.008-3.008
			V86.66c0-1.662-1.347-3.008-3.008-3.008h-7.404C148.088,83.652,146.743,84.998,146.743,86.66z"/>
		<path fill="#FFFFFF" d="M73.58,128.014V83.652c0-1.26-1.021-2.281-2.282-2.281s-2.282,1.021-2.282,2.281v46.643
			c0,1.262,1.021,2.281,2.282,2.281H158.7c1.26,0,2.281-1.02,2.281-2.281c0-1.26-1.021-2.281-2.281-2.281H73.58z"/>
		<path fill="#FFFFFF" d="M158.7,152.621H71.298c-1.26,0-2.282,1.02-2.282,2.281c0,1.26,1.021,2.281,2.282,2.281H158.7
			c1.26,0,2.281-1.021,2.281-2.281C160.981,153.641,159.96,152.621,158.7,152.621z"/>
		<path fill="#FFFFFF" d="M158.7,166.311H71.298c-1.26,0-2.282,1.021-2.282,2.283c0,1.26,1.021,2.281,2.282,2.281H158.7
			c1.26,0,2.281-1.021,2.281-2.281C160.981,167.332,159.96,166.311,158.7,166.311z"/>
		<path fill="#FFFFFF" d="M158.7,180.002H71.298c-1.26,0-2.282,1.021-2.282,2.281s1.021,2.281,2.282,2.281H158.7
			c1.26,0,2.281-1.021,2.281-2.281S159.96,180.002,158.7,180.002z"/>
	</g>
</g>
</svg>
