<?xml version="1.0" encoding="utf-8"?>
<!-- Generator: Adobe Illustrator 16.0.0, SVG Export Plug-In . SVG Version: 6.00 Build 0)  -->
<!DOCTYPE svg PUBLIC "-//W3C//DTD SVG 1.1//EN" "http://www.w3.org/Graphics/SVG/1.1/DTD/svg11.dtd">
<svg version="1.1" id="Warstwa_1" xmlns="http://www.w3.org/2000/svg" xmlns:xlink="http://www.w3.org/1999/xlink" x="0px" y="0px"
	 width="100px" height="100px" viewBox="0 0 100 100" enable-background="new 0 0 100 100" xml:space="preserve">
<g>
	<path fill="#EA1B47" d="M94.354,51.396c-0.814-11.322-5.078-19.831-12.773-25.551c-3.105-2.304-6.683-4.135-10.714-5.51
		c0.178,1.094,0.301,2.226,0.355,3.404c0.112,2.466,0.17,5.027,0.17,7.669c0,2.644-0.058,5.144-0.17,7.497
		c-0.175,3.85-0.977,7.226-2.418,10.13c-1.431,2.897-3.398,5.329-5.902,7.278c-2.5,1.957-5.483,3.424-8.96,4.395
		c-3.481,0.979-7.309,1.469-11.509,1.469c-4.252,0-8.1-0.49-11.546-1.469c-3.448-0.971-6.422-2.438-8.921-4.395
		c-2.5-1.949-4.468-4.381-5.898-7.278c-1.445-2.904-2.251-6.28-2.422-10.13c-0.114-2.354-0.167-4.854-0.167-7.497
		c0-0.333,0.007-0.658,0.01-0.985c-4.61,5.369-7.229,12.354-7.842,20.973c-0.312,4.787-0.312,9.588,0,14.371
		c1.534,22.746,16.299,34.111,44.35,34.111c28.041,0,42.833-11.365,44.357-34.111C94.666,60.983,94.666,56.183,94.354,51.396z"/>
	<path fill="#00B58D" d="M18.411,25.845c7.704-5.707,18.231-8.566,31.586-8.566c7.963,0,14.916,1.025,20.87,3.057
		c-0.077-0.479-0.162-0.954-0.263-1.419c-0.408-1.883-1.003-3.64-1.8-5.263c-1.431-2.931-3.398-5.4-5.902-7.409
		c-2.5-2.017-5.483-3.536-8.96-4.572c-3.481-1.032-7.309-1.55-11.509-1.55c-4.252,0-8.1,0.518-11.546,1.55
		c-3.448,1.036-6.422,2.556-8.921,4.572c-2.5,2.009-4.468,4.479-5.898,7.409c-1.445,2.934-2.251,6.291-2.422,10.086
		c-0.096,2.091-0.141,4.264-0.154,6.48c-0.001,0.069-0.002,0.135-0.003,0.203C14.935,28.739,16.572,27.21,18.411,25.845z"/>
	<path fill="#2E338A" d="M13.646,38.905c0.171,3.85,0.977,7.226,2.422,10.13c1.431,2.897,3.398,5.329,5.898,7.278
		c2.499,1.957,5.473,3.424,8.921,4.395c3.446,0.979,7.294,1.469,11.546,1.469c4.2,0,8.028-0.49,11.509-1.469
		c3.477-0.971,6.46-2.438,8.96-4.395c2.504-1.949,4.472-4.381,5.902-7.278c1.441-2.904,2.243-6.28,2.418-10.13
		c0.112-2.354,0.17-4.854,0.17-7.497c0-2.642-0.058-5.203-0.17-7.669c-0.055-1.179-0.178-2.311-0.355-3.404
		c-5.954-2.031-12.906-3.057-20.87-3.057c-13.354,0-23.882,2.859-31.586,8.566c-1.838,1.365-3.476,2.895-4.922,4.578
		c-0.002,0.327-0.01,0.652-0.01,0.985C13.479,34.052,13.532,36.552,13.646,38.905z"/>
</g>
</svg>
