<?xml version="1.0" encoding="utf-8"?>
<!-- Generator: Adobe Illustrator 16.0.0, SVG Export Plug-In . SVG Version: 6.00 Build 0)  -->
<!DOCTYPE svg PUBLIC "-//W3C//DTD SVG 1.1//EN" "http://www.w3.org/Graphics/SVG/1.1/DTD/svg11.dtd">
<svg version="1.1" xmlns="http://www.w3.org/2000/svg" xmlns:xlink="http://www.w3.org/1999/xlink" x="0px" y="0px" width="100px"
	 height="100px" viewBox="0 0 100 100" enable-background="new 0 0 100 100" xml:space="preserve">
<g id="Warstwa_2" display="none">
	<rect display="inline" fill="#2D348B"  />
</g>
<g id="Warstwa_1">
	<g>
		<path fill="#FFFFFF" d="M75.441,47.936v-5.645c0-1.061-0.859-1.92-1.92-1.92H62.736c-1.059,0-1.919,0.859-1.919,1.92v5.645
			c-5.046,2.645-8.501,7.926-8.501,14.006c0,8.719,7.095,15.813,15.813,15.813s15.812-7.095,15.812-15.813
			C83.941,55.861,80.487,50.58,75.441,47.936z M64.656,44.21h3.438c0.013,0.001,0.024,0.004,0.037,0.004
			c0.012,0,0.023-0.003,0.036-0.004h3.435v2.316c-1.118-0.253-2.278-0.397-3.473-0.397s-2.354,0.145-3.474,0.397V44.21z
			 M68.13,73.916c-6.603,0-11.974-5.372-11.974-11.975c0-6.602,5.371-11.974,11.974-11.974s11.973,5.372,11.973,11.974
			C80.103,68.544,74.732,73.916,68.13,73.916z"/>
		<path fill="#FFFFFF" d="M39.184,47.936v-5.645c0-1.061-0.859-1.92-1.919-1.92H26.479c-1.06,0-1.919,0.859-1.919,1.92v5.645
			c-5.045,2.645-8.5,7.926-8.5,14.006c0,8.719,7.093,15.813,15.812,15.813c8.719,0,15.813-7.095,15.813-15.813
			C47.685,55.861,44.229,50.58,39.184,47.936z M28.398,44.21h3.436c0.013,0.001,0.025,0.004,0.037,0.004s0.024-0.003,0.037-0.004
			h3.437v2.316c-1.119-0.253-2.279-0.397-3.474-0.397c-1.194,0-2.354,0.145-3.473,0.397V44.21z M31.871,73.916
			c-6.602,0-11.973-5.372-11.973-11.975c0-6.602,5.371-11.974,11.973-11.974c6.603,0,11.974,5.372,11.974,11.974
			C43.845,68.544,38.474,73.916,31.871,73.916z"/>
		<path fill="#FFFFFF" d="M65.411,37.26c0.264,0.813,1.02,1.328,1.832,1.328c0.196,0,0.394-0.033,0.592-0.1
			c1.009-0.329,1.558-1.415,1.229-2.424c-0.33-1.01-1.415-1.558-2.424-1.229S65.082,36.25,65.411,37.26z"/>
		<path fill="#FFFFFF" d="M59.511,29.166c0.35,0.252,0.745,0.361,1.13,0.361c0.591,0.012,1.185-0.263,1.558-0.789
			c0.625-0.855,0.427-2.051-0.429-2.678c-0.854-0.625-2.05-0.438-2.676,0.429C58.469,27.346,58.654,28.541,59.511,29.166z"/>
		<path fill="#FFFFFF" d="M64.655,33.542c0.394,0,0.788-0.121,1.129-0.374c0.855-0.625,1.053-1.82,0.428-2.676
			c-0.625-0.866-1.831-1.053-2.688-0.428c-0.854,0.625-1.041,1.832-0.415,2.688C63.481,33.268,64.062,33.542,64.655,33.542z"/>
		<path fill="#FFFFFF" d="M55.002,26.861c0.197,0.066,0.396,0.1,0.593,0.1c0.812,0,1.559-0.516,1.82-1.327
			c0.329-1.009-0.219-2.095-1.229-2.424c0,0.011,0,0.011,0,0.011c-1.009-0.328-2.095,0.22-2.424,1.229
			C53.445,25.458,53.993,26.545,55.002,26.861z"/>
		<path fill="#FFFFFF" d="M34.207,33.19c0.34,0.241,0.735,0.362,1.13,0.362c0.592,0,1.173-0.274,1.546-0.789
			c0.625-0.856,0.439-2.063-0.417-2.677c-0.867-0.626-2.062-0.438-2.687,0.417C33.154,31.359,33.34,32.565,34.207,33.19z"/>
		<path fill="#FFFFFF" d="M49.989,22.244c-1.063,0-1.919,0.855-1.919,1.92c0,1.053,0.857,1.919,1.919,1.919
			c1.065,0,1.919-0.866,1.919-1.919C51.908,23.1,51.043,22.244,49.989,22.244z"/>
		<path fill="#FFFFFF" d="M44.396,26.961c0.187,0,0.396-0.021,0.592-0.088c0.999-0.328,1.558-1.415,1.229-2.424
			c-0.329-1.009-1.415-1.557-2.424-1.229c-1.009,0.328-1.557,1.415-1.229,2.413C42.828,26.445,43.585,26.961,44.396,26.961z"/>
		<path fill="#FFFFFF" d="M32.167,38.51c0.197,0.066,0.395,0.1,0.592,0.1c0.812,0,1.557-0.516,1.821-1.328
			c0.329-1.009-0.22-2.094-1.229-2.424c-1.009-0.328-2.095,0.23-2.424,1.229C30.598,37.096,31.158,38.182,32.167,38.51z"/>
		<path fill="#FFFFFF" d="M39.34,29.539c0.395,0,0.79-0.11,1.129-0.362c0.856-0.626,1.042-1.821,0.428-2.677
			c-0.625-0.866-1.832-1.053-2.687-0.428c-0.856,0.625-1.042,1.821-0.428,2.688C38.167,29.275,38.748,29.539,39.34,29.539z"/>
	</g>
</g>
</svg>
