<?xml version="1.0" encoding="utf-8"?>
<!-- Generator: Adobe Illustrator 16.0.0, SVG Export Plug-In . SVG Version: 6.00 Build 0)  -->
<!DOCTYPE svg PUBLIC "-//W3C//DTD SVG 1.1//EN" "http://www.w3.org/Graphics/SVG/1.1/DTD/svg11.dtd">
<svg version="1.1" id="Warstwa_1" xmlns="http://www.w3.org/2000/svg" xmlns:xlink="http://www.w3.org/1999/xlink" x="0px" y="0px"
	   viewBox="0 0 500 480.769" enable-background="new 0 0 500 480.769" xml:space="preserve">
<g>
	<path fill="#FFFFFF" d="M206.47,224.175v-7.685c0-37.196,16.943-70.428,43.532-92.414c-20.734-17.138-47.33-27.445-76.334-27.445
		H119.56c-66.201,0-119.865,53.662-119.865,119.859v7.685c0,37.926,17.642,71.709,45.14,93.669v66.294l44.477-44.033
		c9.669,2.516,19.788,3.935,30.248,3.935h54.108c29.004,0,55.6-10.307,76.334-27.451C223.414,294.602,206.47,261.365,206.47,224.175
		z"/>
	<path fill="#FFFFFF" d="M380.44,96.631h-54.106c-29.002,0-55.604,10.308-76.332,27.445c26.585,21.986,43.53,55.218,43.53,92.414
		v7.685c0,37.19-16.945,70.427-43.53,92.413c20.728,17.145,47.33,27.451,76.332,27.451h54.106c10.46,0,20.582-1.419,30.246-3.935
		l44.482,44.033v-66.294c27.497-21.96,45.136-55.743,45.136-93.669v-7.685C500.305,150.293,446.643,96.631,380.44,96.631z"/>
</g>
</svg>
