<?xml version="1.0" encoding="utf-8"?>
<!-- Generator: Adobe Illustrator 16.0.0, SVG Export Plug-In . SVG Version: 6.00 Build 0)  -->
<!DOCTYPE svg PUBLIC "-//W3C//DTD SVG 1.1//EN" "http://www.w3.org/Graphics/SVG/1.1/DTD/svg11.dtd">
<svg version="1.1" xmlns="http://www.w3.org/2000/svg" xmlns:xlink="http://www.w3.org/1999/xlink" x="0px" y="0px"
	  viewBox="0 0 100 100" enable-background="new 0 0 100 100" xml:space="preserve">
<g id="Warstwa_2" display="none">
	<rect display="inline" fill="#2D348B"  />
</g>
<g id="Warstwa_1">
	<g>
		<circle fill="#FFFFFF" cx="49.895" cy="28.864" r="12.455"/>
		<path fill="#FFFFFF" d="M60.777,51.256l13.422-8.748c2.038-3.142,0.508-5.015,0.508-5.015c-1.188-2.887-5.266-1.867-5.266-1.867
			l-13.063,8.042H42.992l-11.435-7.363c-2.718-2.038-5.606,0.339-5.606,0.339c-2.718,3.398,0,6.117,0,6.117l13.251,8.665v11.213
			l0.68,2.162l-8.834,12.277c-1.869,3.396,0.849,5.605,0.849,5.605c3.737,1.869,5.691-0.17,5.691-0.17l8.581-11.553
			c3.736,1.529,7.815,0.17,7.815,0.17l8.365,11.553c3.103,2.039,5.395,0,5.395,0c3.058-2.037,1.188-5.605,1.188-5.605l-8.834-12.572
			l0.511-2.209L60.777,51.256z M49.818,69.094c0,0-6.031-0.34-7.729-5.777h15.459C57.548,63.316,56.867,68.584,49.818,69.094z"/>
	</g>
</g>
</svg>
