<?xml version="1.0" encoding="utf-8"?>
<!-- Generator: Adobe Illustrator 16.0.0, SVG Export Plug-In . SVG Version: 6.00 Build 0)  -->
<!DOCTYPE svg PUBLIC "-//W3C//DTD SVG 1.1//EN" "http://www.w3.org/Graphics/SVG/1.1/DTD/svg11.dtd">
<svg version="1.1" xmlns="http://www.w3.org/2000/svg" xmlns:xlink="http://www.w3.org/1999/xlink" x="0px" y="0px" width="230px"
	 height="230px" viewBox="0 0 230 230" enable-background="new 0 0 230 230" xml:space="preserve">
<g id="Warstwa_2" display="none">
	<rect display="inline" fill="#2D348B"  />
</g>
<g id="Warstwa_1">
	<path fill="#FFFFFF" d="M160.372,14.147H69.627c-11.868,0-11.868,11.868-11.868,11.868v177.97c0,0,0,11.868,11.868,11.868h90.745
		c11.868,0,11.868-11.868,11.868-11.868V26.016C172.24,26.016,172.24,14.147,160.372,14.147z M101.516,19.218h25.56
		c1.748,0,3.166,1.417,3.166,3.164c0,1.748-1.418,3.165-3.166,3.165h-25.56c-1.748,0-3.165-1.417-3.165-3.165
		C98.351,20.635,99.768,19.218,101.516,19.218z M115,211.651c-4.517,0-8.175-3.658-8.175-8.174s3.659-8.175,8.175-8.175
		c4.515,0,8.175,3.659,8.175,8.175S119.515,211.651,115,211.651z M163.273,191.1H66.726V30.618h96.547V191.1z"/>
</g>
</svg>
