<?xml version="1.0" encoding="utf-8"?>
<!-- Generator: Adobe Illustrator 16.0.0, SVG Export Plug-In . SVG Version: 6.00 Build 0)  -->
<!DOCTYPE svg PUBLIC "-//W3C//DTD SVG 1.1//EN" "http://www.w3.org/Graphics/SVG/1.1/DTD/svg11.dtd">
<svg version="1.1" id="Warstwa_1" xmlns="http://www.w3.org/2000/svg" xmlns:xlink="http://www.w3.org/1999/xlink" x="0px" y="0px"
	 width="500px" height="480.769px" viewBox="0 0 500 480.769" enable-background="new 0 0 500 480.769" xml:space="preserve">
<g>
	<path fill="#FFFFFF" d="M249.999,204.469c-19.805,0-35.917,16.113-35.917,35.92c0,19.798,16.112,35.912,35.917,35.912
		c19.807,0,35.915-16.114,35.915-35.912C285.914,220.582,269.806,204.469,249.999,204.469z M249.999,254.562
		c-7.816,0-14.169-6.361-14.169-14.173c0-7.814,6.353-14.173,14.169-14.173c7.813,0,14.168,6.358,14.168,14.173
		C264.167,248.2,257.813,254.562,249.999,254.562z"/>
	<path fill="#FFFFFF" d="M249.999,164.967c-41.585,0-75.421,33.832-75.421,75.422c0,41.58,33.836,75.423,75.421,75.423
		c41.59,0,75.42-33.843,75.42-75.423C325.419,198.799,291.589,164.967,249.999,164.967z M249.999,294.061
		c-29.597,0-53.677-24.075-53.677-53.672c0-29.598,24.08-53.674,53.677-53.674c29.596,0,53.671,24.076,53.671,53.674
		C303.67,269.985,279.595,294.061,249.999,294.061z"/>
	<path fill="#FFFFFF" d="M447.554,236.797c-0.012-0.045-0.033-0.096-0.05-0.144c-0.521-1.438-1.445-3.413-3.038-6.715
		c-2.414-4.991-5.324-10.445-8.4-15.768c-6.853-11.835-18.428-29.691-34.719-47.569c-18.432-20.234-39.01-36.385-61.158-48
		c-27.86-14.605-58.206-22.014-90.189-22.014c-31.987,0-62.331,7.408-90.188,22.014c-22.154,11.615-42.735,27.766-61.165,48
		c-16.283,17.878-27.865,35.734-34.712,47.569c-3.082,5.322-5.987,10.776-8.404,15.768c-1.592,3.296-2.512,5.269-3.033,6.71
		c-0.019,0.053-0.038,0.104-0.06,0.155c-0.503,1.438-0.605,2.349-0.605,3.585c0,0.011,0,0.023,0,0.032
		c0,0.307,0.016,0.607,0.042,0.906c0.006,0.087,0.019,0.175,0.03,0.261c0.029,0.27,0.067,0.538,0.118,0.805
		c0.008,0.046,0.011,0.094,0.021,0.14c0.063,0.309,0.143,0.618,0.232,0.916c0.019,0.075,0.045,0.146,0.064,0.219
		c0.081,0.245,0.169,0.492,0.266,0.733c0.016,0.043,0.03,0.089,0.043,0.135c0.591,1.428,14.802,35.391,45.996,69.642
		c18.43,20.232,39.011,36.379,61.165,47.997c27.856,14.606,58.2,22.007,90.188,22.007c31.983,0,62.329-7.4,90.189-22.007
		c22.148-11.618,42.727-27.765,61.158-47.997c31.195-34.251,45.411-68.214,45.996-69.642c0.017-0.046,0.033-0.092,0.05-0.14
		c0.096-0.236,0.183-0.481,0.257-0.724c0.027-0.072,0.054-0.148,0.075-0.224c0.087-0.303,0.161-0.607,0.228-0.911
		c0.01-0.051,0.015-0.104,0.026-0.153c0.047-0.263,0.085-0.526,0.113-0.792c0.01-0.087,0.021-0.178,0.031-0.268
		c0.021-0.296,0.043-0.597,0.043-0.897c0-0.015,0-0.027,0-0.038C448.166,239.152,448.063,238.24,447.554,236.797z M249.999,118.336
		c47.5,0,89.76,17.863,125.8,53.109c-11.794-6.621-24.208-12.25-37.16-16.811c-27.419-9.654-57.241-14.555-88.64-14.555
		s-61.219,4.9-88.636,14.555c-12.949,4.561-25.373,10.189-37.162,16.811C160.239,136.199,202.5,118.336,249.999,118.336z
		 M249.999,362.437c-47.499,0-89.758-17.862-125.798-53.102c11.754,6.595,24.136,12.209,37.042,16.759
		c27.45,9.692,57.312,14.597,88.756,14.597c31.446,0,61.308-4.904,88.753-14.597c12.925-4.555,25.327-10.176,37.09-16.791
		C339.802,344.574,297.527,362.437,249.999,362.437z M386.023,276.957c-38.105,27.859-83.871,41.984-136.024,41.984
		c-52.152,0-97.918-14.125-136.028-41.984c-19.621-14.339-32.056-28.842-37.951-36.568c5.903-7.736,18.327-22.227,37.924-36.558
		c38.116-27.87,83.893-42.003,136.055-42.003c52.164,0,97.936,14.133,136.056,42.003c19.6,14.331,32.025,28.827,37.919,36.558
		C418.073,248.123,405.645,262.623,386.023,276.957z"/>
</g>
</svg>
