<?xml version="1.0" encoding="utf-8"?>
<!-- Generator: Adobe Illustrator 16.0.0, SVG Export Plug-In . SVG Version: 6.00 Build 0)  -->
<!DOCTYPE svg PUBLIC "-//W3C//DTD SVG 1.1//EN" "http://www.w3.org/Graphics/SVG/1.1/DTD/svg11.dtd">
<svg version="1.1" id="Warstwa_1" xmlns="http://www.w3.org/2000/svg" xmlns:xlink="http://www.w3.org/1999/xlink" x="0px" y="0px"
	 width="500px" height="480.769px" viewBox="0 0 500 480.769" enable-background="new 0 0 500 480.769" xml:space="preserve">
<g>
	<path fill="#FFFFFF" d="M404.648,328.663c14.926-26.048,23.51-56.173,23.51-88.281c0-32.11-8.584-62.229-23.505-88.276
		c-0.128-0.265-0.214-0.545-0.365-0.802c-0.145-0.259-0.339-0.463-0.505-0.7c-15.49-26.435-37.584-48.529-64.02-64.014
		c-0.232-0.162-0.437-0.35-0.683-0.494c-0.259-0.151-0.528-0.227-0.792-0.355C312.242,70.81,282.112,62.226,250,62.226
		c-32.112,0-62.244,8.584-88.288,23.515c-0.263,0.123-0.538,0.204-0.794,0.355c-0.247,0.145-0.447,0.332-0.683,0.494
		c-26.437,15.484-48.535,37.579-64.025,64.014c-0.161,0.243-0.355,0.447-0.501,0.7c-0.151,0.257-0.235,0.537-0.364,0.802
		c-14.922,26.047-23.504,56.166-23.504,88.276c0,32.108,8.582,62.233,23.509,88.281c0.127,0.263,0.211,0.538,0.359,0.796
		c0.11,0.189,0.273,0.322,0.39,0.507c15.503,26.53,37.651,48.701,64.165,64.229c0.226,0.149,0.416,0.333,0.655,0.472
		c0.189,0.108,0.393,0.142,0.582,0.243c26.095,15,56.299,23.633,88.5,23.633c32.197,0,62.403-8.633,88.5-23.633
		c0.188-0.102,0.392-0.135,0.581-0.243c0.236-0.139,0.429-0.322,0.656-0.472c26.514-15.528,48.663-37.699,64.165-64.229
		c0.118-0.185,0.279-0.317,0.386-0.507C404.439,329.201,404.525,328.926,404.648,328.663z M337.133,366.506l-11.988-20.761
		c-3.426-5.927-10.999-7.96-16.926-4.533c-5.927,3.42-7.96,10.998-4.54,16.925l12.017,20.81
		c-16.384,7.799-34.369,12.747-53.304,14.27v-24.009c0-6.843-5.549-12.393-12.392-12.393c-6.844,0-12.393,5.55-12.393,12.393v24.009
		c-18.935-1.522-36.917-6.471-53.3-14.27l12.013-20.81c3.421-5.927,1.39-13.505-4.537-16.925c-5.925-3.427-13.503-1.394-16.93,4.533
		l-11.985,20.761c-15.224-10.552-28.447-23.772-38.996-38.999l20.761-11.983c5.927-3.42,7.957-10.998,4.537-16.927
		c-3.423-5.931-11.004-7.959-16.93-4.533l-20.806,12.01c-7.799-16.382-12.742-34.362-14.267-53.3h24.013
		c6.844,0,12.393-5.551,12.393-12.392c0-6.843-5.548-12.394-12.393-12.394H97.167c1.523-18.931,6.468-36.916,14.267-53.3
		l20.806,12.016c1.953,1.13,4.083,1.662,6.185,1.662c4.282,0,8.448-2.222,10.745-6.196c3.42-5.927,1.39-13.505-4.537-16.926
		l-20.761-11.988c10.549-15.221,23.774-28.447,38.998-38.999l11.983,20.761c2.298,3.975,6.463,6.195,10.745,6.195
		c2.103,0,4.232-0.532,6.185-1.661c5.927-3.421,7.958-10.999,4.537-16.927l-12.013-20.804c16.385-7.798,34.366-12.747,53.3-14.269
		v24.009c0,6.843,5.548,12.392,12.393,12.392c6.843,0,12.392-5.549,12.392-12.392V87.553c18.935,1.521,36.915,6.471,53.304,14.269
		l-12.017,20.804c-3.42,5.928-1.387,13.506,4.54,16.927c1.947,1.129,4.076,1.661,6.185,1.661c4.282,0,8.445-2.221,10.741-6.195
		l11.983-20.761c15.226,10.552,28.446,23.778,39,38.999l-20.763,11.988c-5.927,3.421-7.96,10.999-4.538,16.926
		c2.301,3.975,6.465,6.196,10.746,6.196c2.103,0,4.237-0.532,6.185-1.662l20.804-12.016c7.799,16.384,12.748,34.369,14.27,53.3
		h-24.014c-6.844,0-12.394,5.551-12.394,12.394c0,6.841,5.55,12.392,12.394,12.392h24.014c-1.521,18.938-6.471,36.918-14.27,53.3
		l-20.804-12.01c-5.926-3.426-13.5-1.397-16.931,4.533c-3.422,5.929-1.389,13.507,4.538,16.927l20.763,11.983
		C365.574,342.733,352.354,355.954,337.133,366.506z"/>
	<path fill="#FFFFFF" d="M277.966,190.803L262.392,208.1v-67.741c0-6.842-5.549-12.392-12.392-12.392
		c-6.844,0-12.393,5.55-12.393,12.392v100.023c0,0.106,0.029,0.204,0.033,0.312c0.01,0.451,0.076,0.893,0.135,1.339
		c0.048,0.371,0.079,0.736,0.163,1.099c0.092,0.402,0.233,0.789,0.367,1.183c0.124,0.37,0.23,0.746,0.39,1.097
		c0.162,0.36,0.37,0.699,0.568,1.05c0.201,0.354,0.39,0.709,0.624,1.043c0.208,0.301,0.462,0.569,0.702,0.855
		c0.294,0.344,0.583,0.693,0.913,1.005c0.076,0.07,0.13,0.156,0.207,0.226c0.224,0.205,0.479,0.345,0.714,0.527
		c0.298,0.237,0.589,0.474,0.908,0.678c0.376,0.247,0.77,0.441,1.165,0.635c0.301,0.15,0.589,0.312,0.901,0.441
		c0.462,0.183,0.938,0.313,1.415,0.436c0.28,0.076,0.544,0.178,0.831,0.23c0.78,0.151,1.564,0.237,2.356,0.237l0,0
		c0.003,0,0.003,0,0.003,0c0.862,0,1.704-0.091,2.517-0.259c0.048-0.01,0.094-0.031,0.142-0.043c0.77-0.173,1.519-0.402,2.228-0.709
		c0.248-0.104,0.469-0.258,0.71-0.383c0.5-0.259,1.001-0.51,1.461-0.827c0.255-0.178,0.485-0.403,0.73-0.603
		c0.414-0.339,0.826-0.685,1.191-1.07c0.073-0.076,0.159-0.131,0.229-0.204l37.173-41.286c4.578-5.088,4.169-12.925-0.919-17.501
		C290.383,185.301,282.541,185.715,277.966,190.803z"/>
</g>
</svg>
