<?xml version="1.0" encoding="utf-8"?>
<!-- Generator: Adobe Illustrator 16.0.0, SVG Export Plug-In . SVG Version: 6.00 Build 0)  -->
<!DOCTYPE svg PUBLIC "-//W3C//DTD SVG 1.1//EN" "http://www.w3.org/Graphics/SVG/1.1/DTD/svg11.dtd">
<svg version="1.1" xmlns="http://www.w3.org/2000/svg" xmlns:xlink="http://www.w3.org/1999/xlink" x="0px" y="0px" width="100px"
	 height="100px" viewBox="0 0 100 100" enable-background="new 0 0 100 100" xml:space="preserve">
<g id="Warstwa_2" display="none">
	<rect display="inline" fill="#2D348B"  />
</g>
<g id="Warstwa_1">
	<g>
		<g>
			<path fill="#FFFFFF" d="M93.877,75.059H6.124c-1.064,0-1.928-0.861-1.928-1.928V26.868c0-1.063,0.863-1.927,1.928-1.927h87.753
				c1.064,0,1.928,0.863,1.928,1.927v46.263C95.805,74.197,94.941,75.059,93.877,75.059z M8.051,71.203h83.898V28.795H8.051V71.203z
				"/>
		</g>
		<g>
			<path fill="#FFFFFF" d="M34.914,40.519c1.032,0,1.996,0.147,2.891,0.442c0.894,0.295,1.65,0.732,2.268,1.313
				c0.617,0.581,1.055,1.292,1.314,2.13c0.258,0.84,0.276,1.793,0.055,2.862c-0.24,1.089-0.581,2.021-1.023,2.795
				c-0.443,0.774-1.015,1.42-1.715,1.936s-1.544,0.895-2.53,1.135c-0.987,0.238-2.135,0.359-3.444,0.359h-3.818l-1.217,5.643
				c-0.038,0.203-0.143,0.379-0.318,0.525c-0.175,0.148-0.364,0.221-0.567,0.221h-3.624c-0.203,0-0.364-0.072-0.484-0.221
				c-0.121-0.146-0.162-0.322-0.125-0.525l3.817-17.869c0.037-0.203,0.143-0.378,0.318-0.525c0.175-0.148,0.364-0.222,0.567-0.222
				H34.914z M29.824,49.176h3.402c0.775,0,1.453-0.171,2.033-0.512c0.581-0.341,0.955-0.898,1.121-1.673
				c0.147-0.774,0.004-1.333-0.429-1.673c-0.434-0.343-1.037-0.513-1.812-0.513h-3.402L29.824,49.176z"/>
			<path fill="#FFFFFF" d="M55.908,55.455c0.202,0,0.359,0.074,0.47,0.223c0.111,0.148,0.148,0.322,0.111,0.523l-0.637,2.934
				c-0.036,0.203-0.143,0.379-0.318,0.525c-0.176,0.148-0.363,0.221-0.567,0.221H42.161c-0.204,0-0.365-0.072-0.484-0.221
				c-0.12-0.146-0.162-0.322-0.125-0.525l3.817-17.869c0.037-0.203,0.143-0.378,0.318-0.525c0.174-0.148,0.364-0.222,0.567-0.222
				h3.624c0.203,0,0.364,0.073,0.484,0.222c0.119,0.147,0.161,0.322,0.125,0.525l-3.016,14.189H55.908z"/>
			<path fill="#FFFFFF" d="M71.149,59.881c-0.314,0-0.545-0.078-0.692-0.234s-0.268-0.309-0.359-0.457l-4.842-9.405l-1.989,9.35
				c-0.039,0.203-0.145,0.379-0.318,0.525c-0.177,0.148-0.365,0.221-0.568,0.221h-3.623c-0.203,0-0.364-0.072-0.484-0.221
				c-0.12-0.146-0.161-0.322-0.124-0.525l3.816-17.869c0.037-0.203,0.144-0.378,0.318-0.525c0.175-0.148,0.363-0.222,0.567-0.222
				h2.324c0.313,0,0.549,0.083,0.705,0.249s0.253,0.295,0.291,0.387l4.896,9.46l1.991-9.349c0.036-0.203,0.143-0.378,0.318-0.525
				c0.174-0.148,0.363-0.222,0.566-0.222h3.624c0.202,0,0.363,0.073,0.484,0.222c0.119,0.147,0.161,0.322,0.125,0.525l-3.818,17.869
				c-0.037,0.203-0.143,0.379-0.318,0.525c-0.175,0.148-0.364,0.221-0.566,0.221H71.149z"/>
		</g>
	</g>
</g>
</svg>
