<?xml version="1.0" encoding="utf-8"?>
<!-- Generator: Adobe Illustrator 16.0.0, SVG Export Plug-In . SVG Version: 6.00 Build 0)  -->
<!DOCTYPE svg PUBLIC "-//W3C//DTD SVG 1.1//EN" "http://www.w3.org/Graphics/SVG/1.1/DTD/svg11.dtd">
<svg version="1.1" xmlns="http://www.w3.org/2000/svg" xmlns:xlink="http://www.w3.org/1999/xlink" x="0px" y="0px" width="100px"
	 height="100px" viewBox="0 0 100 100" enable-background="new 0 0 100 100" xml:space="preserve">
<g id="Warstwa_2" display="none">
	<rect display="inline" fill="#2D348B"  />
</g>
<g id="Warstwa_1">
	<path fill="#FFFFFF" d="M97.599,45.577h-0.994v-2.231c0-0.829-0.626-1.553-1.454-1.607c-0.905-0.058-1.659,0.659-1.659,1.553v2.285
		h-3.727v-1.324c0.001-1.29-1.044-2.334-2.334-2.334H63.877c-0.934,0-1.738,0.55-2.11,1.341H59.42
		c-0.114-0.246-0.271-0.476-0.466-0.671c-0.438-0.438-1.031-0.684-1.651-0.684h-3.696v-3.482c0-1.908-1.431-3.494-3.329-3.688
		l-12.222-1.248c-1.042-0.106-2.083,0.235-2.86,0.937c-0.777,0.701-1.223,1.704-1.223,2.75v4.729h-3.695
		c-0.619,0-1.213,0.247-1.651,0.684c-0.2,0.2-0.357,0.434-0.472,0.686l-2.271-0.014c-0.374-0.792-1.177-1.341-2.111-1.341H2.334
		C1.022,41.918-0.032,43,0,44.311l0.302,12.121c0.036,1.419,1.317,2.479,2.717,2.245l21.181-3.528
		c1.105-0.207,1.906-1.172,1.906-2.296v-1.799l1.835-0.002v2.903l-5.466,10.991c-0.456,0.918-0.254,1.998,0.438,2.69
		c0.144,0.144,0.309,0.271,0.492,0.376l9.016,5.158c0.683,0.391,1.521,0.449,2.228,0.103c1.005-0.492,1.502-1.598,1.25-2.645
		l-0.265-1.104l5.698-9.957l3.562,0.291c0.849,4.985,3.225,9.623,6.833,13.23c0.613,0.612,1.262,1.197,1.945,1.748
		c0.674,0.543,1.598,0.658,2.392,0.31l6.709-2.948c0.746-0.327,1.268-1.021,1.375-1.829s-0.213-1.613-0.848-2.124
		c-3.094-2.497-5.321-5.836-6.475-9.537c0.121-0.1,0.24-0.2,0.355-0.307c1.56-1.438,2.454-3.479,2.454-5.6v-1.748h1.906v3.27
		c0,0.621,0.248,1.215,0.684,1.65c0.034,0.034,0.069,0.067,0.106,0.1c0.502,0.443,1.17,0.649,1.835,0.565l23.553-2.954
		c1.169-0.146,2.044-1.14,2.044-2.316v-1.123h7.9c1.327,0,2.395-1.107,2.332-2.447C99.938,46.543,98.856,45.577,97.599,45.577z
		 M38.344,51.438h-1.691c-0.43-0.001-0.818-0.175-1.1-0.457s-0.456-0.671-0.456-1.101c0-0.859,0.696-1.556,1.556-1.556h1.69
		c0.86,0,1.557,0.697,1.557,1.556C39.9,50.74,39.203,51.438,38.344,51.438z M48.938,41.904H38.641v-3.664l10.297,1.051V41.904z"/>
</g>
</svg>
