<?xml version="1.0" encoding="utf-8"?>
<!-- Generator: Adobe Illustrator 16.0.0, SVG Export Plug-In . SVG Version: 6.00 Build 0)  -->
<!DOCTYPE svg PUBLIC "-//W3C//DTD SVG 1.1//EN" "http://www.w3.org/Graphics/SVG/1.1/DTD/svg11.dtd">
<svg version="1.1" xmlns="http://www.w3.org/2000/svg" xmlns:xlink="http://www.w3.org/1999/xlink" x="0px" y="0px"
	  viewBox="0 0 230 230" enable-background="new 0 0 230 230" xml:space="preserve">
<g id="Warstwa_2" display="none">
	<rect display="inline" fill="#2D348B"  />
</g>
<g id="Warstwa_1">
	<path fill-rule="evenodd" clip-rule="evenodd" fill="#0DB58E" d="M149.408,133.717c3.208-4.81,4.762-10.146,4.549-15.867
		c-0.228-6.12-2.518-11.601-5.965-16.646c-4.237-6.202-9.525-11.377-15.57-15.739c-6.504-4.691-13.21-9.099-19.79-13.683
		c-3.759-2.618-7.358-5.433-10.138-9.149c-3.132-4.189-3.878-8.97-2.376-13.772c1.385-4.433,5-7.161,9.262-8.858
		c3.127-1.245,6.372-1.247,9.694-0.8c4.643,0.625,8.525,4.29,8.047,9.388c-0.153,1.634-0.409,3.258-0.647,4.881
		c-0.328,2.246-0.504,4.542,0.343,6.66c2.666,6.66,11.041,7.919,15.941,4.02c4.405-3.505,5.207-9.113,3.203-14.393
		c-1.976-5.21-5.77-8.961-10.363-11.938c-3.847-2.494-8.131-3.741-12.641-4.478c-5.341-0.873-10.646-0.752-15.91,0.268
		c-4.328,0.837-8.409,2.466-12.063,4.983c-6.406,4.413-10.894,10.162-12.498,17.962c-1.549,7.539,0.003,14.497,4.808,20.29
		c2.27,2.738,5.541,5.869,9.089,8.981c-7.202,5.604-12.824,10.651-15.791,15.101c-3.209,4.81-4.762,10.146-4.55,15.867
		c0.228,6.12,2.519,11.601,5.965,16.646c4.238,6.202,9.525,11.378,15.571,15.739c6.502,4.691,13.21,9.099,19.79,13.684
		c3.759,2.617,7.358,5.434,10.137,9.148c3.134,4.189,3.879,8.972,2.378,13.773c-1.386,4.431-5.001,7.16-9.264,8.857
		c-3.127,1.245-6.371,1.246-9.694,0.8c-4.642-0.625-8.525-4.291-8.046-9.389c0.154-1.633,0.41-3.257,0.647-4.881
		c0.328-2.246,0.504-4.544-0.343-6.659c-2.666-6.662-11.042-7.919-15.942-4.02c-4.404,3.503-5.207,9.111-3.203,14.393
		c1.976,5.209,5.77,8.96,10.364,11.938c3.847,2.494,8.132,3.741,12.64,4.479c5.342,0.873,10.648,0.752,15.913-0.268
		c4.326-0.837,8.408-2.467,12.062-4.983c6.406-4.413,10.895-10.162,12.498-17.962c1.548-7.538-0.003-14.497-4.809-20.291
		c-2.27-2.737-5.538-5.868-9.089-8.981C140.82,143.213,146.441,138.166,149.408,133.717z M133.656,139.742
		c-0.786,0.979-2.996,3.313-4.698,5.116c-6.221-5.136-12.359-9.704-14.883-11.66c-5.145-3.991-10.213-8.09-15.161-12.321
		c-2.608-2.229-7.178-6.785-7.178-14.325c0-5.024,1.88-8.25,4.608-11.65c0.787-0.98,2.996-3.313,4.699-5.118
		c6.221,5.137,12.36,9.705,14.883,11.661c5.145,3.991,10.213,8.089,15.161,12.321c2.607,2.229,7.177,6.786,7.177,14.325
		C138.264,133.117,136.385,136.342,133.656,139.742z"/>
</g>
</svg>
