<?xml version="1.0" encoding="utf-8"?>
<!-- Generator: Adobe Illustrator 16.0.0, SVG Export Plug-In . SVG Version: 6.00 Build 0)  -->
<!DOCTYPE svg PUBLIC "-//W3C//DTD SVG 1.1//EN" "http://www.w3.org/Graphics/SVG/1.1/DTD/svg11.dtd">
<svg version="1.1" id="Warstwa_1" xmlns="http://www.w3.org/2000/svg" xmlns:xlink="http://www.w3.org/1999/xlink" x="0px" y="0px"
	   viewBox="0 0 70 21.387" enable-background="new 0 0 70 21.387" xml:space="preserve">
<g>
	<path fill="#0DB58E" d="M59.307,0H10.693C4.788,0,0,4.788,0,10.693c0,5.905,4.788,10.693,10.693,10.693h48.614
		C65.213,21.387,70,16.6,70,10.693C70,4.788,65.213,0,59.307,0z M14.292,14.44c0,0.404-0.244,0.769-0.617,0.924
		c-0.124,0.051-0.253,0.075-0.382,0.075c-0.26,0-0.515-0.102-0.707-0.292L8.839,11.4c-0.188-0.188-0.293-0.441-0.293-0.707
		s0.105-0.52,0.293-0.707l3.747-3.748c0.286-0.287,0.716-0.372,1.089-0.217c0.374,0.154,0.617,0.519,0.617,0.923V14.44z
		 M61.161,11.4l-3.747,3.747c-0.19,0.19-0.446,0.292-0.707,0.292c-0.129,0-0.258-0.024-0.382-0.075
		c-0.373-0.155-0.616-0.52-0.616-0.924V6.946c0-0.404,0.243-0.769,0.616-0.923c0.374-0.155,0.804-0.069,1.089,0.217l3.748,3.748
		c0.187,0.187,0.292,0.441,0.292,0.707S61.349,11.213,61.161,11.4z"/>
	<path fill="#2D348B" d="M57.414,6.24c-0.285-0.286-0.715-0.372-1.089-0.217c-0.373,0.154-0.616,0.519-0.616,0.923v7.494
		c0,0.404,0.243,0.769,0.616,0.924c0.124,0.051,0.253,0.075,0.382,0.075c0.261,0,0.517-0.102,0.707-0.292l3.747-3.747
		c0.188-0.188,0.293-0.441,0.293-0.707s-0.105-0.52-0.292-0.707L57.414,6.24z"/>
	<path fill="#2D348B" d="M13.675,6.023c-0.373-0.155-0.803-0.07-1.089,0.217L8.839,9.987c-0.188,0.187-0.293,0.441-0.293,0.707
		s0.105,0.519,0.293,0.707l3.747,3.747c0.191,0.19,0.447,0.292,0.707,0.292c0.129,0,0.259-0.024,0.382-0.075
		c0.374-0.155,0.617-0.52,0.617-0.924V6.946C14.292,6.542,14.048,6.177,13.675,6.023z"/>
</g>
</svg>
