<?xml version="1.0" encoding="utf-8"?>
<!-- Generator: Adobe Illustrator 16.0.0, SVG Export Plug-In . SVG Version: 6.00 Build 0)  -->
<!DOCTYPE svg PUBLIC "-//W3C//DTD SVG 1.1//EN" "http://www.w3.org/Graphics/SVG/1.1/DTD/svg11.dtd">
<svg version="1.1" xmlns="http://www.w3.org/2000/svg" xmlns:xlink="http://www.w3.org/1999/xlink" x="0px" y="0px"
	  viewBox="0 0 100 100" enable-background="new 0 0 100 100" xml:space="preserve">
<g id="Warstwa_2" display="none">
	<rect display="inline" fill="#2D348B"  />
</g>
<g id="Warstwa_1">
	<g>
		<path fill="#FFFFFF" d="M50.001,17.257c-18.055,0-32.743,14.688-32.743,32.743c0,18.054,14.688,32.742,32.743,32.742
			S82.743,68.055,82.743,50C82.743,31.945,68.056,17.257,50.001,17.257z M50.001,78.887c-15.929,0-28.888-12.959-28.888-28.886
			c0-15.929,12.958-28.889,28.888-28.889c15.929,0,28.887,12.96,28.887,28.889C78.888,65.928,65.93,78.887,50.001,78.887z"/>
		<path fill="#FFFFFF" d="M50,34.338c4.191,0,8.127,1.626,11.081,4.581c0.753,0.754,1.973,0.754,2.726,0
			c0.753-0.752,0.753-1.973,0-2.725c-3.683-3.684-8.586-5.711-13.807-5.711c-5.22,0-10.124,2.027-13.806,5.711
			c-2.173,2.172-3.705,4.741-4.637,7.471h-3.521c-1.064,0-1.928,0.863-1.928,1.928s0.863,1.928,1.928,1.928h2.626
			c-0.209,1.646-0.209,3.311,0,4.958h-2.626c-1.064,0-1.928,0.861-1.928,1.928c0,1.064,0.863,1.928,1.928,1.928h3.522
			c0.933,2.729,2.463,5.299,4.637,7.473c3.806,3.807,8.807,5.709,13.806,5.709c5,0,10-1.902,13.806-5.709
			c0.753-0.754,0.753-1.973,0-2.727c-0.753-0.752-1.975-0.752-2.726,0c-6.109,6.109-16.049,6.111-22.161,0
			c-1.408-1.408-2.476-3.025-3.235-4.746h19.786c1.064,0,1.928-0.863,1.928-1.928c0-1.066-0.863-1.928-1.928-1.928h-20.92
			c-0.262-1.643-0.262-3.315,0-4.958h24.594c1.064,0,1.928-0.863,1.928-1.928s-0.863-1.928-1.928-1.928H35.685
			c0.759-1.721,1.826-3.338,3.234-4.746C41.875,35.964,45.809,34.338,50,34.338z"/>
	</g>
</g>
</svg>
