<?xml version="1.0" encoding="utf-8"?>
<!-- Generator: Adobe Illustrator 16.0.0, SVG Export Plug-In . SVG Version: 6.00 Build 0)  -->
<!DOCTYPE svg PUBLIC "-//W3C//DTD SVG 1.1//EN" "http://www.w3.org/Graphics/SVG/1.1/DTD/svg11.dtd">
<svg version="1.1" xmlns="http://www.w3.org/2000/svg" xmlns:xlink="http://www.w3.org/1999/xlink" x="0px" y="0px" width="230px"
	 height="230px" viewBox="0 0 230 230" enable-background="new 0 0 230 230" xml:space="preserve">
<g id="Warstwa_2" display="none">
	<rect display="inline" fill="#2D348B"  />
</g>
<g id="Warstwa_1">
	<g>
		<path fill="#FFFFFF" d="M217.711,75.642c-27.595-27.593-64.28-42.789-103.305-42.789c-39.021,0-75.708,15.196-103.302,42.789
			c-2.774,2.775-2.774,7.274,0,10.048c2.775,2.773,7.272,2.773,10.048,0c24.909-24.911,58.029-38.628,93.254-38.628
			c35.229,0,68.349,13.717,93.256,38.628c1.388,1.387,3.205,2.081,5.023,2.081s3.638-0.694,5.025-2.081
			C220.483,82.916,220.483,78.417,217.711,75.642z"/>
		<path fill="#FFFFFF" d="M114.406,64.873c-30.514,0-59.171,11.854-80.695,33.375c-2.774,2.775-2.774,7.272,0,10.048
			c2.775,2.773,7.273,2.773,10.048,0c18.838-18.839,43.928-29.214,70.646-29.214c26.721,0,51.812,10.375,70.648,29.214
			c1.388,1.387,3.205,2.081,5.024,2.081s3.638-0.694,5.025-2.081c2.774-2.775,2.774-7.272,0-10.048
			C173.581,76.726,144.923,64.873,114.406,64.873z"/>
		<path fill="#FFFFFF" d="M114.406,96.83c-21.964,0-42.594,8.533-58.087,24.028c-2.775,2.773-2.775,7.271,0.001,10.047
			c2.773,2.773,7.272,2.775,10.047,0c12.81-12.811,29.871-19.866,48.039-19.866c18.171,0,35.231,7.055,48.042,19.866
			c1.388,1.387,3.205,2.082,5.024,2.082c1.818,0,3.637-0.695,5.024-2.082c2.775-2.775,2.775-7.273,0-10.047
			C157.003,105.362,136.373,96.83,114.406,96.83z"/>
		<path fill="#FFFFFF" d="M114.406,128.785c-13.414,0-26.016,5.213-35.48,14.678c-2.774,2.775-2.774,7.273,0.001,10.047
			c2.773,2.773,7.272,2.773,10.046-0.002c6.78-6.777,15.813-10.514,25.433-10.514c9.622,0,18.653,3.736,25.436,10.514
			c1.388,1.389,3.205,2.082,5.023,2.082s3.636-0.693,5.022-2.08c2.775-2.773,2.775-7.271,0-10.047
			C140.425,133.998,127.823,128.785,114.406,128.785z"/>
		<path fill="#FFFFFF" d="M114.406,160.742c-4.867,0-9.439,1.891-12.873,5.326c-3.436,3.436-5.329,8.01-5.329,12.875
			c0,4.867,1.893,9.439,5.329,12.877c3.436,3.434,8.007,5.326,12.873,5.326c4.868,0,9.439-1.893,12.877-5.326
			c3.436-3.438,5.325-8.01,5.325-12.877c0-4.865-1.89-9.439-5.325-12.873C123.846,162.633,119.274,160.742,114.406,160.742z"/>
	</g>
</g>
</svg>
