<?xml version="1.0" encoding="utf-8"?>
<!-- Generator: Adobe Illustrator 16.0.0, SVG Export Plug-In . SVG Version: 6.00 Build 0)  -->
<!DOCTYPE svg PUBLIC "-//W3C//DTD SVG 1.1//EN" "http://www.w3.org/Graphics/SVG/1.1/DTD/svg11.dtd">
<svg version="1.1" xmlns="http://www.w3.org/2000/svg" xmlns:xlink="http://www.w3.org/1999/xlink" x="0px" y="0px"
	  viewBox="0 0 230 230" enable-background="new 0 0 230 230" xml:space="preserve">
<g id="Warstwa_2" display="none">
	<rect display="inline" fill="#2D348B"  />
</g>
<g id="Warstwa_1">
	<g>
		<path fill="#0DB58E" d="M198.729,190.891c0-24.404-10.223-58.786-36.174-63.159c-16.025-2.701-17.668-7.201-22.274-12.487
			c0,0,0,0.001-0.001,0.001c-0.564,0.646-1.145,1.274-1.743,1.885c-0.056,0.056-0.112,0.111-0.167,0.167
			c-0.59,0.596-1.192,1.179-1.814,1.738c-6.721,6.047-14.679,9.379-22.407,9.379c-7.728,0-15.686-3.332-22.407-9.379
			c-0.623-0.56-1.224-1.143-1.814-1.738c-0.056-0.056-0.112-0.111-0.167-0.167c-0.599-0.61-1.18-1.239-1.743-1.885
			c-0.001,0-0.002-0.001-0.002-0.001c-4.605,5.286-6.249,9.786-22.272,12.487c-25.952,4.373-36.174,38.755-36.174,63.159
			c0,12.43,37.136,22.131,84.581,22.131S198.729,203.32,198.729,190.891z M105.891,196.181l4.701-47.124l-3.012-5.155
			c0,0,3.688-4.093,6.568-13.035c2.88,8.942,6.568,13.035,6.568,13.035l-3.011,5.155l4.699,47.124l-8.257,12.294L105.891,196.181z"
			/>
		<path fill="#0DB58E" d="M83.344,93.059c4.428,18.197,18.509,29.293,30.803,29.293s26.376-11.096,30.804-29.293
			c5.548-2.55,9.618-10.564,9.618-16.61v-3.032c0-2.775-1.719-5.811-3.537-7.475c0.807-1.771,1.212-9.247,1.212-11.472
			c0-21.041-17.056-37.491-38.096-37.491h-0.001l0,0c-21.04,0-38.097,16.45-38.097,37.491c0,2.226,0.404,9.701,1.212,11.472
			c-1.818,1.664-3.537,4.699-3.537,7.475v3.032C73.727,82.494,77.796,90.508,83.344,93.059z"/>
	</g>
</g>
</svg>
