<?xml version="1.0" encoding="utf-8"?>
<!-- Generator: Adobe Illustrator 16.0.0, SVG Export Plug-In . SVG Version: 6.00 Build 0)  -->
<!DOCTYPE svg PUBLIC "-//W3C//DTD SVG 1.1//EN" "http://www.w3.org/Graphics/SVG/1.1/DTD/svg11.dtd">
<svg version="1.1" id="Warstwa_1" xmlns="http://www.w3.org/2000/svg" xmlns:xlink="http://www.w3.org/1999/xlink" x="0px" y="0px"
	 width="230px" height="230px" viewBox="0 0 230 230" enable-background="new 0 0 230 230" xml:space="preserve">
<path fill="#FFFFFF" d="M205.987,125.407v-2.789c0-14.961-3.646-29.085-10.092-41.535c1.629-2.48,1.849-5.811,0.119-8.586
	c-16.788-26.923-46.672-44.874-80.669-44.874c-33.998,0-63.881,17.951-80.668,44.874c-1.731,2.775-1.51,6.105,0.118,8.586
	c-6.446,12.451-10.092,26.574-10.092,41.535v2.789c-2.29,0.767-3.941,2.924-3.941,5.472v41.957c0,3.188,2.584,5.773,5.773,5.773
	h7.014c1.298,0,2.35-1.052,2.35-2.35v-1.427h3.252c1.754,12.217,10.068,22.682,21.897,27.016c5.579,2.044,11.49-2.086,11.49-8.026
	v-83.325c0-5.941-5.912-10.07-11.49-8.026c-11.634,4.263-19.871,14.454-21.808,26.412h-3.342v-1.429c0-1.297-1.052-2.35-2.35-2.35
	h-1.591v-2.486c0-13.657,3.301-26.558,9.146-37.947c2.826,0.13,5.575-1.254,7.124-3.738c13.965-22.405,38.827-37.348,67.118-37.348
	c28.289,0,53.151,14.942,67.117,37.348c1.548,2.484,4.298,3.868,7.124,3.738c5.845,11.39,9.145,24.29,9.145,37.947v2.486h-1.591
	c-1.297,0-2.35,1.053-2.35,2.35v1.429h-3.341c-1.938-11.958-10.175-22.149-21.808-26.412h-0.001
	c-5.578-2.044-11.489,2.085-11.489,8.026v83.325c0,5.94,5.911,10.07,11.489,8.026h0.001c11.828-4.334,20.143-14.799,21.897-27.016
	h3.251v1.427c0,1.298,1.053,2.35,2.35,2.35h7.015c3.188,0,5.772-2.585,5.772-5.773v-41.957
	C209.928,128.331,208.276,126.174,205.987,125.407z"/>
</svg>
