<?xml version="1.0" encoding="utf-8"?>
<!-- Generator: Adobe Illustrator 16.0.0, SVG Export Plug-In . SVG Version: 6.00 Build 0)  -->
<!DOCTYPE svg PUBLIC "-//W3C//DTD SVG 1.1//EN" "http://www.w3.org/Graphics/SVG/1.1/DTD/svg11.dtd">
<svg version="1.1" id="Warstwa_1" xmlns="http://www.w3.org/2000/svg" xmlns:xlink="http://www.w3.org/1999/xlink" x="0px" y="0px"
	 width="500px" height="480.769px" viewBox="0 0 500 480.769" enable-background="new 0 0 500 480.769" xml:space="preserve">
<g>
	<path fill="#FFFFFF" d="M403.87,224.631c3.416-7.498,5.121-39.139,5.121-48.557c0-89.038-72.179-158.656-161.222-158.656
		c-89.038,0-161.222,69.619-161.222,158.656c0,9.417,1.707,41.059,5.13,48.557c-7.696,7.038-14.968,19.879-14.968,31.628v12.833
		c0,25.587,17.22,59.497,40.708,70.292c18.735,77.002,78.323,123.967,130.352,123.967s111.622-46.965,130.366-123.967
		c23.477-10.795,40.698-44.705,40.698-70.292v-12.833C418.833,244.51,411.563,231.668,403.87,224.631z M247.771,398.013
		c-36.46,0-67.381-28.021-63.866-34.905c3.52-6.896,23.127,6.9,63.866,6.9c45.604,0,63.869-16.194,67.619-9.428
		C319.128,367.346,287.934,398.013,247.771,398.013z"/>
</g>
</svg>
