<?xml version="1.0" encoding="utf-8"?>
<!-- Generator: Adobe Illustrator 16.0.0, SVG Export Plug-In . SVG Version: 6.00 Build 0)  -->
<!DOCTYPE svg PUBLIC "-//W3C//DTD SVG 1.1//EN" "http://www.w3.org/Graphics/SVG/1.1/DTD/svg11.dtd">
<svg version="1.1" xmlns="http://www.w3.org/2000/svg" xmlns:xlink="http://www.w3.org/1999/xlink" x="0px" y="0px" width="100px"
	 height="100px" viewBox="0 0 100 100" enable-background="new 0 0 100 100" xml:space="preserve">
<g id="Warstwa_2" display="none">
	<rect display="inline" fill="#2D348B"  />
</g>
<g id="Warstwa_1">
	<g>
		<path fill="#FFFFFF" d="M99.844,55.908l-3.763-12.854c-1.828-5.687-6.499-4.568-6.499-4.568l-2.852-0.049
			c-3.76,0.936-4.278,4.902-4.278,4.902l-1.68,5.719l-3.359,4.919l-3.358-4.919l-1.681-5.719c0,0-0.52-3.967-4.278-4.902
			l-2.851,0.049c0,0-4.672-1.118-6.501,4.568l-3.761,12.854c-0.238,0.796,0.213,1.632,1.008,1.87
			c0.144,0.041,0.288,0.062,0.43,0.062c0.646,0,1.243-0.418,1.438-1.071l3.236-10.832v26.103c0,1.23,0.775,2.235,1.725,2.235
			c0.948,0,1.726-1.005,1.726-2.235V59.074h1.848v12.965c0,1.23,0.776,2.235,1.726,2.235c0.947,0,1.726-1.005,1.726-2.235V59.074
			V45.945l1.329,4.393l4.12,5.999c0,0,0.406,0.829,2.12,0.829s2.119-0.829,2.119-0.829l4.118-5.999l1.333-4.393v13.129v12.965
			c0,1.23,0.775,2.235,1.726,2.235c0.947,0,1.725-1.005,1.725-2.235V59.074h1.848v12.965c0,1.23,0.775,2.235,1.725,2.235
			s1.727-1.005,1.727-2.235V45.937l3.233,10.832c0.195,0.653,0.791,1.071,1.439,1.071c0.143,0,0.285-0.021,0.429-0.062
			C99.631,57.54,100.081,56.704,99.844,55.908z"/>
		<circle fill="#FFFFFF" cx="89.366" cy="32.016" r="4.968"/>
		<circle fill="#FFFFFF" cx="65.46" cy="32.016" r="4.968"/>
		<path fill="#FFFFFF" d="M36.074,72.039c0,1.23,0.776,2.235,1.725,2.235s1.725-1.005,1.725-2.235v-8.57h-3.45V72.039z"/>
		<path fill="#FFFFFF" d="M30.775,72.039c0,1.23,0.776,2.235,1.725,2.235s1.725-1.005,1.725-2.235v-8.57h-3.45V72.039z"/>
		<path fill="#FFFFFF" d="M43.384,47.934l-1.404-4.879c-1.829-5.687-6.5-4.568-6.5-4.568l-2.851-0.049
			c-3.758,0.936-4.279,4.902-4.279,4.902l-1.68,5.719l-3.358,4.919l-3.36-4.919l-1.68-5.719c0,0-0.52-3.967-4.279-4.902l-2.85,0.049
			c0,0-4.672-1.118-6.5,4.568l-1.405,4.879l-3.05,8.236c-0.289,0.777,0.109,1.641,0.886,1.928c0.172,0.063,0.348,0.095,0.521,0.095
			c0.61,0,1.184-0.376,1.408-0.98l2.577-6.958l0.095,0.044l1.423,0.079L3.076,62.455h17.315l-3.958-12.078l0.64-0.039
			c0,0,2.837,4.707,4.119,5.999c0.402,0.405,1.417,0.829,2.12,0.829c0.703,0,1.718-0.424,2.119-0.829
			c1.281-1.292,4.119-5.999,4.119-5.999l0.64,0.039L26.23,62.455h17.315l-4.022-12.078l1.423-0.079l0.095-0.044l2.578,6.958
			c0.225,0.604,0.797,0.98,1.407,0.98c0.173,0,0.35-0.031,0.521-0.095c0.777-0.287,1.175-1.15,0.886-1.928L43.384,47.934z"/>
		<path fill="#FFFFFF" d="M11.367,36.984c2.744,0,4.968-2.225,4.968-4.971c0-0.646-0.125-1.27-0.352-1.838
			c0.947-0.274,1.64-1.145,1.64-2.18c0-1.254-1.017-2.271-2.271-2.271c-1.042,0-1.917,0.702-2.185,1.659
			c-0.558-0.219-1.166-0.337-1.801-0.337c-2.745,0-4.969,2.224-4.969,4.966C6.397,34.76,8.622,36.984,11.367,36.984z"/>
		<path fill="#FFFFFF" d="M7.098,72.039c0,1.23,0.776,2.235,1.726,2.235c0.948,0,1.724-1.005,1.724-2.235v-8.57h-3.45V72.039z"/>
		<path fill="#FFFFFF" d="M12.397,72.039c0,1.23,0.776,2.235,1.725,2.235c0.949,0,1.725-1.005,1.725-2.235v-8.57h-3.45V72.039z"/>
		<path fill="#FFFFFF" d="M31.442,38.027c0.179,0,0.36-0.059,0.511-0.181c0.347-0.283,0.397-0.791,0.116-1.138
			c-0.662-0.814-0.907-2.144-0.731-3.52c0.271,2.278,1.872,4.03,3.805,4.03c1.935,0,3.535-1.752,3.806-4.03
			c0.176,1.377-0.069,2.705-0.732,3.52c-0.282,0.347-0.23,0.854,0.115,1.138c0.15,0.122,0.332,0.181,0.511,0.181
			c0.235,0,0.468-0.102,0.627-0.296c1.421-1.742,1.554-4.771,0.323-7.362c-1.024-2.156-2.719-3.395-4.65-3.395
			s-3.625,1.238-4.65,3.395c-1.23,2.592-1.098,5.62,0.323,7.362C30.975,37.928,31.209,38.027,31.442,38.027z"/>
	</g>
</g>
</svg>
