<?xml version="1.0" encoding="utf-8"?>
<!-- Generator: Adobe Illustrator 16.0.0, SVG Export Plug-In . SVG Version: 6.00 Build 0)  -->
<!DOCTYPE svg PUBLIC "-//W3C//DTD SVG 1.1//EN" "http://www.w3.org/Graphics/SVG/1.1/DTD/svg11.dtd">
<svg version="1.1" xmlns="http://www.w3.org/2000/svg" xmlns:xlink="http://www.w3.org/1999/xlink" x="0px" y="0px" width="230px"
	 height="230px" viewBox="0 0 230 230" enable-background="new 0 0 230 230" xml:space="preserve">
<g id="Warstwa_2" display="none">
	<rect display="inline" fill="#2D348B"  />
</g>
<g id="Warstwa_1">
	<path fill="#FFFFFF" d="M224.912,41.665H5.088C2.278,41.665,0,43.943,0,46.752v112.173c0,2.81,2.278,5.088,5.088,5.088h99.53
		l-8.292,14.146h-18.72c-2.811,0-5.088,2.277-5.088,5.088c0,2.809,2.277,5.087,5.088,5.087h73.58c2.811,0,5.088-2.278,5.088-5.087
		c0-2.811-2.277-5.088-5.088-5.088h-18.021l-7.783-14.146h99.53c2.81,0,5.088-2.278,5.088-5.088V46.752
		C230,43.943,227.722,41.665,224.912,41.665z M219.824,153.838H10.175V51.84h209.649V153.838z"/>
</g>
</svg>
