<?xml version="1.0" encoding="utf-8"?>
<!-- Generator: Adobe Illustrator 16.0.0, SVG Export Plug-In . SVG Version: 6.00 Build 0)  -->
<!DOCTYPE svg PUBLIC "-//W3C//DTD SVG 1.1//EN" "http://www.w3.org/Graphics/SVG/1.1/DTD/svg11.dtd">
<svg version="1.1" id="Warstwa_1" xmlns="http://www.w3.org/2000/svg" xmlns:xlink="http://www.w3.org/1999/xlink" x="0px" y="0px"
	 width="95.213px" height="60px" viewBox="0 0 95.213 60" enable-background="new 0 0 95.213 60" xml:space="preserve">
<path fill="#FFFFFF" d="M95.213,43.425C95.213,52.577,87.792,60,78.636,60H16.717C7.562,60,0.14,52.577,0.14,43.425V16.6
	c0-9.157,7.421-16.578,16.577-16.578h61.918c9.156,0,16.577,7.421,16.577,16.578V43.425z"/>
<g>
	<path fill-rule="evenodd" clip-rule="evenodd" fill="#1D396A" d="M63.579,11.691c0.2,0.03,0.401,0.066,0.603,0.089
		c1.046,0.117,2.058,0.371,3.017,0.807c2.067,0.942,3.444,2.512,4.09,4.673c0.753,2.525,0.518,4.991-0.733,7.315
		c-0.894,1.665-2.275,2.825-3.999,3.582c-1.027,0.452-2.108,0.688-3.228,0.761c-1.315,0.087-2.603-0.064-3.863-0.429
		c-1.146-0.332-2.128-0.964-3-1.768c-1.087-1.007-1.91-2.19-2.39-3.602c-0.207-0.607-0.306-1.237-0.363-1.871
		c-0.101-1.094-0.029-2.179,0.25-3.245c0.545-2.077,1.711-3.718,3.51-4.896c0.828-0.542,1.752-0.87,2.712-1.1
		c0.577-0.137,1.164-0.225,1.754-0.272c0.064-0.006,0.127-0.031,0.19-0.045C62.611,11.691,63.095,11.691,63.579,11.691z
		 M68.289,20.78c-0.008-0.139-0.021-0.411-0.039-0.68c-0.08-1.233-0.366-2.41-0.886-3.533c-0.665-1.437-1.747-2.446-3.202-3.033
		c-1.257-0.506-2.544-0.486-3.824-0.052c-0.776,0.265-1.419,0.715-1.909,1.379c-0.276,0.372-0.513,0.765-0.701,1.188
		c-0.441,0.992-0.622,2.04-0.647,3.116c-0.028,1.268,0.177,2.504,0.525,3.722c0.315,1.099,0.893,2.031,1.717,2.813
		c1.328,1.257,2.875,1.907,4.732,1.681c0.817-0.1,1.56-0.375,2.213-0.885c0.587-0.458,0.977-1.059,1.267-1.736
		C68.063,23.531,68.276,22.241,68.289,20.78z M56.403,22.692c-0.141-0.041-0.139-0.042-0.249-0.153
		c-0.018-0.019-0.043-0.039-0.069-0.043c-0.188-0.022-0.367-0.013-0.497,0.153c-0.095,0.12-0.191,0.239-0.276,0.344
		c0.026,0.069,0.081,0.136,0.066,0.185c-0.05,0.179,0.052,0.29,0.154,0.406c0.027,0.031,0.077,0.061,0.079,0.095
		c0.01,0.166,0.109,0.267,0.225,0.368c0.072,0.065,0.122,0.092,0.227,0.069c0.233-0.056,0.531,0.09,0.639,0.279
		c-0.047,0.073-0.089,0.137-0.141,0.217c-0.111-0.092-0.238-0.147-0.406-0.133c0.088,0.17,0.014,0.31-0.028,0.455
		c-0.09,0.309-0.024,0.447,0.271,0.566c0.104,0.043,0.204,0.085,0.277-0.06c0.021-0.04,0.096-0.063,0.15-0.071
		c0.154-0.021,0.288,0.034,0.406,0.13c0.066,0.054,0.079,0.112,0.026,0.191c-0.028,0.041-0.053,0.129-0.032,0.15
		c0.085,0.084,0.122,0.222,0.262,0.254c0.036,0.008,0.07,0.037,0.102,0.063c0.091,0.071,0.174,0.155,0.271,0.219
		c0.124,0.083,0.258,0.152,0.397,0.232c0.034-0.065,0.077-0.146,0.12-0.229c0.039,0.003,0.076,0.005,0.145,0.007
		c-0.051-0.077-0.084-0.134-0.122-0.185c-0.081-0.101-0.17-0.195-0.245-0.301c-0.116-0.167-0.217-0.346-0.338-0.513
		c-0.163-0.228-0.386-0.351-0.676-0.335c-0.033,0.002-0.068-0.012-0.098-0.019c-0.074-0.244,0.259-0.373,0.157-0.613
		c-0.243-0.022-0.256-0.033-0.303-0.264c-0.007-0.036-0.016-0.07-0.023-0.106c-0.043-0.172-0.055-0.179-0.234-0.195
		c-0.054-0.004-0.118-0.018-0.158-0.051c-0.089-0.078-0.148-0.427-0.07-0.517c0.1-0.118,0.081-0.22,0.037-0.344
		C56.423,22.871,56.42,22.789,56.403,22.692z M69.657,22.885c-0.005,0.037-0.001,0.06-0.011,0.078
		c-0.026,0.052-0.064,0.098-0.083,0.154c-0.019,0.049-0.034,0.107-0.026,0.16c0.027,0.189,0.03,0.188-0.145,0.249
		c-0.225,0.08-0.272,0.178-0.193,0.397c0.073,0.208,0.071,0.212-0.098,0.34c-0.078,0.06-0.181,0.097-0.206,0.208
		c0.258,0.154,0.545,0.105,0.68-0.113c-0.093-0.108-0.188-0.216-0.278-0.322c0.071-0.125,0.136-0.24,0.296-0.21
		c0.013-0.082,0.023-0.152,0.03-0.187c0.097-0.063,0.185-0.093,0.229-0.154c0.097-0.133,0.205-0.249,0.354-0.319
		c0.085-0.037,0.136-0.099,0.107-0.188c-0.04-0.126-0.01-0.236,0.085-0.36c-0.087-0.021-0.14-0.036-0.193-0.044
		c-0.065-0.009-0.135-0.001-0.156-0.086c0.257-0.15,0.257-0.15,0.232-0.493c-0.093-0.042-0.199-0.081-0.24-0.211
		c0.188-0.1,0.41-0.14,0.505-0.354c0.006-0.012,0.025-0.016,0.037-0.024c0.213-0.146,0.245-0.276,0.141-0.511
		c-0.031-0.071-0.032-0.151-0.05-0.233c-0.055-0.034-0.118-0.071-0.196-0.119c0.28-0.197,0.313-0.494,0.352-0.771
		c-0.16-0.07-0.303-0.13-0.442-0.193c-0.202,0.105-0.337,0.251-0.37,0.484c-0.01,0.085-0.047,0.172-0.157,0.187
		c-0.05,0.006-0.048,0.038-0.068,0.076c-0.085,0.153-0.027,0.281,0.045,0.404c0.178,0.305,0.218,0.255,0.431,0.167
		c0.012-0.005,0.028,0.002,0.057,0.005c0.049,0.096,0.103,0.195,0.16,0.303c-0.043,0.022-0.064,0.039-0.09,0.051
		c-0.219,0.099-0.447-0.029-0.69,0.031c0.077,0.211-0.151,0.417,0.001,0.638c0.013,0.019-0.003,0.058-0.009,0.085
		c-0.031,0.117-0.064,0.236-0.098,0.357c-0.056-0.013-0.11-0.025-0.192-0.043c0.021,0.066,0.039,0.105,0.046,0.146
		c0.007,0.043,0.005,0.089,0.003,0.131C69.45,22.807,69.45,22.807,69.657,22.885z M68.564,15.954
		c0.106,0.012,0.208,0.016,0.306,0.038c0.137,0.031,0.163,0.108,0.107,0.24c-0.068,0.166-0.132,0.331-0.185,0.5
		c-0.043,0.137-0.055,0.28-0.002,0.442c0.08-0.025,0.15-0.045,0.217-0.067c0.138-0.046,0.282-0.116,0.407,0.015
		c0.124,0.132,0.059,0.274-0.006,0.408c-0.088,0.181-0.139,0.354-0.057,0.564c0.08,0.207,0.16,0.301,0.378,0.306
		c0.151,0.002,0.663-0.154,0.819-0.252c-0.057-0.131-0.282-0.084-0.293-0.261c-0.009-0.143-0.002-0.287-0.002-0.407
		c-0.164-0.104-0.321-0.204-0.476-0.301c0.122-0.25,0.164-0.473,0.139-0.704c-0.011-0.097-0.103-0.197-0.21-0.224
		c-0.056-0.014-0.114-0.019-0.172-0.034c-0.147-0.042-0.192-0.097-0.192-0.25c0-0.095,0.018-0.189,0.014-0.284
		c-0.004-0.083-0.007-0.171-0.135-0.192c-0.049-0.008-0.1-0.093-0.125-0.156c-0.026-0.062-0.022-0.14-0.031-0.205
		c-0.487-0.141-0.799-0.006-0.918,0.449c0.046,0.086,0.122,0.12,0.216,0.116c0.081-0.004,0.12,0.043,0.148,0.108
		C68.53,15.85,68.544,15.899,68.564,15.954z M55.841,19.673c0-0.111-0.028-0.204,0.006-0.257c0.08-0.13,0.091-0.257,0.069-0.399
		c-0.01-0.065-0.023-0.135-0.008-0.196c0.056-0.213-0.021-0.418-0.039-0.626c-0.007-0.075-0.049-0.159-0.101-0.211
		c-0.103-0.106-0.062-0.243-0.101-0.36c-0.022-0.07,0.078-0.136,0.161-0.183c0.243-0.138,0.318-0.374,0.196-0.572
		c0.032-0.06,0.063-0.12,0.112-0.214c-0.094,0-0.171-0.023-0.215,0.005c-0.088,0.059-0.155,0.15-0.236,0.22
		c-0.147,0.125,0,0.275-0.033,0.433c-0.087-0.011-0.165-0.019-0.239-0.025c-0.002,0.14-0.043,0.293,0,0.417
		c0.074,0.213-0.002,0.367-0.108,0.531c-0.053,0.083-0.092,0.173-0.145,0.274c0.074,0.014,0.115,0.021,0.189,0.036
		c-0.107,0.04-0.181,0.068-0.263,0.099c0.03,0.083,0.055,0.154,0.082,0.229c-0.092,0.05-0.174,0.095-0.284,0.155
		c0.064,0.237,0.13,0.484,0.198,0.739C55.355,19.889,55.583,19.669,55.841,19.673z M55.177,20.593
		c0.012,0.032,0.029,0.078,0.052,0.137c-0.07,0.018-0.125,0.03-0.179,0.047c-0.056,0.018-0.114,0.03-0.164,0.061
		c-0.12,0.072-0.13,0.174-0.011,0.25c0.101,0.063,0.086,0.141,0.075,0.228c-0.012,0.093-0.066,0.202-0.036,0.275
		c0.036,0.086,0.02,0.141-0.004,0.178c0.105,0.127,0.213,0.227,0.284,0.35c0.051,0.088,0.105,0.125,0.201,0.135
		c0.23,0.024,0.434-0.042,0.625-0.165c0.128-0.082,0.216-0.27,0.19-0.399c-0.028-0.138-0.171-0.261-0.337-0.296
		c-0.077-0.016-0.179-0.023-0.187-0.122c-0.012-0.142-0.126-0.17-0.241-0.225c0.107-0.202,0.2-0.395,0.308-0.574
		c0.042-0.073,0.054-0.13,0.016-0.202c-0.003-0.006,0.012-0.021,0.018-0.028c0.057,0.016,0.115,0.033,0.184,0.05
		c-0.012-0.038-0.012-0.06-0.021-0.063c-0.074-0.031-0.147-0.063-0.224-0.088c-0.177-0.054-0.271-0.02-0.369,0.14
		C55.295,20.384,55.239,20.485,55.177,20.593z M70.496,19.074c0.118,0,0.212,0.006,0.305-0.001c0.12-0.008,0.18-0.125,0.107-0.215
		c-0.071-0.089-0.204-0.14-0.16-0.3c0.005-0.02-0.092-0.085-0.149-0.105c-0.115-0.038-0.242-0.036-0.334,0.043
		c-0.133,0.112-0.347,0.129-0.396,0.342c-0.004,0.021-0.039,0.05-0.064,0.051c-0.151,0.014-0.16,0.123-0.167,0.236
		c-0.006,0.05-0.018,0.1-0.028,0.148c-0.028,0.121-0.055,0.242-0.082,0.366c0.149,0,0.277,0,0.42,0
		c0.039-0.133,0.161-0.197,0.293-0.247C70.378,19.339,70.479,19.253,70.496,19.074z M67.541,14.591
		c0.092-0.124,0.159-0.215,0.23-0.31c0.077,0.043,0.126,0.074,0.178,0.104c-0.106-0.206-0.213-0.396-0.429-0.505
		c-0.157-0.081-0.187-0.101-0.313,0.005c-0.047,0.04-0.09,0.085-0.188,0.174c-0.011-0.288-0.068-0.512-0.219-0.716
		c-0.105,0.139-0.198,0.266-0.285,0.385c0.172,0.182,0.347,0.364,0.534,0.56c0.145-0.048,0.244,0.03,0.327,0.16
		C67.414,14.504,67.481,14.542,67.541,14.591z M58.797,26.905c0.068,0.086,0.125,0.172,0.195,0.247
		c0.042,0.044,0.109,0.102,0.158,0.096c0.144-0.018,0.249,0.077,0.289,0.156c0.064,0.132,0.173,0.188,0.276,0.257
		c0.074,0.05,0.163,0.075,0.244,0.116c0.183,0.093,0.305,0.075,0.458-0.066c-0.025-0.07-0.053-0.136-0.072-0.206
		c-0.022-0.08-0.043-0.153-0.157-0.131c0.014,0.042,0.026,0.076,0.039,0.11c-0.054,0.01-0.139,0.002-0.148,0.027
		c-0.06,0.146-0.157,0.08-0.274,0.075c0.053-0.076,0.093-0.133,0.129-0.186c-0.033-0.044-0.058-0.078-0.08-0.109
		c0.049-0.041,0.087-0.074,0.158-0.13c-0.274-0.095-0.514-0.169-0.747-0.262c-0.111-0.044-0.194-0.032-0.279,0.063
		c-0.031-0.063-0.055-0.113-0.085-0.178C58.86,26.831,58.829,26.868,58.797,26.905z M65.448,12.94
		c0.148,0.278,0.384,0.438,0.692,0.504c0.011-0.015,0.026-0.029,0.035-0.049c0.102-0.206,0.06-0.291-0.163-0.335
		c-0.077-0.016-0.152-0.048-0.229-0.063C65.686,12.977,65.588,12.963,65.448,12.94z M68.217,14.743
		c0.103-0.009,0.183-0.011,0.26-0.026c0.053-0.011,0.108-0.032,0.153-0.063c0.02-0.016,0.014-0.065,0.02-0.098
		c-0.038,0-0.077-0.008-0.109,0.004c-0.029,0.011-0.05,0.042-0.071,0.058c-0.135-0.046-0.197-0.223-0.367-0.161
		c0.003,0.029-0.002,0.053,0.005,0.07C68.143,14.599,68.179,14.669,68.217,14.743z M61.75,27.889
		c-0.365-0.071-0.632,0.046-0.675,0.282c0.137,0.032,0.174-0.155,0.322-0.136C61.501,28.047,61.649,28.031,61.75,27.889z
		 M64.059,12.488c0.128,0,0.255,0.025,0.369-0.076c-0.044-0.126-0.134-0.14-0.231-0.121C64.104,12.309,64.039,12.361,64.059,12.488z
		 M55.087,20.622c-0.01-0.019-0.019-0.036-0.028-0.053c-0.055,0.029-0.108,0.057-0.163,0.084c0.009,0.018,0.019,0.037,0.028,0.054
		C54.978,20.679,55.033,20.65,55.087,20.622z M60.855,27.676c0.005,0.018,0.012,0.035,0.018,0.054
		c0.058,0.015,0.104,0.006,0.137-0.104C60.939,27.649,60.897,27.663,60.855,27.676z M65.226,12.897
		c0.015-0.017,0.027-0.032,0.04-0.047c-0.042-0.032-0.086-0.067-0.13-0.101c-0.009,0.014-0.02,0.025-0.029,0.036
		C65.146,12.823,65.186,12.86,65.226,12.897z M56.153,16.635c0.021,0.005,0.041,0.01,0.061,0.015c0.01-0.05,0.021-0.097,0.031-0.147
		c-0.017-0.003-0.034-0.007-0.052-0.013C56.18,16.539,56.167,16.585,56.153,16.635z"/>
	<path fill-rule="evenodd" clip-rule="evenodd" fill="#AA2624" d="M82.072,22.499c-0.019,0.022-0.035,0.046-0.06,0.077
		c-0.092-0.048-0.097-0.139-0.104-0.223c-0.012-0.086-0.006-0.174-0.019-0.262c-0.042-0.319-0.265-0.527-0.585-0.551
		c-0.044-0.003-0.09-0.002-0.131-0.003c-1.172-0.018-2.344-0.05-3.515-0.048c-0.841,0.002-1.682,0.051-2.523,0.082
		c-0.094,0.004-0.189,0.021-0.28,0.049c-0.229,0.073-0.37,0.226-0.397,0.473c-0.025,0.247-0.047,0.495-0.075,0.742
		c-0.005,0.044-0.028,0.087-0.043,0.133c-0.111-0.038-0.081-0.115-0.081-0.172c0.002-0.527-0.001-1.054,0.018-1.582
		c0.022-0.709,0.009-1.418-0.054-2.126c-0.021-0.239-0.021-0.239,0.063-0.381c0.036,0.1,0.073,0.177,0.089,0.256
		c0.029,0.137,0.037,0.276,0.068,0.411c0.063,0.27,0.197,0.379,0.475,0.402c0.422,0.033,0.845,0.073,1.269,0.1
		c0.197,0.012,0.395,0.006,0.592,0.003c1.296-0.021,2.591-0.043,3.888-0.065c0.188-0.002,0.379-0.009,0.568-0.018
		c0.404-0.021,0.678-0.313,0.674-0.715C81.908,19,81.902,18.92,81.908,18.84c0.004-0.103,0.057-0.161,0.164-0.162
		C82.072,19.952,82.072,21.225,82.072,22.499z M74.989,20.586c0.086,0.136,0.003,0.219-0.085,0.303
		c-0.082,0.077-0.2,0.128-0.21,0.262c0.146,0.092,0.187,0.097,0.303,0.037c0.078-0.042,0.151-0.09,0.232-0.123
		c0.195-0.08,0.371-0.177,0.422-0.386c0.192-0.065,0.304,0.069,0.43,0.135c0.167-0.166,0.167-0.166,0.392-0.163
		c0.045,0.001,0.088,0.004,0.132,0.004c0.245-0.002,0.271-0.039,0.207-0.309c-0.077,0.02-0.153,0.047-0.231,0.06
		c-0.084,0.015-0.172,0.021-0.258,0.018c-0.205-0.008-0.409-0.033-0.612-0.035c-0.326-0.004-0.643-0.025-0.931-0.203
		c-0.095-0.057-0.153-0.021-0.175,0.08c-0.032,0.137,0.015,0.227,0.152,0.271C74.831,20.561,74.912,20.571,74.989,20.586z
		 M81.5,21.05c0.06-0.047,0.123-0.095,0.188-0.144c-0.18-0.22-0.179-0.22-0.021-0.45c0.039-0.056,0.071-0.117,0.107-0.179
		c-0.153-0.071-0.153-0.076-0.244-0.04c-0.059,0.025-0.114,0.067-0.177,0.085c-0.131,0.036-0.282,0.115-0.395,0.08
		c-0.194-0.061-0.39-0.045-0.582-0.08c-0.09-0.015-0.202,0.022-0.287,0.065c-0.09,0.047-0.085,0.125-0.013,0.2
		c0.08,0.08,0.183,0.082,0.285,0.081c0.204-0.001,0.409-0.001,0.614,0.001c0.049,0,0.113,0.003,0.146,0.033
		C81.247,20.805,81.362,20.922,81.5,21.05z M79.437,20.399c0.188,0.254,0.313,0.309,0.508,0.212c-0.049-0.065-0.092-0.13-0.14-0.189
		C79.675,20.254,79.61,20.251,79.437,20.399z"/>
	<path fill-rule="evenodd" clip-rule="evenodd" fill="#AA2624" d="M70.168,48.328c-0.12-0.168-0.13-0.21,0.013-0.356
		c0.317-0.329,0.528-0.716,0.622-1.161c0.059-0.276,0.085-0.563,0.105-0.847c0.02-0.289,0.02-0.585,0.02-0.878
		c0.002-1.373,0.001-2.75,0.002-4.124c0-0.044-0.002-0.086-0.002-0.131c0.005-0.212-0.08-0.36-0.295-0.428
		c-0.157-0.052-0.185-0.105-0.16-0.208c0.022-0.098,0.1-0.154,0.236-0.154c0.139,0,0.276,0.014,0.414,0.015
		c0.262,0.009,0.525,0.012,0.785,0.016c0.044,0.002,0.089,0.009,0.129,0.026c0.121,0.051,0.138,0.173,0.041,0.265
		c-0.007,0.004-0.012,0.006-0.019,0.011c-0.282,0.116-0.31,0.358-0.31,0.615c0.002,0.884,0.009,1.771,0.005,2.654
		c0,0.628-0.015,1.258-0.023,1.883c-0.001,0.11,0.011,0.221,0,0.329c-0.041,0.429-0.08,0.858-0.292,1.245
		c-0.235,0.427-0.551,0.786-0.937,1.087c-0.056,0.044-0.106,0.095-0.16,0.142C70.284,48.328,70.226,48.328,70.168,48.328z"/>
	<path fill-rule="evenodd" clip-rule="evenodd" fill="#1D396A" d="M34.976,28.99c-1.383,0.017-2.749-0.109-4.084-0.48
		c-1.417-0.395-2.691-1.051-3.802-2.027c-1.236-1.085-2.007-2.439-2.381-4.034c-0.192-0.815-0.286-1.644-0.255-2.48
		c0.056-1.503,0.399-2.931,1.209-4.212c0.983-1.554,2.363-2.639,4.068-3.31c0.94-0.372,1.92-0.562,2.928-0.625
		c1.187-0.073,2.37-0.013,3.551,0.088c0.994,0.084,1.976,0.234,2.949,0.448c0.05,0.011,0.1,0.022,0.148,0.036
		c0.25,0.071,0.366,0.221,0.355,0.479c-0.031,0.812-0.064,1.623-0.099,2.436c-0.017,0.401-0.039,0.802-0.064,1.205
		c-0.006,0.085-0.03,0.174-0.066,0.252c-0.064,0.132-0.233,0.205-0.372,0.175c-0.149-0.033-0.231-0.123-0.255-0.288
		c-0.058-0.415-0.144-0.82-0.303-1.208c-0.288-0.702-0.757-1.222-1.459-1.534c-1.122-0.499-2.295-0.727-3.521-0.701
		c-0.737,0.015-1.455,0.135-2.151,0.379c-1.34,0.476-2.255,1.407-2.85,2.672c-0.375,0.797-0.558,1.644-0.633,2.519
		c-0.085,0.991-0.035,1.977,0.126,2.953c0.157,0.962,0.581,1.824,1.139,2.615c0.773,1.097,1.742,1.97,2.982,2.518
		c0.452,0.199,0.922,0.328,1.414,0.375c0.621,0.057,1.239,0.12,1.863,0.092c0.549-0.025,1.093-0.095,1.612-0.292
		c0.907-0.347,1.548-0.949,1.85-1.891c0.071-0.221,0.167-0.437,0.271-0.644c0.087-0.172,0.208-0.217,0.358-0.175
		c0.156,0.046,0.262,0.167,0.253,0.343c-0.021,0.408-0.049,0.817-0.086,1.224c-0.048,0.519-0.133,1.032-0.264,1.535
		c-0.033,0.126-0.082,0.249-0.118,0.376c-0.082,0.291-0.28,0.473-0.543,0.598c-0.326,0.154-0.668,0.253-1.024,0.314
		C36.815,28.875,35.898,28.966,34.976,28.99z M36.953,27.814c0.084,0.027,0.165,0.07,0.25,0.081
		c0.073,0.009,0.169,0.008,0.225-0.033c0.107-0.077,0.193-0.187,0.313-0.311c-0.252-0.041-0.439-0.191-0.664-0.114
		c-0.042,0.135-0.081,0.258-0.119,0.382c-0.041,0.009-0.083,0.019-0.165,0.036c0.07,0.043,0.101,0.063,0.15,0.092
		C36.947,27.89,36.951,27.852,36.953,27.814z M28.385,25.489c-0.139,0.338-0.085,0.53,0.203,0.661
		c0.123,0.056,0.246,0.108,0.361,0.181c0.083,0.053,0.167,0.056,0.24-0.015c0.068-0.066,0.102-0.156,0.055-0.24
		c-0.112-0.2-0.196-0.427-0.433-0.527c-0.037-0.018-0.096-0.049-0.099-0.078c-0.02-0.24-0.226-0.28-0.383-0.372
		c-0.062-0.037-0.121-0.075-0.182-0.112c0.032-0.085,0.14-0.15,0.045-0.224c-0.103-0.08-0.232-0.131-0.177-0.301
		c0.003-0.012-0.02-0.04-0.037-0.052c-0.163-0.127-0.244-0.34-0.45-0.425c-0.037-0.015-0.069-0.057-0.085-0.096
		c-0.073-0.173-0.23-0.235-0.385-0.299c-0.06-0.026-0.124-0.039-0.214-0.066c0.032-0.072,0.046-0.15,0.093-0.19
		c0.074-0.066,0.171-0.107,0.272-0.167c0.015-0.199-0.239-0.369-0.125-0.569c-0.081-0.13-0.149-0.237-0.215-0.342
		c0.028-0.033,0.051-0.061,0.065-0.078c-0.069-0.127-0.135-0.247-0.2-0.371c-0.092,0.017-0.191,0.034-0.295,0.051
		c-0.023-0.047-0.043-0.085-0.062-0.124c-0.11-0.244-0.206-0.294-0.46-0.247c-0.09,0.017-0.144,0.052-0.154,0.15
		c-0.011,0.125-0.1,0.25,0.025,0.368c0.02,0.017,0.013,0.069,0.011,0.104c-0.005,0.105,0.054,0.172,0.115,0.25
		c0.107,0.14,0.2,0.292,0.292,0.443c0.018,0.032,0.006,0.088-0.007,0.126c-0.021,0.061-0.056,0.115-0.089,0.178
		c0.163,0.183,0.298,0.379,0.212,0.644c0.073,0.066,0.132,0.133,0.202,0.183c0.187,0.135,0.286,0.317,0.33,0.542
		c0.036,0.187,0.148,0.25,0.335,0.208c0.092-0.021,0.181-0.06,0.271-0.088c0.257-0.083,0.367,0.016,0.324,0.246
		c-0.077,0.056-0.156,0.082-0.171,0.127c-0.052,0.166-0.011,0.335,0.067,0.479c0.027,0.052,0.153,0.068,0.234,0.069
		c0.102,0.003,0.203-0.029,0.304-0.042C28.266,25.47,28.314,25.481,28.385,25.489z M26.521,19.034
		c0.032-0.029,0.046-0.045,0.064-0.057c0.175-0.104,0.217-0.291,0.271-0.466c0.012-0.042-0.019-0.112-0.053-0.145
		c-0.02-0.018-0.089,0.007-0.132,0.025c-0.037,0.015-0.068,0.044-0.104,0.069c-0.128-0.082-0.231-0.167-0.27-0.314
		c-0.05-0.195-0.13-0.25-0.361-0.264c-0.042,0.182-0.109,0.349-0.28,0.447c-0.111,0.064-0.201,0.145-0.156,0.278
		c0.038,0.115,0.088,0.278,0.175,0.313c0.127,0.05,0.164,0.149,0.243,0.225c0.126,0.12,0.117,0.245,0.054,0.376
		c-0.032,0.066-0.088,0.146-0.149,0.167c-0.043,0.013-0.114-0.07-0.182-0.118c-0.084,0.013-0.14,0.07-0.162,0.166
		c-0.014,0.064-0.021,0.13-0.039,0.194c-0.029,0.104-0.023,0.181,0.071,0.268c0.131,0.122,0.208,0.295,0.143,0.471
		c-0.086,0.235,0.019,0.374,0.188,0.5c0.058,0.043,0.108,0.11,0.174,0.131c0.122,0.041,0.251,0.066,0.379,0.079
		c0.045,0.005,0.136-0.05,0.137-0.08c0.009-0.182,0.069-0.341,0.145-0.505c0.034-0.071,0.007-0.172,0.005-0.259
		c-0.004-0.237-0.1-0.422-0.313-0.54c-0.045-0.024-0.1-0.05-0.12-0.09c-0.023-0.042-0.035-0.131-0.01-0.153
		c0.106-0.096,0.218-0.199,0.347-0.254c0.146-0.062,0.192-0.112,0.11-0.245C26.649,19.177,26.587,19.115,26.521,19.034z
		 M26.622,16.332c0.182-0.025,0.357-0.042,0.527-0.077c0.081-0.018,0.178-0.041,0.195-0.15c0.036-0.224,0.094-0.437,0.259-0.604
		c0.021-0.02,0.042-0.06,0.035-0.075c-0.061-0.105,0.025-0.143,0.083-0.193c0.127-0.109,0.236-0.234,0.378-0.332
		c0.168-0.118,0.296-0.293,0.44-0.442c-0.179-0.179-0.256-0.188-0.414-0.063c-0.086,0.067-0.178,0.133-0.248,0.215
		c-0.069,0.083-0.13,0.157-0.247,0.175c-0.02,0.003-0.046,0.075-0.042,0.112c0.006,0.059,0.036,0.116,0.056,0.179
		c-0.021,0.008-0.042,0.025-0.06,0.023c-0.276-0.022-0.414,0.141-0.504,0.37c-0.021,0.055-0.043,0.108-0.063,0.163
		c-0.063,0.167-0.141,0.316-0.321,0.394C26.585,16.078,26.547,16.177,26.622,16.332z M26.916,17.957
		c0.021-0.05,0.065-0.114,0.073-0.181c0.028-0.247,0.054-0.493,0.06-0.74c0.003-0.16-0.108-0.275-0.241-0.339
		c-0.128-0.061-0.273-0.096-0.414-0.126c-0.075-0.015-0.197-0.026-0.226,0.013c-0.089,0.123-0.216,0.248-0.134,0.435
		c0.06,0.01,0.118,0.018,0.173,0.03c0.064,0.015,0.13,0.028,0.187,0.058c0.159,0.081,0.183,0.187,0.088,0.337
		c-0.032,0.05-0.072,0.095-0.094,0.147c-0.067,0.164,0.077,0.346,0.249,0.334C26.716,17.921,26.796,17.942,26.916,17.957z
		 M37.747,12.9c-0.053,0.058-0.108,0.093-0.126,0.14c-0.028,0.069,0.043,0.091,0.09,0.126c0.245,0.183,0.486,0.37,0.724,0.563
		c0.152,0.125,0.259,0.278,0.242,0.49c-0.005,0.067-0.01,0.134,0.078,0.155c0.086,0.02,0.144-0.025,0.173-0.098
		c0.049-0.12,0.087-0.244,0.133-0.375c-0.187-0.085-0.405-0.061-0.537-0.223c0-0.095,0-0.187,0-0.285
		c0.046-0.007,0.082-0.015,0.117-0.018c0.163-0.019,0.239-0.131,0.277-0.271c0.032-0.115-0.023-0.169-0.141-0.136
		c-0.143,0.042-0.28,0.042-0.421-0.001c-0.11-0.034-0.221-0.072-0.333-0.08c-0.093-0.007-0.167-0.02-0.195-0.13
		c-0.054,0.035-0.089,0.058-0.129,0.085C37.719,12.868,37.736,12.889,37.747,12.9z M39.139,26.374
		c-0.032-0.035-0.044-0.051-0.06-0.065c-0.128-0.128-0.129-0.121-0.239,0.021c-0.122,0.162-0.263,0.311-0.395,0.467
		c-0.107,0.128-0.226,0.25-0.316,0.39c-0.104,0.16-0.124,0.338-0.044,0.524c0.173,0,0.339,0,0.516,0
		c0.028-0.069,0.053-0.134,0.077-0.197c-0.04-0.028-0.064-0.045-0.087-0.063c-0.172-0.117-0.182-0.15-0.061-0.31
		c0.103-0.135,0.221-0.254,0.326-0.387C38.953,26.631,39.044,26.5,39.139,26.374z M33.024,27.971
		c-0.077-0.063-0.128-0.14-0.184-0.144c-0.135-0.008-0.225-0.093-0.335-0.146c-0.068-0.032-0.152-0.043-0.228-0.038
		c-0.1,0.005-0.146,0.083-0.162,0.178c-0.016,0.103,0.063,0.113,0.13,0.142c0.065,0.031,0.14,0.059,0.181,0.111
		c0.092,0.114,0.197,0.117,0.312,0.063C32.829,28.097,32.912,28.038,33.024,27.971z M36.741,12.527
		c-0.188-0.041-0.309,0.018-0.353,0.163c-0.037,0.116,0.001,0.188,0.126,0.193c0.206,0.01,0.407,0.026,0.556,0.183
		c0.185-0.148,0.204-0.228,0.125-0.445c-0.113-0.02-0.214-0.005-0.306,0.077c-0.025,0.021-0.085,0.033-0.109,0.019
		c-0.026-0.018-0.029-0.07-0.037-0.108C36.737,12.581,36.741,12.552,36.741,12.527z M29.815,26.83
		c-0.009-0.237-0.061-0.287-0.332-0.322c-0.039,0.107-0.006,0.185,0.064,0.274c0.068,0.089,0.196,0.13,0.209,0.267
		c0.003,0.026,0.08,0.061,0.125,0.065c0.069,0.007,0.142-0.006,0.215-0.011C30.12,26.868,29.936,26.881,29.815,26.83z
		 M34.296,12.651c-0.019-0.1-0.029-0.147-0.036-0.187c-0.16-0.029-0.307-0.056-0.476-0.085c-0.009,0.058-0.019,0.115-0.031,0.186
		C33.937,12.595,34.096,12.621,34.296,12.651z M33.668,12.511c-0.123-0.11-0.224-0.208-0.392-0.145
		c-0.011,0.117-0.039,0.222,0.081,0.314C33.457,12.625,33.556,12.574,33.668,12.511z M30.342,26.907
		c-0.075,0.098-0.128,0.155-0.168,0.223c-0.024,0.038-0.054,0.11-0.036,0.132c0.03,0.038,0.095,0.067,0.145,0.065
		c0.057-0.002,0.113-0.042,0.175-0.069C30.417,27.137,30.386,27.037,30.342,26.907z M34.77,12.656c0.2-0.063,0.068-0.183,0.09-0.266
		c0.019-0.076-0.064-0.12-0.15-0.096c-0.077,0.022-0.111,0.077-0.078,0.15C34.669,12.519,34.723,12.586,34.77,12.656z
		 M31.438,27.703c0.02-0.001,0.038-0.004,0.058-0.004c0.028-0.065,0.034-0.123-0.082-0.172
		C31.424,27.596,31.432,27.65,31.438,27.703z M31.152,27.387c-0.05,0.107-0.066,0.168,0.036,0.22
		c0.006-0.047,0.016-0.08,0.014-0.113C31.2,27.47,31.181,27.45,31.152,27.387z M26.839,21.753c0.004-0.01,0.008-0.021,0.014-0.03
		c-0.028-0.019-0.058-0.036-0.087-0.053c-0.011,0.022-0.021,0.044-0.032,0.064C26.769,21.741,26.803,21.747,26.839,21.753z"/>
	<path fill-rule="evenodd" clip-rule="evenodd" fill="#1D396A" d="M46.626,28.605c-1.267-0.013-2.532-0.03-3.798-0.04
		c-0.314-0.001-0.629,0.019-0.943,0.033c-0.144,0.006-0.26-0.038-0.337-0.162c-0.102-0.17-0.067-0.353,0.114-0.423
		c0.181-0.072,0.378-0.102,0.571-0.143c0.114-0.022,0.233-0.023,0.347-0.046c0.322-0.062,0.489-0.231,0.532-0.555
		c0.052-0.391,0.099-0.784,0.129-1.178c0.13-1.66,0.074-3.321,0.02-4.982c-0.025-0.774-0.033-1.551-0.052-2.328
		c-0.002-0.093,0-0.189-0.019-0.282c-0.096-0.477-0.345-0.699-0.838-0.756c-0.224-0.027-0.45-0.052-0.674-0.088
		c-0.124-0.02-0.232-0.077-0.3-0.196c-0.128-0.225-0.065-0.413,0.187-0.473c0.177-0.04,0.362-0.06,0.542-0.059
		c0.71,0.006,1.42,0.034,2.13,0.038c1.385,0.005,2.767,0.009,4.152-0.006c0.819-0.008,1.638-0.05,2.457-0.085
		c0.108-0.004,0.214-0.045,0.32-0.065c0.123-0.024,0.244-0.059,0.366-0.063c0.218-0.006,0.343,0.113,0.356,0.332
		c0.006,0.093,0,0.193-0.027,0.28c-0.117,0.361-0.126,0.735-0.156,1.105c-0.039,0.488-0.082,0.977-0.125,1.465
		c-0.006,0.057-0.021,0.114-0.037,0.171c-0.046,0.166-0.164,0.251-0.337,0.255c-0.163,0.002-0.268-0.074-0.311-0.253
		c-0.053-0.219-0.094-0.442-0.131-0.667c-0.063-0.382-0.274-0.632-0.645-0.755c-0.337-0.112-0.68-0.177-1.033-0.184
		c-0.776-0.018-1.552-0.028-2.328-0.04c-0.037,0-0.072-0.001-0.109,0c-0.194,0.01-0.247,0.057-0.253,0.252
		c-0.012,0.379-0.025,0.761-0.027,1.142c-0.003,0.46,0.001,0.921,0.009,1.384c0.003,0.278,0.061,0.327,0.34,0.33
		c0.505,0,1.01,0.009,1.515,0.007c0.614,0,1.229-0.019,1.838-0.106c0.324-0.046,0.6-0.179,0.844-0.39
		c0.022-0.019,0.044-0.038,0.066-0.059c0.108-0.102,0.236-0.111,0.367-0.06c0.125,0.049,0.175,0.162,0.172,0.283
		c-0.001,0.219-0.023,0.438-0.041,0.656c-0.068,0.825-0.138,1.648-0.208,2.473c-0.005,0.05-0.001,0.103-0.01,0.153
		c-0.03,0.16-0.162,0.282-0.312,0.294c-0.165,0.013-0.271-0.048-0.337-0.222c-0.038-0.1-0.057-0.21-0.074-0.317
		c-0.02-0.116-0.024-0.233-0.04-0.35c-0.063-0.469-0.339-0.78-0.812-0.852c-0.411-0.065-0.828-0.105-1.243-0.121
		c-0.562-0.022-1.128-0.01-1.69-0.01c-0.064,0-0.131,0.011-0.194,0.028c-0.103,0.027-0.162,0.094-0.16,0.208
		c0.014,0.804-0.074,1.608,0.003,2.412c0.024,0.24,0.082,0.475,0.134,0.712c0.066,0.304,0.264,0.497,0.546,0.611
		c0.35,0.141,0.712,0.221,1.086,0.246c0.529,0.036,1.054-0.008,1.579-0.062c0.174-0.018,0.35-0.033,0.523-0.056
		c0.371-0.046,0.68-0.217,0.942-0.477c0.143-0.142,0.243-0.309,0.293-0.507c0.043-0.169,0.076-0.343,0.134-0.508
		c0.054-0.158,0.116-0.318,0.209-0.454c0.143-0.206,0.426-0.172,0.53,0.06c0.044,0.096,0.066,0.213,0.062,0.318
		c-0.032,0.547-0.061,1.097-0.124,1.641c-0.04,0.347-0.123,0.69-0.219,1.026c-0.106,0.377-0.337,0.54-0.73,0.537
		c-1.355-0.008-2.708-0.021-4.063-0.033c-0.227-0.002-0.455,0-0.681,0C46.626,28.633,46.626,28.621,46.626,28.605z M45.619,20.772
		c-0.012-0.111-0.051-0.206-0.027-0.281c0.078-0.254-0.069-0.432-0.186-0.621c-0.074-0.123-0.15-0.244-0.227-0.368
		c0.093-0.087,0.176-0.148,0.063-0.265c-0.034-0.035-0.01-0.138,0.007-0.206c0.023-0.098,0.065-0.188,0.101-0.289
		c-0.172-0.09-0.296-0.045-0.409,0.069c-0.094,0.097-0.126,0.213-0.107,0.343c0.029,0.202,0.065,0.404,0.002,0.609
		c-0.012,0.038,0.032,0.102,0.063,0.145c0.054,0.074,0.117,0.14,0.189,0.224c-0.121,0.056-0.238,0.076-0.294,0.146
		c-0.064,0.08-0.073,0.202-0.107,0.307c-0.01,0.032-0.021,0.064-0.036,0.107c0.165,0.083,0.182,0.225,0.168,0.378
		c-0.015,0.164-0.011,0.324,0.122,0.433c-0.024,0.055-0.066,0.102-0.058,0.135c0.063,0.218,0.016,0.417-0.093,0.617
		c0.076,0.085,0.147,0.165,0.229,0.257c0.126-0.117,0.237-0.22,0.347-0.319c-0.006-0.083-0.037-0.17-0.012-0.24
		c0.046-0.124,0.006-0.25,0.041-0.376c0.015-0.054-0.027-0.14-0.07-0.191c-0.108-0.137-0.231-0.262-0.348-0.392
		c0.06-0.081,0.12-0.161,0.186-0.248C45.309,20.756,45.461,20.763,45.619,20.772z M44.187,17.819
		c-0.009-0.127-0.033-0.216-0.016-0.295c0.021-0.112-0.018-0.167-0.118-0.194c-0.115-0.033-0.215,0.006-0.253,0.107
		c-0.08,0.214-0.036,0.419,0.258,0.419c0.145,0,0.29,0.014,0.434,0.033c0.126,0.017,0.223,0.095,0.255,0.216
		c0.062,0.231,0.231,0.307,0.441,0.324c0.144,0.012,0.291,0.002,0.404,0.002c0.142-0.131,0.263-0.245,0.386-0.359
		c0.129-0.119,0.259-0.234,0.291-0.423c-0.13-0.104-0.261-0.087-0.396-0.033c-0.13,0.051-0.258,0.103-0.39,0.143
		c-0.162,0.051-0.304,0.015-0.419-0.112c-0.029-0.033-0.059-0.068-0.095-0.092c-0.212-0.148-0.453-0.216-0.638,0.032
		c0.016,0.034,0.031,0.072,0.053,0.12C44.329,17.739,44.28,17.765,44.187,17.819z M45.044,26.972
		c-0.025-0.022-0.049-0.046-0.076-0.067c-0.028-0.026-0.053-0.057-0.086-0.066c-0.052-0.015-0.114-0.033-0.163-0.018
		c-0.068,0.021-0.118,0.168-0.099,0.246c0.038,0.156,0.103,0.234,0.222,0.221c0.213-0.026,0.347,0.076,0.458,0.235
		c0.046,0.066,0.094,0.131,0.146,0.191c0.083,0.094,0.182,0.143,0.311,0.095c0.027-0.115,0.011-0.214-0.08-0.292
		c-0.093-0.078-0.038-0.15,0.044-0.253c-0.106-0.079-0.203-0.152-0.32-0.239c0.076-0.053,0.128-0.08,0.163-0.119
		c0.034-0.041,0.075-0.098,0.068-0.141c-0.018-0.127-0.057-0.252-0.091-0.384c-0.065-0.017-0.134-0.036-0.223-0.06
		C45.229,26.535,45.14,26.748,45.044,26.972z M45.15,23.679c-0.235-0.001-0.346,0.039-0.403,0.147
		c-0.077,0.146,0.023,0.249,0.093,0.358c0.067,0.105,0.118,0.21,0.112,0.344c-0.006,0.146,0.146,0.316,0.288,0.343
		c0.041,0.009,0.104,0.016,0.126-0.006c0.091-0.099,0.204-0.199,0.192-0.347c-0.015-0.187-0.026-0.37,0.012-0.556
		c0.011-0.052-0.022-0.155-0.058-0.167C45.388,23.753,45.287,23.618,45.15,23.679z M45.376,25.492
		c-0.104,0.029-0.183,0.062-0.264,0.076c-0.107,0.019-0.217,0.026-0.326,0.029c-0.123,0.001-0.168,0.067-0.177,0.178
		c-0.003,0.05-0.001,0.102-0.001,0.151c-0.001,0.196,0.057,0.243,0.247,0.275c0.354,0.062,0.508-0.227,0.732-0.394
		c0.019-0.014,0.022-0.054,0.027-0.081c0.013-0.088,0.034-0.175,0.033-0.261c0-0.166-0.006-0.335-0.136-0.474
		c-0.037,0.02-0.069,0.036-0.097,0.057C45.176,25.227,45.176,25.227,45.376,25.492z M45.126,27.614
		c-0.176-0.184-0.265-0.242-0.401-0.239c-0.287,0.006-0.534,0.138-0.769,0.283c-0.042,0.024-0.066,0.115-0.058,0.168
		c0.006,0.04,0.073,0.091,0.121,0.1c0.091,0.018,0.19,0.022,0.281,0.008c0.194-0.03,0.385-0.081,0.579-0.111
		C45.012,27.804,45.089,27.736,45.126,27.614z M50.84,22.961c0.019-0.075,0.032-0.134,0.049-0.192
		c0.052-0.188-0.079-0.297-0.195-0.411c0.233-0.156,0.255-0.219,0.173-0.474c-0.231-0.009-0.393,0.087-0.468,0.318
		c-0.052-0.03-0.092-0.054-0.159-0.093c-0.007,0.096-0.011,0.164-0.018,0.24c0.199,0.035,0.274,0.176,0.346,0.322
		C50.622,22.78,50.658,22.906,50.84,22.961z M50.991,18.319c0.059-0.153,0.115-0.288,0.161-0.424
		c0.029-0.088,0.057-0.181,0.055-0.274c0-0.149-0.078-0.212-0.225-0.184c-0.091,0.018-0.178,0.06-0.263,0.1
		c-0.144,0.064-0.177,0.155-0.099,0.292c0.073,0.13,0.156,0.252,0.188,0.402C50.826,18.315,50.896,18.363,50.991,18.319z
		 M51.503,27.19c-0.238,0.022-0.321,0.074-0.343,0.222c-0.023,0.154,0.041,0.286,0.136,0.399c0.06,0.067,0.144,0.056,0.19-0.012
		c0.067-0.101,0.162-0.216,0.16-0.323c-0.003-0.125,0.046-0.203,0.098-0.295c0.03-0.051,0.054-0.126,0.038-0.176
		c-0.026-0.084-0.117-0.077-0.188-0.063c-0.079,0.012-0.16,0.029-0.178,0.134c0.015,0.015,0.032,0.027,0.044,0.042
		C51.473,27.135,51.48,27.153,51.503,27.19z M45.434,22.891c-0.223-0.137-0.486-0.112-0.639,0.07
		c-0.083,0.097-0.083,0.219-0.046,0.331c0.013,0.038,0.09,0.079,0.136,0.077c0.124-0.002,0.161-0.107,0.194-0.207
		c0.002-0.007,0.002-0.013,0.006-0.021c0.08-0.252,0.08-0.252,0.337-0.232C45.425,22.909,45.43,22.897,45.434,22.891z
		 M49.494,17.693c0.129,0.035,0.247,0.064,0.361,0.098c0.063,0.018,0.121,0.047,0.184,0.064c0.218,0.064,0.27,0.024,0.294-0.212
		c-0.091,0-0.184,0.012-0.273-0.002c-0.091-0.015-0.178-0.06-0.269-0.085C49.621,17.506,49.587,17.523,49.494,17.693z
		 M49.244,22.284c0.073,0.018,0.137,0.055,0.18,0.037c0.076-0.027,0.13-0.04,0.195,0.024c0.017,0.017,0.077-0.009,0.143-0.019
		c-0.257-0.215-0.619-0.253-0.841-0.105c0.081,0.039,0.16,0.076,0.247,0.12C49.196,22.319,49.23,22.294,49.244,22.284z
		 M48.395,17.538c0.005,0.016,0.01,0.031,0.016,0.049c0.053,0.007,0.112,0.003,0.159,0.027c0.186,0.092,0.386,0.107,0.586,0.114
		c0.083,0.001,0.145-0.039,0.161-0.103c-0.162-0.026-0.31-0.046-0.457-0.071c-0.114-0.02-0.228-0.05-0.343-0.062
		C48.479,17.486,48.436,17.521,48.395,17.538z M45.401,22.983c-0.017,0.04-0.035,0.077-0.048,0.118
		c-0.021,0.069-0.047,0.139-0.049,0.21c-0.001,0.048,0.027,0.136,0.053,0.141c0.054,0.009,0.132-0.008,0.169-0.046
		C45.678,23.256,45.63,23.102,45.401,22.983z M50.925,27.899c-0.077-0.186-0.165-0.221-0.279-0.124
		c-0.026,0.021-0.039,0.071-0.039,0.108c0,0.016,0.054,0.04,0.084,0.04C50.762,27.924,50.833,27.908,50.925,27.899z M50.233,27.844
		c-0.124-0.057-0.199-0.036-0.271,0.058C50.068,27.952,50.149,27.958,50.233,27.844z"/>
	<path fill-rule="evenodd" clip-rule="evenodd" fill="#1D396A" d="M48.127,15.144c-2.671,0.03-4.471,0.051-6.271,0.072
		c-0.116,0.002-0.234,0.009-0.35,0.028c-0.182,0.03-0.309,0.129-0.345,0.319c-0.029,0.159-0.05,0.318-0.077,0.477
		c-0.018,0.108-0.031,0.217-0.06,0.321c-0.038,0.136-0.136,0.207-0.253,0.202c-0.126-0.006-0.216-0.092-0.235-0.245
		c-0.012-0.088-0.013-0.175-0.012-0.263c0.006-0.601,0.023-1.201,0.016-1.801c-0.005-0.592-0.034-1.184-0.053-1.775
		c-0.002-0.068-0.013-0.133-0.005-0.198c0.013-0.111,0.076-0.192,0.181-0.228c0.109-0.038,0.208-0.001,0.272,0.088
		c0.045,0.065,0.081,0.14,0.101,0.215c0.032,0.12,0.04,0.246,0.072,0.366c0.055,0.22,0.158,0.313,0.381,0.33
		c0.526,0.036,1.052,0.092,1.577,0.089c3.229-0.021,6.455-0.056,9.683-0.089c0.106-0.001,0.219-0.026,0.317-0.066
		c0.142-0.059,0.238-0.167,0.251-0.331c0.009-0.109,0.015-0.22,0.037-0.328c0.016-0.083,0.041-0.173,0.087-0.242
		c0.063-0.091,0.167-0.114,0.277-0.088c0.109,0.027,0.175,0.101,0.194,0.211c0.009,0.042,0.01,0.087,0.011,0.131
		c0.008,0.622,0.024,1.244,0.023,1.866c-0.001,0.548-0.019,1.098-0.035,1.644c-0.004,0.085-0.025,0.177-0.063,0.253
		c-0.065,0.128-0.198,0.147-0.316,0.062c-0.108-0.079-0.148-0.196-0.174-0.319c-0.02-0.1-0.031-0.203-0.054-0.302
		c-0.049-0.205-0.173-0.313-0.382-0.337c-0.044-0.005-0.088-0.005-0.132-0.005C50.944,15.179,49.101,15.156,48.127,15.144z
		 M41.461,13.998c0.047,0.134,0.001,0.22-0.084,0.29c-0.051,0.042-0.107,0.08-0.148,0.129c-0.03,0.036-0.069,0.105-0.054,0.127
		c0.026,0.043,0.088,0.076,0.137,0.081c0.053,0.005,0.111-0.022,0.164-0.045c0.066-0.03,0.125-0.074,0.193-0.102
		c0.203-0.079,0.384-0.179,0.444-0.392c0.192-0.069,0.298,0.086,0.453,0.138c0.059-0.172,0.202-0.167,0.344-0.164
		c0.122,0,0.249,0.037,0.366-0.052c0-0.075,0-0.152,0-0.254c-0.094,0.024-0.168,0.046-0.245,0.064
		c-0.063,0.012-0.13,0.028-0.193,0.025c-0.313-0.013-0.627-0.034-0.939-0.051c-0.207-0.012-0.405-0.056-0.587-0.156
		c-0.032-0.017-0.062-0.04-0.097-0.052c-0.069-0.025-0.111,0.002-0.135,0.069c-0.046,0.138,0.004,0.249,0.143,0.294
		C41.298,13.97,41.378,13.98,41.461,13.998z M53.415,13.701c-0.075-0.101-0.153-0.086-0.229-0.054
		c-0.068,0.028-0.128,0.075-0.197,0.095c-0.125,0.035-0.269,0.104-0.376,0.07c-0.186-0.059-0.374-0.042-0.558-0.077
		c-0.074-0.015-0.162-0.005-0.232,0.022c-0.053,0.02-0.129,0.093-0.124,0.13c0.01,0.06,0.069,0.132,0.126,0.156
		c0.077,0.031,0.17,0.028,0.257,0.029c0.188,0.005,0.378,0,0.568,0.007c0.048,0.001,0.107,0.011,0.142,0.04
		c0.124,0.104,0.241,0.218,0.356,0.326c0.183-0.097,0.196-0.121,0.129-0.218c-0.104-0.149-0.104-0.149-0.006-0.3
		C53.319,13.85,53.368,13.772,53.415,13.701z M44.588,14.313c0.075,0.06,0.119,0.093,0.162,0.127
		c0.06-0.067,0.105-0.168,0.167-0.178c0.183-0.032,0.176-0.18,0.24-0.3c-0.063-0.054-0.117-0.1-0.188-0.165
		C44.837,13.974,44.72,14.134,44.588,14.313z M51.629,14.045c-0.066-0.09-0.109-0.156-0.158-0.218c-0.134-0.166-0.208-0.167-0.372,0
		C51.238,13.964,51.36,14.127,51.629,14.045z M44.128,13.897c0.132,0.208,0.199,0.25,0.376,0.246c0-0.095,0-0.19,0-0.286
		C44.366,13.872,44.249,13.885,44.128,13.897z M46.149,13.87c0.005-0.145-0.089-0.247-0.189-0.229
		c-0.038,0.006-0.089,0.055-0.097,0.092c-0.016,0.083,0.122,0.26,0.181,0.238C46.094,13.95,46.128,13.889,46.149,13.87z M45.617,14
		c-0.058-0.091-0.096-0.166-0.15-0.228c-0.02-0.02-0.089-0.023-0.117-0.002c-0.025,0.016-0.041,0.074-0.033,0.11
		C45.341,13.998,45.438,14.043,45.617,14z M47.292,13.909c-0.125-0.024-0.125-0.024-0.18,0.052
		C47.172,13.944,47.232,13.927,47.292,13.909z"/>
	<path fill-rule="evenodd" clip-rule="evenodd" fill="#AA2624" d="M36.543,44.377c0.066-0.156,0.129-0.279,0.166-0.407
		c0.167-0.572,0.323-1.15,0.49-1.726c0.066-0.23,0.15-0.457,0.22-0.687c0.098-0.321,0.188-0.645,0.286-0.964
		c0.036-0.117,0.073-0.237,0.134-0.342c0.089-0.15,0.228-0.15,0.336-0.012c0.029,0.042,0.043,0.094,0.066,0.139
		c0.147,0.323,0.2,0.67,0.292,1.006c0.144,0.53,0.304,1.052,0.451,1.578c0.099,0.352,0.184,0.708,0.281,1.058
		c0.03,0.107,0.083,0.209,0.143,0.354c0.049-0.088,0.089-0.131,0.102-0.183c0.108-0.406,0.212-0.816,0.317-1.226
		c0.071-0.285,0.143-0.568,0.207-0.852c0.097-0.436,0.191-0.869,0.279-1.308c0.038-0.184,0.015-0.344-0.198-0.429
		c-0.051-0.02-0.107-0.117-0.098-0.17c0.01-0.052,0.092-0.111,0.153-0.128c0.103-0.026,0.215-0.026,0.324-0.029
		c0.227-0.008,0.452-0.008,0.678-0.013c0.14-0.005,0.261,0.028,0.339,0.162c-0.015,0.123-0.094,0.192-0.2,0.237
		c-0.132,0.056-0.214,0.15-0.254,0.282c-0.108,0.355-0.219,0.71-0.317,1.066c-0.165,0.611-0.323,1.227-0.481,1.845
		c-0.157,0.613-0.307,1.233-0.468,1.847c-0.064,0.248-0.151,0.487-0.232,0.73c-0.019,0.053-0.049,0.106-0.087,0.148
		c-0.102,0.114-0.231,0.114-0.315-0.012c-0.071-0.106-0.13-0.229-0.165-0.354c-0.173-0.612-0.337-1.224-0.504-1.84
		c-0.14-0.512-0.28-1.025-0.42-1.538c-0.026-0.092-0.048-0.186-0.088-0.272c-0.022-0.049-0.079-0.083-0.137-0.141
		c-0.04,0.084-0.072,0.133-0.086,0.188c-0.14,0.466-0.274,0.936-0.414,1.406c-0.165,0.551-0.333,1.102-0.499,1.651
		c-0.068,0.226-0.133,0.448-0.201,0.674c-0.015,0.046-0.031,0.098-0.054,0.141c-0.051,0.104-0.121,0.184-0.253,0.171
		c-0.128-0.011-0.202-0.092-0.234-0.201c-0.056-0.186-0.098-0.378-0.143-0.568c-0.149-0.624-0.301-1.249-0.447-1.875
		c-0.121-0.528-0.232-1.055-0.357-1.58c-0.108-0.454-0.226-0.905-0.341-1.357c-0.011-0.043-0.024-0.085-0.043-0.122
		c-0.147-0.295-0.353-0.348-0.547-0.038c-0.202,0.321-0.389,0.652-0.559,0.988c-0.226,0.451-0.435,0.911-0.641,1.369
		c-0.152,0.342-0.256,0.694-0.241,1.078c0.018,0.44,0.006,0.882,0.011,1.317c0,0.087,0.016,0.175,0.023,0.263
		c0.016,0.18,0.103,0.3,0.286,0.34c0.043,0.01,0.086,0.021,0.125,0.042c0.119,0.06,0.125,0.169,0.007,0.229
		c-0.075,0.038-0.167,0.064-0.251,0.064c-0.334,0.005-0.667,0.01-1,0c-0.104,0-0.217-0.03-0.311-0.078
		c-0.102-0.053-0.106-0.154-0.007-0.208c0.262-0.143,0.297-0.38,0.299-0.637c0.005-0.46,0.017-0.918,0.006-1.376
		c-0.008-0.362-0.115-0.705-0.271-1.03c-0.26-0.547-0.522-1.094-0.797-1.633c-0.175-0.342-0.331-0.702-0.643-0.952
		c-0.058-0.046-0.121-0.085-0.172-0.134c-0.074-0.072-0.072-0.15,0.017-0.2c0.081-0.042,0.176-0.08,0.267-0.083
		c0.261-0.008,0.523,0.006,0.784,0.011c0.044,0.003,0.088,0.008,0.13,0.014c0.182,0.035,0.238,0.131,0.155,0.295
		c-0.056,0.11-0.052,0.205-0.003,0.313c0.164,0.358,0.328,0.714,0.489,1.075c0.12,0.265,0.235,0.531,0.351,0.801
		c0.041,0.093,0.072,0.193,0.204,0.245c0.046-0.063,0.108-0.125,0.142-0.201c0.191-0.41,0.376-0.823,0.562-1.234
		c0.081-0.181,0.16-0.359,0.242-0.54c0.068-0.147,0.093-0.29,0-0.437c-0.104-0.165-0.074-0.316,0.195-0.334
		c0.194-0.012,0.39-0.001,0.586-0.004c0.4,0,0.801-0.006,1.201-0.006c0.131,0,0.265-0.007,0.392,0.021
		c0.067,0.013,0.145,0.079,0.171,0.144c0.037,0.085-0.044,0.138-0.118,0.181c-0.168,0.098-0.201,0.18-0.161,0.404
		c0.057,0.317,0.114,0.635,0.181,0.946c0.156,0.737,0.316,1.472,0.48,2.206C36.38,44.086,36.411,44.229,36.543,44.377z"/>
	<path fill-rule="evenodd" clip-rule="evenodd" fill="#AA2624" d="M65.397,34.334c0.14-0.043,0.208-0.174,0.291-0.278
		c0.229-0.293,0.447-0.594,0.669-0.895c0.125-0.169,0.245-0.345,0.375-0.51c0.094-0.119,0.117-0.244,0.085-0.392
		c-0.031-0.146,0.021-0.223,0.157-0.257c0.035-0.011,0.073-0.013,0.109-0.013c0.278,0.001,0.555,0.001,0.833,0.006
		c0.056,0.001,0.119,0.005,0.171,0.03c0.147,0.063,0.157,0.191,0.027,0.28c-0.042,0.027-0.091,0.053-0.138,0.071
		c-0.292,0.093-0.492,0.307-0.677,0.537c-0.358,0.44-0.716,0.885-1.073,1.331c-0.095,0.118-0.181,0.246-0.273,0.367
		c-0.11,0.144-0.102,0.271,0.01,0.415c0.284,0.361,0.554,0.733,0.839,1.093c0.326,0.412,0.659,0.821,0.991,1.227
		c0.083,0.103,0.175,0.197,0.271,0.287c0.152,0.139,0.244,0.122,0.353-0.045c0.021-0.03,0.046-0.061,0.057-0.093
		c0.101-0.327,0.203-0.655,0.298-0.983c0.102-0.358,0.195-0.717,0.292-1.073c0.085-0.31,0.172-0.618,0.26-0.925
		c0.165-0.575,0.33-1.148,0.495-1.722c0.05-0.175,0.1-0.351,0.155-0.524c0.018-0.063,0.044-0.125,0.074-0.182
		c0.044-0.078,0.095-0.148,0.205-0.139c0.107,0.012,0.172,0.073,0.207,0.17c0.06,0.172,0.123,0.344,0.175,0.52
		c0.185,0.613,0.37,1.229,0.552,1.847c0.144,0.489,0.278,0.982,0.428,1.47c0.151,0.485,0.314,0.968,0.477,1.449
		c0.051,0.154,0.113,0.306,0.249,0.404c0.075,0.055,0.155,0.106,0.241,0.144c0.087,0.039,0.167,0.082,0.22,0.207
		c-0.065,0.039-0.125,0.1-0.193,0.109c-0.371,0.063-0.743,0.055-1.113-0.002c-0.09-0.015-0.149-0.055-0.147-0.155
		c0.009-0.329-0.125-0.628-0.205-0.938c-0.077-0.304-0.175-0.603-0.256-0.904c-0.056-0.214-0.125-0.287-0.343-0.307
		c-0.24-0.016-0.479-0.025-0.721-0.021c-0.222,0-0.286,0.063-0.348,0.287c-0.097,0.359-0.202,0.716-0.296,1.078
		c-0.031,0.119-0.046,0.244-0.059,0.368c-0.013,0.129,0.013,0.245,0.147,0.312c0.058,0.03,0.115,0.071,0.099,0.153
		c-0.015,0.085-0.077,0.121-0.152,0.137c-0.064,0.013-0.129,0.032-0.194,0.031c-0.4-0.005-0.802-0.009-1.201-0.023
		c-0.301-0.012-0.509-0.199-0.699-0.409c-0.571-0.625-1.043-1.329-1.551-2.004c-0.023-0.03-0.037-0.066-0.063-0.09
		c-0.03-0.027-0.085-0.068-0.104-0.058c-0.037,0.02-0.076,0.072-0.076,0.109c-0.012,0.365-0.021,0.731-0.022,1.097
		c0,0.152,0.02,0.304,0.017,0.459c-0.002,0.258,0.043,0.483,0.322,0.584c0.034,0.009,0.065,0.035,0.09,0.061
		c0.085,0.085,0.074,0.18-0.034,0.229c-0.065,0.029-0.142,0.043-0.213,0.046c-0.343,0.002-0.687,0.002-1.03-0.005
		c-0.078-0.001-0.16-0.023-0.231-0.057c-0.099-0.044-0.117-0.157-0.025-0.207c0.357-0.197,0.277-0.553,0.319-0.855
		c0.026-0.202-0.006-0.409-0.004-0.612c0-0.453,0.008-0.904,0.008-1.356c0.001-0.604-0.002-1.206-0.006-1.809
		c-0.001-0.204-0.004-0.407-0.006-0.612c0-0.243-0.075-0.366-0.302-0.451c-0.095-0.036-0.155-0.08-0.146-0.185
		c0.01-0.114,0.104-0.142,0.189-0.149c0.152-0.014,0.306-0.011,0.461-0.013c0.226-0.004,0.453-0.004,0.679-0.001
		c0.06,0.001,0.12,0.001,0.174,0.018c0.125,0.04,0.156,0.162,0.07,0.26c-0.027,0.032-0.064,0.061-0.102,0.081
		c-0.15,0.073-0.203,0.206-0.206,0.359c-0.012,0.445-0.022,0.891-0.025,1.337C65.303,34.15,65.293,34.261,65.397,34.334z
		 M70.542,35.316c-0.022-0.432-0.195-0.824-0.289-1.231c-0.013-0.046-0.065-0.085-0.123-0.155c-0.045,0.098-0.082,0.159-0.1,0.225
		c-0.07,0.237-0.136,0.476-0.198,0.716c-0.028,0.104-0.049,0.212-0.064,0.321c-0.011,0.091,0.024,0.163,0.125,0.172
		C70.104,35.383,70.315,35.393,70.542,35.316z"/>
	<path fill-rule="evenodd" clip-rule="evenodd" fill="#AA2624" d="M61.054,42.428c0.19-0.093,0.278-0.24,0.378-0.37
		c0.303-0.393,0.594-0.795,0.89-1.194c0.065-0.087,0.13-0.178,0.171-0.274c0.024-0.06,0.014-0.143,0.001-0.21
		c-0.041-0.214-0.004-0.271,0.216-0.31c0.085-0.015,0.174-0.021,0.261-0.023c0.168-0.002,0.335-0.009,0.503-0.002
		c0.107,0.008,0.22,0.023,0.318,0.06c0.047,0.018,0.094,0.096,0.099,0.151c0.002,0.038-0.054,0.097-0.1,0.126
		c-0.06,0.039-0.134,0.056-0.201,0.08c-0.304,0.118-0.484,0.37-0.676,0.606c-0.386,0.478-0.769,0.958-1.151,1.437
		c-0.023,0.027-0.041,0.061-0.061,0.091c-0.214,0.286-0.202,0.291,0.017,0.589c0.337,0.456,0.678,0.914,1.035,1.355
		c0.337,0.415,0.692,0.815,1.052,1.205c0.162,0.174,0.376,0.282,0.628,0.271c0.143-0.009,0.201-0.044,0.236-0.184
		c0.03-0.127,0.051-0.26,0.054-0.39c0.014-0.568,0.023-1.141,0.026-1.71c0-0.605-0.01-1.21-0.015-1.813
		c-0.002-0.313,0.003-0.627-0.001-0.938c-0.001-0.104-0.014-0.207-0.031-0.305c-0.023-0.122-0.075-0.224-0.204-0.264
		c-0.021-0.008-0.043-0.018-0.056-0.035c-0.038-0.048-0.101-0.103-0.101-0.153c-0.001-0.084,0.067-0.146,0.157-0.155
		c0.115-0.013,0.232-0.026,0.348-0.026c0.277,0.005,0.555,0.015,0.831,0.026c0.038,0.002,0.075,0,0.11,0.009
		c0.15,0.035,0.188,0.164,0.083,0.278c-0.015,0.014-0.028,0.035-0.048,0.042c-0.245,0.099-0.266,0.319-0.269,0.532
		c-0.009,0.54-0.003,1.081-0.006,1.624c-0.001,0.405-0.009,0.816-0.009,1.225c0.001,0.294,0.015,0.582,0.019,0.875
		c0.001,0.197-0.01,0.394-0.003,0.589c0.005,0.176,0.024,0.351,0.045,0.525c0.015,0.137,0.091,0.227,0.231,0.257
		c0.036,0.007,0.07,0.021,0.104,0.032c0.07,0.025,0.143,0.048,0.145,0.143c0.001,0.11-0.08,0.138-0.158,0.151
		c-0.115,0.019-0.232,0.03-0.347,0.03c-0.262,0-0.524-0.012-0.788-0.014c-0.437-0.009-0.875-0.003-1.313-0.021
		c-0.267-0.01-0.464-0.188-0.627-0.367c-0.302-0.338-0.573-0.7-0.852-1.057c-0.197-0.252-0.389-0.51-0.582-0.764
		c-0.101-0.134-0.157-0.3-0.352-0.393c-0.019,0.079-0.053,0.152-0.052,0.224c0.003,0.562-0.046,1.125,0.014,1.688
		c0.019,0.182,0.08,0.307,0.263,0.354c0.02,0.006,0.047,0.006,0.061,0.021c0.049,0.048,0.124,0.097,0.13,0.151
		c0.011,0.091-0.066,0.139-0.159,0.146c-0.1,0.007-0.202,0.026-0.305,0.026c-0.262,0-0.525-0.004-0.788-0.011
		c-0.094-0.003-0.192-0.009-0.28-0.039c-0.124-0.04-0.14-0.141-0.052-0.238c0.019-0.021,0.043-0.043,0.07-0.053
		c0.182-0.07,0.216-0.232,0.223-0.396c0.015-0.355,0.017-0.713,0.02-1.074c0.006-0.488,0.013-0.979,0.012-1.465
		c0-0.461-0.012-0.923-0.016-1.384c-0.003-0.282-0.001-0.569-0.008-0.854c-0.001-0.077-0.021-0.157-0.039-0.235
		c-0.022-0.092-0.072-0.157-0.172-0.178c-0.049-0.012-0.093-0.044-0.141-0.061c-0.074-0.03-0.137-0.08-0.117-0.162
		c0.013-0.056,0.063-0.119,0.112-0.144c0.06-0.032,0.138-0.04,0.209-0.043c0.305-0.012,0.61,0.059,0.918,0
		c0.088-0.013,0.19,0.011,0.279,0.039c0.153,0.047,0.172,0.175,0.054,0.284c-0.058,0.054-0.131,0.09-0.187,0.145
		c-0.135,0.141-0.126,0.325-0.128,0.493c-0.006,0.404,0.012,0.806,0.024,1.206C61.013,42.277,61.037,42.341,61.054,42.428z"/>
	<path fill-rule="evenodd" clip-rule="evenodd" fill="#AA2624" d="M44.05,36.571c0.052-0.102,0.117-0.197,0.156-0.302
		c0.218-0.583,0.43-1.165,0.641-1.749c0.135-0.37,0.262-0.742,0.399-1.112c0.151-0.409,0.309-0.818,0.466-1.227
		c0.015-0.04,0.036-0.081,0.062-0.114c0.061-0.077,0.134-0.139,0.242-0.122c0.104,0.017,0.126,0.115,0.155,0.194
		c0.021,0.062,0.024,0.13,0.029,0.194c0.063,0.691,0.127,1.383,0.19,2.074c0.043,0.464,0.086,0.93,0.125,1.396
		c0.034,0.392,0.062,0.785,0.095,1.178c0.012,0.153,0.036,0.305,0.048,0.458c0.021,0.296,0.184,0.466,0.462,0.537
		c0.042,0.012,0.091,0.014,0.125,0.038c0.039,0.026,0.089,0.077,0.084,0.11c-0.005,0.05-0.049,0.108-0.093,0.13
		c-0.063,0.033-0.14,0.049-0.212,0.048c-0.319-0.008-0.641-0.018-0.96-0.039c-0.186-0.013-0.255-0.094-0.232-0.275
		c0.056-0.438-0.045-0.87-0.058-1.306c-0.01-0.403-0.044-0.804-0.075-1.205c-0.02-0.276-0.051-0.554-0.082-0.829
		c-0.005-0.046-0.032-0.092-0.048-0.137c-0.091-0.011-0.129,0.038-0.154,0.104c-0.096,0.258-0.192,0.519-0.289,0.778
		c-0.182,0.485-0.367,0.969-0.546,1.455c-0.095,0.253-0.18,0.51-0.272,0.766c-0.054,0.149-0.108,0.301-0.169,0.449
		c-0.034,0.081-0.075,0.17-0.181,0.168c-0.122,0-0.233-0.037-0.289-0.162c-0.095-0.213-0.191-0.426-0.278-0.644
		c-0.154-0.387-0.302-0.771-0.45-1.161c-0.167-0.437-0.327-0.876-0.492-1.313c-0.043-0.111-0.058-0.243-0.204-0.3
		c-0.091,0.101-0.081,0.231-0.09,0.35c-0.058,0.779-0.112,1.558-0.166,2.337c-0.004,0.074,0.006,0.148-0.001,0.221
		c-0.02,0.205,0.049,0.355,0.244,0.442c0.064,0.029,0.13,0.067,0.104,0.166c-0.024,0.091-0.089,0.105-0.166,0.111
		c-0.093,0.008-0.188,0.021-0.282,0.022c-0.218,0.002-0.438,0.01-0.656-0.003c-0.091-0.005-0.189-0.033-0.264-0.08
		c-0.093-0.058-0.085-0.167,0.017-0.206c0.253-0.097,0.316-0.301,0.335-0.539c0.046-0.59,0.09-1.18,0.143-1.771
		c0.045-0.506,0.104-1.014,0.15-1.52c0.039-0.429,0.066-0.861,0.102-1.289c0.019-0.233,0.042-0.468,0.067-0.699
		c0.004-0.042,0.015-0.089,0.033-0.126c0.083-0.161,0.274-0.176,0.369-0.021c0.079,0.132,0.144,0.273,0.199,0.414
		c0.19,0.49,0.371,0.983,0.559,1.474c0.317,0.824,0.635,1.649,0.954,2.473c0.022,0.059,0.057,0.11,0.086,0.165
		C44.004,36.571,44.027,36.571,44.05,36.571z"/>
	<path fill-rule="evenodd" clip-rule="evenodd" fill="#AA2624" d="M22.817,33.979c-0.016,0.079-0.044,0.158-0.044,0.236
		c0.006,0.37,0.021,0.743,0.031,1.115c0.003,0.109,0.005,0.218,0.007,0.328c0.009,0.539,0.017,1.081,0.031,1.622
		c0.002,0.115,0.017,0.233,0.038,0.345c0.035,0.18,0.122,0.316,0.319,0.347c0.035,0.005,0.079,0.017,0.099,0.041
		c0.031,0.045,0.067,0.101,0.063,0.149c-0.002,0.036-0.06,0.089-0.101,0.098c-0.12,0.023-0.245,0.038-0.369,0.041
		c-0.255,0.008-0.511,0.008-0.766,0.002c-0.087-0.002-0.178-0.014-0.258-0.043c-0.044-0.018-0.09-0.076-0.099-0.124
		c-0.007-0.035,0.038-0.105,0.073-0.118c0.301-0.099,0.321-0.34,0.323-0.599c0.006-0.972,0.014-1.941,0.022-2.909
		c0.003-0.286,0.006-0.57,0.008-0.854c0.002-0.45,0.003-0.903,0-1.353c0-0.145,0.006-0.301,0.156-0.356
		c0.147-0.054,0.245,0.072,0.323,0.176c0.238,0.313,0.469,0.633,0.704,0.95c0.438,0.592,0.878,1.186,1.313,1.78
		c0.31,0.425,0.612,0.854,0.92,1.281c0.088,0.121,0.164,0.257,0.324,0.34c0.027-0.059,0.067-0.105,0.071-0.159
		c0.009-0.137,0.005-0.275,0.002-0.415c-0.01-0.569-0.018-1.14-0.033-1.708c-0.013-0.512-0.033-1.021-0.054-1.531
		c-0.005-0.141-0.093-0.226-0.217-0.277c-0.073-0.031-0.153-0.055-0.22-0.098c-0.111-0.069-0.101-0.21,0.021-0.256
		c0.087-0.031,0.186-0.049,0.279-0.049c0.285,0,0.571,0.01,0.856,0.018c0.051,0.001,0.102,0.004,0.153,0.01
		c0.092,0.011,0.174,0.043,0.198,0.145c0.028,0.118-0.07,0.15-0.147,0.183c-0.155,0.063-0.225,0.17-0.224,0.337
		c0,0.46-0.004,0.918-0.008,1.376c-0.003,0.256-0.015,0.512-0.017,0.769c-0.006,1.011-0.007,2.02-0.011,3.028
		c0,0.052-0.002,0.104,0,0.154c0.005,0.127-0.045,0.238-0.158,0.29c-0.123,0.057-0.225-0.021-0.31-0.106
		c-0.082-0.085-0.16-0.172-0.233-0.263c-0.284-0.359-0.572-0.718-0.846-1.085c-0.437-0.583-0.866-1.175-1.295-1.763
		c-0.246-0.336-0.486-0.678-0.728-1.017C22.973,33.996,22.935,33.933,22.817,33.979z"/>
	<path fill-rule="evenodd" clip-rule="evenodd" fill="#AA2624" d="M54.347,31.987c0.153,0,0.306-0.001,0.459,0
		c0.335,0.001,0.671-0.012,1.005,0.009c0.705,0.041,1.354,0.235,1.853,0.77c0.157,0.167,0.289,0.369,0.396,0.574
		c0.41,0.779,0.5,1.607,0.351,2.467c-0.107,0.621-0.327,1.193-0.716,1.698c-0.211,0.274-0.492,0.45-0.78,0.623
		c-0.213,0.131-0.443,0.187-0.683,0.212c-0.363,0.039-0.727,0.039-1.091,0.016c-0.371-0.022-0.744-0.029-1.116-0.051
		c-0.13-0.006-0.264-0.021-0.387-0.06c-0.12-0.038-0.146-0.162-0.048-0.216c0.331-0.178,0.305-0.495,0.319-0.784
		c0.02-0.408,0.004-0.817,0.004-1.227c0-1.01,0.001-2.019,0-3.026c0-0.072-0.009-0.146-0.011-0.22
		c-0.006-0.204-0.094-0.35-0.29-0.42c-0.027-0.013-0.062-0.021-0.077-0.041c-0.038-0.049-0.093-0.108-0.088-0.156
		c0.006-0.051,0.065-0.119,0.117-0.139c0.087-0.029,0.185-0.031,0.28-0.034c0.167-0.006,0.336-0.001,0.503-0.001
		C54.347,31.982,54.347,31.985,54.347,31.987z M54.73,36.595c0.005,0,0.011,0,0.016,0c0,0.247-0.004,0.497,0.001,0.744
		c0.005,0.239,0.099,0.381,0.327,0.435c0.499,0.111,0.991,0.13,1.471-0.117c0.399-0.203,0.683-0.517,0.827-0.921
		c0.375-1.061,0.357-2.114-0.194-3.117c-0.218-0.395-0.502-0.746-0.958-0.887c-0.263-0.08-0.536-0.136-0.809-0.177
		c-0.163-0.024-0.333-0.011-0.5,0.002c-0.112,0.01-0.179,0.081-0.178,0.209c0.001,0.174-0.017,0.349-0.016,0.521
		c0,0.394,0.011,0.788,0.013,1.18C54.732,35.177,54.73,35.885,54.73,36.595z"/>
	<path fill-rule="evenodd" clip-rule="evenodd" fill="#AA2624" d="M21.462,18.671c0.028,0.034,0.055,0.052,0.055,0.068
		c0.007,1.067,0.014,2.134,0.014,3.203c0,0.215-0.026,0.429-0.04,0.645c-0.018,0.003-0.037,0.006-0.055,0.01
		c-0.026-0.053-0.063-0.104-0.073-0.161c-0.021-0.106-0.025-0.218-0.036-0.326c-0.028-0.309-0.241-0.529-0.546-0.566
		c-0.051-0.006-0.103-0.004-0.154-0.005c-1.192-0.019-2.386-0.051-3.577-0.049c-0.826,0-1.653,0.051-2.479,0.082
		c-0.087,0.004-0.174,0.023-0.259,0.044c-0.241,0.061-0.398,0.25-0.42,0.501c-0.019,0.204-0.034,0.408-0.054,0.612
		c-0.009,0.078-0.026,0.155-0.038,0.228c-0.129,0.001-0.107-0.08-0.107-0.14c0-0.3-0.002-0.601,0.006-0.9
		c0.029-0.892,0.048-1.784-0.02-2.675c-0.009-0.11-0.028-0.219-0.033-0.327c-0.003-0.06,0.013-0.121,0.023-0.198
		c0.114,0.058,0.125,0.139,0.139,0.216c0.027,0.151,0.044,0.304,0.079,0.454c0.06,0.258,0.195,0.368,0.459,0.39
		c0.429,0.036,0.86,0.071,1.292,0.1c0.159,0.011,0.32,0.007,0.481,0.006c1.354-0.023,2.707-0.046,4.061-0.069
		c0.153-0.004,0.307-0.009,0.461-0.017c0.464-0.02,0.737-0.327,0.703-0.79C21.332,18.885,21.313,18.757,21.462,18.671z
		 M16.266,20.358c-0.168,0.028-0.311,0.069-0.453,0.069c-0.292-0.002-0.584-0.032-0.875-0.044c-0.245-0.01-0.478-0.058-0.693-0.18
		c-0.042-0.023-0.09-0.035-0.133-0.05c-0.161,0.268-0.104,0.342,0.322,0.442c0.059,0.11,0.014,0.195-0.068,0.271
		c-0.06,0.053-0.126,0.1-0.178,0.162c-0.029,0.033-0.054,0.1-0.039,0.129c0.016,0.035,0.08,0.062,0.125,0.064
		c0.055,0.002,0.113-0.018,0.166-0.04c0.066-0.028,0.125-0.074,0.192-0.101c0.209-0.083,0.397-0.187,0.463-0.401
		c0.195-0.07,0.299,0.086,0.449,0.137c0.066-0.163,0.202-0.168,0.347-0.168c0.127,0.002,0.262,0.042,0.374-0.051
		C16.266,20.517,16.266,20.446,16.266,20.358z M21.214,20.279c-0.16-0.072-0.161-0.077-0.25-0.04
		c-0.061,0.024-0.114,0.068-0.176,0.084c-0.132,0.036-0.283,0.114-0.397,0.078c-0.192-0.06-0.388-0.047-0.581-0.08
		c-0.089-0.015-0.2,0.022-0.285,0.067c-0.089,0.046-0.092,0.145-0.008,0.194c0.082,0.048,0.187,0.075,0.283,0.08
		c0.205,0.012,0.409,0.002,0.612,0.005c0.05,0.002,0.112,0.005,0.146,0.034c0.125,0.104,0.241,0.218,0.38,0.348
		c0.058-0.047,0.12-0.097,0.181-0.144c-0.177-0.221-0.176-0.22-0.031-0.432C21.129,20.416,21.166,20.354,21.214,20.279z
		 M18.86,20.396c0.231,0.272,0.341,0.317,0.52,0.211c-0.042-0.058-0.084-0.117-0.129-0.173
		C19.118,20.259,19.068,20.252,18.86,20.396z"/>
	<path fill-rule="evenodd" clip-rule="evenodd" fill="#AA2624" d="M21.232,43.217c-0.017-0.423,0.052-0.856,0.195-1.271
		c0.097-0.28,0.23-0.553,0.383-0.807c0.185-0.306,0.394-0.598,0.698-0.807c0.327-0.225,0.682-0.357,1.077-0.392
		c0.62-0.054,1.191,0.099,1.706,0.44c0.363,0.243,0.627,0.576,0.827,0.968c0.268,0.523,0.331,1.085,0.361,1.658
		c0.029,0.56-0.068,1.109-0.255,1.631c-0.223,0.617-0.579,1.144-1.145,1.506c-0.417,0.265-0.88,0.339-1.362,0.339
		c-0.334,0.002-0.656-0.079-0.959-0.199c-0.398-0.158-0.688-0.449-0.907-0.824c-0.192-0.329-0.356-0.673-0.46-1.036
		C21.278,44.04,21.19,43.645,21.232,43.217z M25.6,43.432c-0.017-0.531-0.044-1.019-0.197-1.494
		c-0.188-0.585-0.521-1.032-1.069-1.323c-0.392-0.211-0.79-0.183-1.157,0.003c-0.362,0.184-0.634,0.489-0.798,0.873
		c-0.181,0.423-0.258,0.856-0.259,1.319c-0.001,0.432,0.006,0.858,0.097,1.28c0.107,0.495,0.307,0.94,0.65,1.321
		c0.331,0.365,0.731,0.546,1.224,0.515c0.238-0.017,0.47-0.087,0.649-0.239c0.27-0.236,0.496-0.513,0.63-0.857
		C25.55,44.365,25.591,43.878,25.6,43.432z"/>
	<path fill-rule="evenodd" clip-rule="evenodd" fill="#AA2624" d="M32.165,35.931c0-0.479,0.004-0.96-0.001-1.44
		c-0.008-0.553-0.024-1.106-0.038-1.658c-0.001-0.073-0.01-0.145-0.019-0.218c-0.012-0.109-0.056-0.19-0.173-0.228
		c-0.074-0.025-0.145-0.072-0.205-0.122c-0.099-0.083-0.08-0.188,0.042-0.233C31.826,32.012,31.886,32,31.944,32
		c0.555-0.003,1.112-0.015,1.667,0c0.392,0.009,0.743,0.153,1.013,0.447c0.245,0.268,0.356,0.594,0.397,0.954
		c0.063,0.563-0.098,1.066-0.393,1.54c-0.072,0.117-0.144,0.235-0.215,0.354c-0.082,0.136-0.06,0.264,0.021,0.391
		c0.222,0.343,0.44,0.688,0.665,1.03c0.168,0.256,0.348,0.504,0.517,0.76c0.182,0.271,0.443,0.416,0.751,0.493
		c0.035,0.008,0.082,0.003,0.105,0.021c0.04,0.038,0.089,0.088,0.091,0.135c0.003,0.046-0.042,0.104-0.082,0.136
		c-0.038,0.027-0.096,0.041-0.145,0.04c-0.271-0.006-0.541-0.008-0.811-0.028c-0.292-0.02-0.502-0.196-0.668-0.415
		c-0.144-0.19-0.261-0.403-0.385-0.607c-0.209-0.344-0.415-0.688-0.621-1.035c-0.048-0.08-0.091-0.164-0.134-0.251
		c-0.082-0.159-0.214-0.231-0.392-0.229c-0.358,0.005-0.377,0.021-0.381,0.387c-0.004,0.394-0.009,0.789-0.001,1.182
		c0.002,0.146,0.033,0.29,0.052,0.437c0.019,0.13,0.116,0.176,0.222,0.216c0.067,0.026,0.14,0.046,0.198,0.086
		c0.076,0.053,0.079,0.13,0.002,0.182c-0.063,0.043-0.146,0.078-0.22,0.079c-0.38,0.009-0.76,0.005-1.14,0.001
		c-0.029,0-0.061,0.001-0.086-0.009c-0.081-0.03-0.178-0.05-0.194-0.155c-0.015-0.102,0.072-0.126,0.141-0.17
		c0.179-0.119,0.206-0.313,0.21-0.503c0.012-0.409,0.01-0.82,0.012-1.229c0-0.103,0-0.204,0-0.308
		C32.147,35.931,32.156,35.931,32.165,35.931z M32.929,33.841c0.006,0,0.014,0,0.02,0c0,0.074-0.001,0.146,0,0.221
		c0.006,0.299,0.008,0.599,0.021,0.897c0.002,0.066,0.028,0.152,0.075,0.19c0.164,0.132,0.765,0.123,0.919-0.147
		c0.104-0.18,0.167-0.362,0.209-0.567c0.096-0.474,0.037-0.929-0.124-1.375c-0.141-0.383-0.527-0.558-0.87-0.538
		c-0.166,0.011-0.25,0.105-0.25,0.268C32.929,33.141,32.929,33.491,32.929,33.841z"/>
	<path fill-rule="evenodd" clip-rule="evenodd" fill="#AA2624" d="M28.53,46.363c-0.256,0-0.511-0.003-0.767,0
		c-0.146,0.003-0.292,0.02-0.438,0.02c-0.077,0-0.16-0.01-0.234-0.033c-0.157-0.057-0.17-0.166-0.043-0.278
		c0.063-0.057,0.142-0.109,0.18-0.184c0.044-0.079,0.066-0.176,0.07-0.269c0.012-0.27,0.01-0.54,0.015-0.81
		c0.006-0.481,0.016-0.961,0.019-1.44c0.003-0.774,0.003-1.549,0.001-2.323c0-0.095-0.017-0.189-0.028-0.282
		c-0.018-0.167-0.096-0.29-0.262-0.344c-0.035-0.012-0.069-0.028-0.1-0.047c-0.13-0.084-0.125-0.227,0.022-0.287
		c0.084-0.031,0.184-0.045,0.276-0.045c0.372-0.007,0.744-0.004,1.116-0.002c0.116,0.002,0.234,0.013,0.349,0.03
		c0.605,0.092,1.02,0.531,1.101,1.14c0.062,0.463-0.051,0.881-0.301,1.269c-0.036,0.054-0.061,0.117-0.09,0.174
		c-0.045,0.094-0.017,0.17,0.055,0.236c0.076,0.069,0.157,0.131,0.231,0.201c0.505,0.487,0.704,1.079,0.601,1.773
		c-0.045,0.299-0.163,0.569-0.321,0.829c-0.283,0.467-0.705,0.672-1.233,0.698c-0.072,0.007-0.146,0-0.219,0
		C28.53,46.38,28.53,46.373,28.53,46.363z M28.116,44.433c0.005,0,0.011,0,0.018,0c0,0.335-0.004,0.672,0.001,1.006
		c0.002,0.133,0.019,0.264,0.148,0.347c0.443,0.291,1.101-0.004,1.167-0.524c0.024-0.196,0.04-0.393,0.033-0.591
		c-0.011-0.396-0.147-0.756-0.38-1.076c-0.182-0.247-0.429-0.396-0.744-0.404c-0.172-0.006-0.221,0.04-0.238,0.212
		c-0.004,0.037-0.005,0.072-0.005,0.11C28.115,43.818,28.116,44.124,28.116,44.433z M28.122,41.647L28.122,41.647
		c0,0.13,0,0.263,0,0.393c0,0.133,0.005,0.262,0,0.392c-0.006,0.111,0.031,0.189,0.127,0.231c0.254,0.113,0.598-0.027,0.69-0.292
		c0.053-0.146,0.083-0.307,0.111-0.461c0.056-0.32-0.035-0.622-0.138-0.918c-0.068-0.198-0.205-0.354-0.417-0.419
		c-0.231-0.069-0.359,0.008-0.37,0.245C28.113,41.093,28.122,41.372,28.122,41.647z"/>
	<path fill-rule="evenodd" clip-rule="evenodd" fill="#AA2624" d="M36.696,31.996c0.206,0,0.409-0.001,0.615,0
		c0.103,0,0.196,0.031,0.219,0.141c0.022,0.1-0.041,0.17-0.126,0.21c-0.209,0.095-0.238,0.282-0.24,0.478
		c-0.002,0.423,0.001,0.847,0.002,1.271c0.002,0.649-0.003,1.3,0.009,1.948c0.008,0.45,0.116,0.879,0.323,1.284
		c0.242,0.478,0.795,0.653,1.254,0.489c0.374-0.134,0.639-0.418,0.74-0.813c0.072-0.283,0.137-0.571,0.149-0.859
		c0.031-0.715,0.032-1.431,0.039-2.146c0.004-0.396-0.01-0.788-0.002-1.184c0.004-0.226-0.09-0.376-0.287-0.472
		c-0.026-0.013-0.063-0.014-0.08-0.035c-0.04-0.045-0.098-0.102-0.097-0.15c0.002-0.081,0.061-0.148,0.154-0.16
		c0.036-0.003,0.073-0.006,0.109-0.006c0.286-0.004,0.571-0.011,0.856-0.009c0.094,0.002,0.194,0.012,0.278,0.046
		c0.16,0.068,0.169,0.207,0.019,0.292c-0.206,0.113-0.275,0.277-0.269,0.506c0.012,0.613,0.015,1.229,0.007,1.842
		c-0.004,0.481-0.01,0.965-0.052,1.446c-0.038,0.426-0.084,0.857-0.295,1.246c-0.244,0.456-0.568,0.823-1.081,0.963
		c-0.539,0.149-1.076,0.124-1.581-0.12c-0.303-0.145-0.502-0.413-0.665-0.704c-0.281-0.5-0.347-1.053-0.372-1.608
		c-0.016-0.35,0.015-0.7,0.017-1.051c0.003-0.401-0.001-0.804-0.007-1.207c-0.004-0.307-0.019-0.611-0.021-0.919
		c-0.001-0.168-0.086-0.271-0.225-0.344c-0.052-0.027-0.108-0.048-0.154-0.084c-0.117-0.089-0.099-0.217,0.042-0.267
		c0.06-0.021,0.129-0.022,0.194-0.024C36.346,31.992,36.52,31.996,36.696,31.996z"/>
	<path fill-rule="evenodd" clip-rule="evenodd" fill="#AA2624" d="M59.481,31.995c0.182,0,0.364-0.003,0.546,0.001
		c0.058,0,0.124,0.002,0.171,0.028c0.05,0.028,0.113,0.084,0.118,0.136c0.008,0.05-0.038,0.136-0.082,0.158
		c-0.256,0.113-0.278,0.329-0.276,0.566c0.001,0.618-0.001,1.238,0,1.858c0,0.443-0.013,0.888,0.014,1.331
		c0.021,0.369,0.059,0.743,0.236,1.085c0.121,0.232,0.237,0.466,0.497,0.589c0.374,0.177,0.731,0.179,1.078-0.056
		c0.34-0.23,0.49-0.574,0.57-0.953c0.094-0.462,0.13-0.923,0.104-1.396c-0.022-0.428,0.016-0.857,0.016-1.289
		c-0.001-0.445-0.018-0.889-0.021-1.334c-0.002-0.198-0.104-0.311-0.277-0.377c-0.089-0.034-0.192-0.054-0.181-0.181
		c0.008-0.102,0.09-0.159,0.247-0.172c0.073-0.008,0.147,0,0.22,0c0.254,0,0.509,0,0.764,0.002c0.058,0,0.12,0.005,0.172,0.023
		c0.167,0.062,0.185,0.18,0.05,0.289c-0.007,0.004-0.013,0.014-0.02,0.017c-0.285,0.124-0.275,0.38-0.276,0.628
		c-0.004,0.342,0.009,0.686,0.005,1.03c-0.006,0.681-0.004,1.359-0.037,2.039c-0.028,0.589-0.145,1.165-0.487,1.66
		c-0.203,0.294-0.475,0.514-0.821,0.63c-0.579,0.188-1.138,0.143-1.682-0.127c-0.259-0.128-0.445-0.333-0.585-0.573
		c-0.291-0.499-0.406-1.049-0.411-1.618c-0.007-0.664,0.008-1.33,0.005-1.995c-0.001-0.393-0.016-0.786-0.031-1.179
		c-0.009-0.227-0.082-0.414-0.33-0.486c-0.085-0.025-0.169-0.075-0.151-0.186c0.019-0.114,0.118-0.145,0.216-0.146
		C59.056,31.992,59.268,31.996,59.481,31.995C59.481,31.996,59.481,31.996,59.481,31.995z"/>
	<path fill-rule="evenodd" clip-rule="evenodd" fill="#AA2624" d="M41.318,46.354c-0.183,0-0.366,0.004-0.548-0.003
		c-0.053-0.001-0.113-0.027-0.155-0.061c-0.06-0.046-0.066-0.114-0.001-0.17c0.038-0.031,0.077-0.071,0.123-0.088
		c0.273-0.087,0.374-0.309,0.447-0.547c0.123-0.416,0.238-0.831,0.359-1.244c0.31-1.082,0.622-2.162,0.932-3.241
		c0.071-0.245,0.141-0.491,0.213-0.736c0.002-0.015,0.007-0.027,0.013-0.041c0.045-0.102,0.088-0.217,0.215-0.225
		c0.141-0.012,0.207,0.102,0.248,0.211c0.076,0.215,0.142,0.433,0.209,0.647c0.184,0.598,0.368,1.201,0.551,1.8
		c0.238,0.782,0.474,1.564,0.713,2.35c0.051,0.164,0.11,0.331,0.167,0.495c0.091,0.258,0.239,0.465,0.516,0.553
		c0.04,0.015,0.081,0.037,0.109,0.066c0.062,0.07,0.043,0.16-0.044,0.197c-0.072,0.032-0.152,0.063-0.229,0.065
		c-0.263,0.005-0.527,0.014-0.79-0.003c-0.282-0.022-0.297-0.071-0.329-0.354c-0.026-0.237-0.088-0.475-0.155-0.704
		c-0.104-0.355-0.232-0.707-0.339-1.063c-0.049-0.16-0.154-0.229-0.304-0.235c-0.248-0.005-0.497-0.002-0.746-0.004
		c-0.156,0-0.262,0.061-0.304,0.225c-0.121,0.481-0.313,0.941-0.372,1.441c-0.021,0.165-0.019,0.303,0.161,0.385
		c0.042,0.02,0.081,0.115,0.068,0.158c-0.014,0.051-0.083,0.106-0.138,0.12c-0.091,0.019-0.189,0.005-0.284,0.005
		C41.523,46.354,41.42,46.354,41.318,46.354C41.318,46.354,41.318,46.354,41.318,46.354z M42.865,41.984
		c-0.06,0.07-0.087,0.092-0.095,0.115c-0.107,0.386-0.215,0.773-0.313,1.158c-0.026,0.108,0.04,0.184,0.162,0.186
		c0.167,0.004,0.334-0.01,0.5-0.032c0.04-0.005,0.09-0.069,0.099-0.115c0.013-0.062-0.002-0.132-0.018-0.194
		c-0.053-0.221-0.108-0.438-0.171-0.654C42.987,42.305,42.93,42.168,42.865,41.984z"/>
	<path fill-rule="evenodd" clip-rule="evenodd" fill="#AA2624" d="M73.128,35.097c0.025,0.188,0.04,0.503,0.114,0.807
		c0.151,0.626,0.446,1.182,0.98,1.562c0.55,0.393,1.153,0.472,1.786,0.21c0.141-0.059,0.245-0.162,0.308-0.296
		c0.051-0.106,0.084-0.22,0.124-0.33c0.03-0.08,0.053-0.167,0.091-0.244c0.032-0.069,0.094-0.135,0.172-0.094
		c0.058,0.027,0.109,0.094,0.133,0.155c0.021,0.055,0.013,0.13,0.003,0.194c-0.046,0.301-0.087,0.604-0.148,0.903
		c-0.037,0.181-0.171,0.282-0.353,0.323c-0.485,0.112-0.976,0.183-1.475,0.106c-0.201-0.032-0.403-0.054-0.6-0.101
		c-0.356-0.085-0.659-0.276-0.929-0.519c-0.278-0.247-0.529-0.529-0.677-0.875c-0.123-0.287-0.21-0.592-0.277-0.896
		c-0.083-0.386-0.103-0.779-0.081-1.177c0.021-0.399,0.092-0.787,0.233-1.156c0.218-0.565,0.539-1.052,1.068-1.401
		c0.555-0.364,1.145-0.452,1.777-0.379c0.403,0.048,0.805,0.125,1.207,0.191c0.146,0.024,0.232,0.098,0.236,0.247
		c0.01,0.445,0.027,0.892-0.061,1.332c-0.017,0.08-0.059,0.132-0.149,0.132c-0.093-0.002-0.148-0.043-0.165-0.141
		c-0.023-0.136-0.051-0.271-0.083-0.405c-0.068-0.3-0.25-0.5-0.529-0.627c-0.489-0.221-0.996-0.233-1.499-0.088
		c-0.435,0.128-0.731,0.445-0.921,0.851C73.181,33.886,73.15,34.428,73.128,35.097z"/>
	<path fill-rule="evenodd" clip-rule="evenodd" fill="#AA2624" d="M16.217,37.812c0.088-0.005,0.176-0.005,0.263-0.011
		c0.435-0.039,0.741-0.313,0.843-0.74c0.023-0.097,0.06-0.194,0.111-0.28c0.023-0.04,0.101-0.08,0.14-0.068
		c0.054,0.015,0.107,0.071,0.135,0.122c0.024,0.048,0.024,0.115,0.017,0.171c-0.042,0.304-0.089,0.608-0.136,0.91
		c-0.028,0.186-0.142,0.295-0.318,0.35c-0.568,0.175-1.145,0.209-1.727,0.099c-0.243-0.047-0.49-0.095-0.719-0.182
		c-0.407-0.154-0.712-0.455-0.977-0.789c-0.348-0.438-0.538-0.947-0.61-1.499c-0.039-0.296-0.063-0.593-0.095-0.891
		c-0.002-0.021-0.004-0.044,0-0.065c0.087-0.457,0.108-0.933,0.304-1.364c0.168-0.37,0.37-0.717,0.67-1.014
		c0.534-0.527,1.173-0.699,1.893-0.694c0.486,0.005,0.953,0.122,1.426,0.212c0.165,0.031,0.268,0.154,0.268,0.322
		c0,0.16-0.017,0.32-0.021,0.481c-0.004,0.153,0.007,0.305-0.001,0.461c-0.006,0.112-0.02,0.229-0.048,0.339
		c-0.017,0.074-0.068,0.133-0.158,0.125c-0.083-0.008-0.137-0.051-0.155-0.132c-0.015-0.065-0.02-0.131-0.029-0.195
		c-0.078-0.531-0.251-0.738-0.791-0.933c-0.418-0.149-0.847-0.146-1.268-0.013c-0.456,0.145-0.77,0.45-0.967,0.889
		c-0.164,0.363-0.203,0.745-0.242,1.131c-0.055,0.543-0.019,1.078,0.166,1.596c0.15,0.423,0.349,0.821,0.679,1.137
		C15.245,37.645,15.694,37.822,16.217,37.812z"/>
	<path fill-rule="evenodd" clip-rule="evenodd" fill="#AA2624" d="M19.58,32.024c0.409-0.021,0.817-0.041,1.226-0.064
		c0.208-0.015,0.305,0.066,0.292,0.274c-0.014,0.247-0.037,0.493-0.067,0.74c-0.01,0.082-0.019,0.184-0.139,0.194
		c-0.118,0.011-0.156-0.089-0.208-0.165c-0.012-0.019-0.012-0.044-0.018-0.063c-0.071-0.253-0.185-0.35-0.442-0.366
		c-0.123-0.008-0.248-0.015-0.372-0.018c-0.186-0.002-0.247,0.046-0.263,0.232c-0.018,0.205-0.025,0.409-0.028,0.612
		c-0.003,0.314-0.005,0.629,0.001,0.944c0.006,0.281,0.042,0.312,0.317,0.329c0.292,0.02,0.581,0.025,0.855-0.121
		c0.145-0.078,0.263,0.001,0.261,0.173c-0.002,0.225-0.032,0.451-0.051,0.678c-0.008,0.088-0.012,0.173-0.028,0.261
		c-0.015,0.07-0.041,0.146-0.135,0.146c-0.088,0.003-0.157-0.032-0.178-0.128c-0.002-0.008-0.004-0.014-0.007-0.019
		c-0.112-0.355-0.152-0.388-0.515-0.405c-0.101-0.006-0.203-0.004-0.305,0.005c-0.175,0.022-0.214,0.066-0.213,0.239
		c0,0.467,0.005,0.935,0.006,1.403c0,0.115-0.014,0.232-0.008,0.351c0.021,0.387,0.174,0.526,0.551,0.517
		c0.117-0.004,0.233-0.01,0.349-0.018c0.173-0.011,0.308-0.082,0.375-0.255c0.042-0.107,0.091-0.215,0.131-0.325
		c0.028-0.074,0.082-0.096,0.153-0.098c0.085,0,0.114,0.061,0.128,0.126c0.014,0.064,0.028,0.132,0.021,0.195
		c-0.023,0.213-0.042,0.422-0.087,0.629c-0.043,0.204-0.192,0.304-0.398,0.311c-0.205,0.005-0.41,0.005-0.615,0
		c-0.445-0.009-0.89-0.02-1.335-0.032c-0.116-0.006-0.234-0.019-0.345-0.052c-0.124-0.036-0.138-0.145-0.044-0.234
		c0.021-0.02,0.045-0.037,0.07-0.052c0.155-0.083,0.199-0.224,0.204-0.385c0.02-0.459,0.042-0.92,0.05-1.377
		c0.006-0.3-0.012-0.6-0.017-0.898c-0.005-0.363-0.009-0.725-0.009-1.089c0-0.335,0.009-0.672,0.011-1.007
		c0-0.137-0.005-0.276-0.015-0.415c-0.016-0.225-0.074-0.42-0.337-0.472c-0.076-0.016-0.14-0.063-0.138-0.15
		c0.001-0.095,0.073-0.141,0.154-0.161c0.077-0.018,0.159-0.02,0.239-0.02c0.306-0.004,0.614-0.004,0.921-0.004
		C19.579,32.003,19.579,32.014,19.58,32.024z"/>
	<path fill-rule="evenodd" clip-rule="evenodd" fill="#AA2624" d="M50.474,44.48c0,0.284-0.004,0.568,0.001,0.854
		c0.003,0.169,0.02,0.341,0.188,0.44c0.02,0.011,0.037,0.029,0.058,0.033c0.268,0.028,0.537,0.071,0.803-0.014
		c0.134-0.045,0.211-0.146,0.256-0.279c0.033-0.094,0.061-0.195,0.11-0.284c0.024-0.044,0.089-0.093,0.133-0.089
		c0.044,0,0.093,0.059,0.125,0.1c0.025,0.032,0.038,0.083,0.034,0.122c-0.021,0.24-0.037,0.483-0.076,0.721
		c-0.033,0.199-0.161,0.306-0.363,0.313c-0.314,0.005-0.629-0.007-0.943-0.012c-0.299-0.002-0.598-0.005-0.896-0.012
		c-0.154-0.005-0.307-0.019-0.459-0.037c-0.063-0.005-0.13-0.027-0.14-0.114c-0.007-0.074,0.02-0.126,0.087-0.16
		c0.182-0.098,0.235-0.26,0.24-0.458c0.011-0.409,0.039-0.817,0.048-1.227c0.006-0.261-0.014-0.523-0.015-0.786
		c-0.001-0.721,0-1.444,0-2.166c0-0.195-0.01-0.393-0.007-0.591c0.001-0.195-0.079-0.336-0.266-0.41
		c-0.041-0.018-0.08-0.036-0.117-0.06c-0.113-0.072-0.127-0.175-0.015-0.243c0.089-0.05,0.205-0.077,0.31-0.077
		c0.336-0.003,0.671,0.019,1.007,0.016c0.395-0.004,0.79-0.019,1.184-0.03c0.192-0.004,0.25,0.026,0.249,0.214
		c-0.003,0.255-0.028,0.512-0.046,0.767c-0.002,0.033-0.013,0.076-0.037,0.102c-0.048,0.049-0.105,0.125-0.16,0.125
		c-0.05,0.003-0.11-0.076-0.148-0.133c-0.031-0.046-0.041-0.108-0.052-0.166c-0.04-0.183-0.161-0.276-0.337-0.291
		c-0.154-0.016-0.307-0.014-0.46-0.016c-0.25-0.005-0.291,0.124-0.298,0.314c-0.006,0.168,0.002,0.337,0.003,0.505
		c0.001,0.33,0.001,0.657,0.002,0.986c0,0.252,0.041,0.29,0.285,0.311c0.311,0.027,0.61,0.009,0.899-0.128
		c0.137-0.064,0.233,0,0.231,0.155c-0.004,0.299-0.029,0.599-0.046,0.896c0,0.008-0.003,0.015-0.006,0.022
		c-0.038,0.074-0.046,0.188-0.154,0.188c-0.116,0.002-0.159-0.101-0.175-0.196c-0.024-0.146-0.074-0.284-0.231-0.31
		c-0.215-0.031-0.435-0.04-0.652-0.043c-0.123,0-0.148,0.099-0.147,0.202c0,0.316,0,0.63,0,0.945
		C50.477,44.48,50.476,44.48,50.474,44.48z"/>
	<path fill-rule="evenodd" clip-rule="evenodd" fill="#AA2624" d="M51.171,35.26c-0.114,0.169-0.098,0.349-0.098,0.521
		c0,0.475,0.006,0.949,0.015,1.423c0.001,0.103,0.019,0.205,0.039,0.303c0.032,0.162,0.159,0.239,0.299,0.25
		c0.194,0.018,0.394,0.002,0.588-0.011c0.185-0.015,0.311-0.11,0.367-0.295c0.032-0.104,0.073-0.206,0.125-0.301
		c0.022-0.041,0.096-0.089,0.13-0.079c0.055,0.016,0.136,0.073,0.137,0.119c0.014,0.326,0.023,0.661-0.121,0.965
		c-0.071,0.152-0.249,0.174-0.402,0.182c-0.212,0.01-0.424,0.003-0.635-0.001c-0.466-0.01-0.934-0.021-1.399-0.034
		c-0.059-0.002-0.117-0.012-0.173-0.028c-0.144-0.039-0.193-0.182-0.073-0.252c0.271-0.157,0.278-0.408,0.286-0.665
		c0.011-0.402,0.016-0.805,0.017-1.207c0.004-0.935,0.005-1.872,0.004-2.808c0-0.205-0.011-0.412-0.022-0.614
		c-0.009-0.173-0.077-0.301-0.26-0.363c-0.168-0.058-0.228-0.14-0.196-0.224c0.045-0.116,0.157-0.141,0.268-0.159
		c0.027-0.006,0.057-0.004,0.086-0.003c0.38,0.005,0.76,0,1.141,0.019c0.379,0.016,0.757,0.006,1.134-0.037
		c0.085-0.012,0.159,0.025,0.177,0.123c0.008,0.044,0.028,0.087,0.024,0.129c-0.025,0.261-0.052,0.522-0.083,0.782
		c-0.005,0.04-0.034,0.08-0.061,0.113c-0.081,0.092-0.172,0.087-0.229-0.019c-0.031-0.055-0.046-0.123-0.056-0.186
		c-0.03-0.167-0.139-0.264-0.29-0.291c-0.207-0.04-0.417-0.076-0.631-0.025c-0.151,0.037-0.188,0.061-0.194,0.212
		c-0.01,0.197-0.013,0.395-0.012,0.593c0.001,0.341,0.001,0.684,0.016,1.026c0.009,0.222,0.046,0.263,0.265,0.257
		c0.295-0.005,0.598,0.042,0.88-0.113c0.164-0.087,0.249-0.034,0.259,0.159c0.017,0.307,0.016,0.614-0.053,0.915
		c-0.02,0.084-0.042,0.176-0.164,0.17c-0.104-0.005-0.137-0.083-0.15-0.162c-0.029-0.174-0.11-0.306-0.286-0.353
		c-0.097-0.024-0.201-0.027-0.302-0.031C51.42,35.256,51.303,35.26,51.171,35.26z"/>
	<path fill-rule="evenodd" clip-rule="evenodd" fill="#AA2624" d="M68.086,40.086c0.424-0.017,0.847-0.034,1.271-0.052
		c0.26-0.012,0.329,0.058,0.31,0.317c-0.018,0.224-0.041,0.451-0.07,0.676c-0.007,0.054-0.032,0.115-0.068,0.156
		c-0.093,0.104-0.199,0.083-0.256-0.048c-0.021-0.045-0.032-0.097-0.043-0.147c-0.051-0.222-0.199-0.335-0.419-0.35
		c-0.152-0.013-0.307-0.011-0.459,0.003c-0.185,0.017-0.225,0.061-0.24,0.249c-0.011,0.13-0.005,0.263-0.005,0.394
		c0.001,0.388,0.002,0.775,0.005,1.161c0,0.243,0.047,0.3,0.29,0.305c0.175,0.001,0.352,0.001,0.525-0.021
		c0.112-0.014,0.222-0.059,0.327-0.107c0.163-0.072,0.273-0.015,0.293,0.16c0.001,0.015,0.004,0.03,0.001,0.045
		c-0.018,0.268-0.034,0.54-0.061,0.807c-0.007,0.069-0.035,0.143-0.073,0.202c-0.055,0.086-0.143,0.079-0.195-0.006
		c-0.037-0.063-0.069-0.133-0.083-0.202c-0.028-0.155-0.123-0.239-0.262-0.258c-0.182-0.027-0.365-0.046-0.546-0.048
		c-0.136-0.002-0.197,0.066-0.214,0.202c-0.008,0.073-0.007,0.145-0.007,0.219c-0.003,0.378,0,0.758-0.005,1.137
		c-0.003,0.251-0.003,0.497,0.075,0.74c0.028,0.085,0.064,0.152,0.153,0.166c0.252,0.049,0.504,0.094,0.759,0.017
		c0.188-0.058,0.318-0.174,0.364-0.37c0.016-0.064,0.039-0.128,0.062-0.188c0.023-0.064,0.056-0.121,0.14-0.11
		c0.089,0.011,0.149,0.064,0.156,0.157c0.008,0.084,0.005,0.174-0.002,0.262c-0.015,0.167-0.022,0.336-0.06,0.497
		c-0.061,0.25-0.18,0.348-0.438,0.35c-0.387,0.003-0.774-0.011-1.16-0.019c-0.3-0.007-0.598-0.017-0.898-0.026
		c-0.05,0-0.11,0.015-0.152-0.004c-0.06-0.028-0.126-0.074-0.156-0.128c-0.04-0.074,0.026-0.128,0.088-0.153
		c0.2-0.081,0.22-0.26,0.232-0.435c0.018-0.202,0.022-0.403,0.028-0.609c0.01-0.268,0.023-0.537,0.025-0.807
		c0.001-0.304-0.009-0.612-0.009-0.917c-0.001-0.505,0.007-1.009,0.004-1.514c-0.004-0.342-0.028-0.681-0.028-1.023
		c0.001-0.177-0.097-0.266-0.235-0.335c-0.039-0.021-0.091-0.022-0.119-0.053c-0.043-0.042-0.096-0.105-0.094-0.153
		c0.004-0.049,0.067-0.123,0.115-0.133c0.156-0.03,0.317-0.049,0.478-0.049c0.22,0,0.437,0.019,0.657,0.03
		C68.086,40.076,68.086,40.081,68.086,40.086z"/>
	<path fill-rule="evenodd" clip-rule="evenodd" fill="#AA2624" d="M47.143,43.218c0,0.745-0.005,1.492,0.004,2.239
		c0.001,0.14,0.051,0.285,0.097,0.42c0.019,0.053,0.086,0.089,0.136,0.129c0.023,0.015,0.055,0.021,0.082,0.03
		c0.096,0.032,0.221,0.053,0.203,0.187c-0.014,0.113-0.126,0.131-0.223,0.141c-0.115,0.008-0.232,0.014-0.35,0.014
		c-0.219,0.003-0.438,0.003-0.657,0.003c-0.116-0.003-0.236-0.007-0.347-0.036c-0.14-0.035-0.171-0.188-0.048-0.263
		c0.229-0.138,0.27-0.35,0.272-0.583c0.005-0.591,0.003-1.184,0.006-1.774c0.002-0.615,0.008-1.23,0.01-1.844
		c0.001-0.337,0-0.671-0.007-1.01c-0.003-0.163-0.041-0.212-0.206-0.221c-0.305-0.017-0.617-0.041-0.905,0.088
		c-0.092,0.044-0.163,0.139-0.235,0.217c-0.05,0.053-0.079,0.124-0.133,0.171c-0.115,0.1-0.228,0.067-0.247-0.086
		c-0.017-0.141-0.007-0.29,0.017-0.434c0.027-0.161,0.07-0.326,0.132-0.48c0.058-0.148,0.104-0.163,0.257-0.137
		c0.593,0.109,1.191,0.071,1.789,0.063c0.379-0.006,0.758,0.011,1.139,0.008c0.189-0.004,0.379-0.022,0.569-0.03
		c0.259-0.014,0.289,0.015,0.326,0.267c0.039,0.273-0.018,0.537-0.044,0.805c-0.009,0.092-0.064,0.149-0.155,0.16
		c-0.106,0.013-0.133-0.068-0.156-0.147c-0.015-0.05-0.026-0.1-0.043-0.148c-0.049-0.132-0.131-0.231-0.281-0.246
		c-0.26-0.025-0.521-0.056-0.784-0.067c-0.139-0.008-0.192,0.055-0.212,0.197c-0.013,0.095-0.017,0.19-0.018,0.284
		c-0.001,0.697,0,1.389,0,2.085C47.134,43.218,47.138,43.218,47.143,43.218z"/>
	<path fill-rule="evenodd" clip-rule="evenodd" fill="#AA2624" d="M29.283,38.305c-0.162,0-0.323,0.003-0.484-0.001
		c-0.064-0.001-0.136,0-0.192-0.024c-0.061-0.027-0.143-0.081-0.15-0.134c-0.009-0.049,0.055-0.136,0.109-0.164
		c0.174-0.095,0.217-0.252,0.222-0.424c0.01-0.299,0-0.598,0.006-0.898c0.005-0.299,0.023-0.596,0.028-0.896
		c0.004-0.271,0.003-0.539,0.001-0.81c-0.004-0.489-0.014-0.98-0.017-1.47c0-0.18,0.021-0.363,0.018-0.544
		c-0.005-0.309-0.058-0.366-0.36-0.358c-0.24,0.008-0.478,0.043-0.717,0.066c-0.136,0.017-0.218,0.104-0.286,0.214
		c-0.046,0.075-0.093,0.151-0.159,0.207c-0.109,0.089-0.236,0.026-0.252-0.114c-0.004-0.035,0.005-0.073,0.01-0.108
		c0.022-0.189,0.038-0.379,0.071-0.564c0.015-0.084,0.062-0.161,0.1-0.242c0.047-0.098,0.13-0.133,0.236-0.115
		c0.791,0.132,1.587,0.05,2.381,0.063c0.393,0.008,0.788-0.018,1.181-0.031c0.154-0.007,0.287,0.085,0.287,0.237
		c0,0.275-0.019,0.553-0.039,0.83c-0.005,0.081-0.045,0.163-0.14,0.175c-0.094,0.009-0.16-0.06-0.173-0.142
		c-0.057-0.365-0.333-0.424-0.626-0.453c-0.154-0.015-0.308-0.014-0.462-0.011c-0.162,0.005-0.236,0.074-0.253,0.239
		c-0.01,0.104-0.007,0.206-0.005,0.309c0.008,0.604,0.022,1.211,0.023,1.814c0.002,0.503-0.017,1.004-0.016,1.509
		c0,0.343,0.016,0.686,0.029,1.029c0.002,0.065,0.021,0.129,0.031,0.194c0.021,0.154,0.095,0.256,0.257,0.281
		c0.043,0.007,0.094,0.02,0.121,0.048c0.038,0.04,0.082,0.1,0.075,0.144c-0.005,0.043-0.066,0.094-0.113,0.11
		c-0.074,0.024-0.157,0.032-0.237,0.036c-0.167,0.004-0.335,0-0.503,0C29.283,38.308,29.283,38.308,29.283,38.305z"/>
	<path fill-rule="evenodd" clip-rule="evenodd" fill="#AA2624" d="M58.908,40.681c0,0.092,0.001,0.201-0.001,0.311
		c-0.002,0.052-0.015,0.102-0.021,0.151c-0.012,0.097-0.055,0.183-0.154,0.185c-0.104,0.004-0.163-0.079-0.192-0.179
		c-0.024-0.085-0.044-0.169-0.07-0.252c-0.149-0.493-0.87-0.505-1.104-0.211c-0.239,0.303-0.258,0.63-0.129,0.974
		c0.104,0.272,0.29,0.503,0.493,0.715c0.241,0.252,0.492,0.501,0.716,0.767c0.393,0.469,0.616,1.011,0.587,1.631
		c-0.017,0.351-0.097,0.695-0.277,1.005c-0.252,0.429-0.648,0.644-1.126,0.7c-0.367,0.044-0.728-0.005-1.066-0.178
		c-0.145-0.074-0.217-0.186-0.222-0.348c-0.009-0.293-0.035-0.584,0.033-0.872c0.012-0.049,0.018-0.109,0.048-0.143
		c0.038-0.041,0.099-0.083,0.153-0.089c0.074-0.005,0.11,0.057,0.125,0.13c0.021,0.112,0.043,0.227,0.065,0.342
		c0.089,0.447,0.319,0.587,0.75,0.626c0.256,0.025,0.488-0.094,0.623-0.333c0.252-0.448,0.238-0.9-0.025-1.33
		c-0.221-0.364-0.529-0.658-0.82-0.968c-0.196-0.208-0.376-0.427-0.523-0.672c-0.176-0.298-0.269-0.615-0.275-0.957
		c-0.002-0.173,0.008-0.35,0.023-0.522c0.068-0.745,0.689-1.226,1.384-1.226c0.257,0,0.511,0.021,0.758,0.1
		c0.215,0.064,0.267,0.129,0.261,0.361C58.919,40.486,58.914,40.573,58.908,40.681z"/>
	<path fill-rule="evenodd" clip-rule="evenodd" fill="#AA2624" d="M54.343,46.363c-0.349,0-0.699,0-1.049-0.003
		c-0.072,0-0.15,0.003-0.216-0.021c-0.055-0.021-0.114-0.072-0.131-0.125c-0.012-0.038,0.034-0.103,0.066-0.146
		c0.02-0.026,0.068-0.036,0.088-0.063c0.056-0.074,0.125-0.149,0.146-0.234c0.036-0.147,0.051-0.305,0.051-0.457
		c0.004-1.168,0.001-2.34,0.002-3.512c0-0.24,0.006-0.482,0.005-0.722c0-0.095-0.001-0.193-0.016-0.285
		c-0.028-0.179-0.089-0.342-0.299-0.385c-0.034-0.008-0.068-0.03-0.095-0.052c-0.114-0.094-0.099-0.216,0.036-0.275
		c0.045-0.02,0.098-0.029,0.147-0.032c0.357-0.003,0.716-0.008,1.073-0.006c0.08,0,0.16,0.017,0.239,0.023
		c0.093,0.011,0.145,0.063,0.162,0.153c0.019,0.092-0.038,0.132-0.111,0.162c-0.04,0.017-0.077,0.039-0.118,0.057
		c-0.128,0.054-0.19,0.152-0.193,0.292c-0.004,0.291-0.013,0.585-0.017,0.877c-0.007,0.596-0.017,1.197-0.013,1.793
		c0.002,0.599,0.018,1.196,0.033,1.797c0.004,0.122,0.024,0.245,0.055,0.366c0.04,0.165,0.161,0.265,0.332,0.268
		c0.233,0.005,0.468,0.002,0.699-0.018c0.186-0.018,0.324-0.123,0.387-0.308c0.034-0.105,0.069-0.208,0.115-0.307
		c0.032-0.069,0.101-0.123,0.178-0.088c0.049,0.022,0.1,0.088,0.11,0.141c0.02,0.098,0.017,0.2,0.01,0.298
		c-0.009,0.146-0.018,0.291-0.05,0.432c-0.07,0.301-0.201,0.408-0.506,0.417c-0.284,0.005-0.57-0.005-0.854-0.012
		c-0.088-0.002-0.175-0.007-0.263-0.01C54.343,46.373,54.343,46.368,54.343,46.363z"/>
	<path fill-rule="evenodd" clip-rule="evenodd" fill="#AA2624" d="M77.205,32.199c0.057-0.155,0.149-0.212,0.279-0.212
		c0.395,0.001,0.79,0.004,1.185,0.011c0.047,0,0.101,0.015,0.144,0.039c0.118,0.069,0.13,0.21,0.008,0.26
		c-0.295,0.122-0.304,0.365-0.304,0.618c0,0.648,0.009,1.297,0.005,1.944c-0.002,0.714-0.011,1.43-0.021,2.142
		c-0.002,0.343,0.012,0.689-0.022,1.029c-0.062,0.606-0.256,1.166-0.697,1.612c-0.18,0.179-0.367,0.355-0.56,0.519
		c-0.056,0.048-0.142,0.073-0.216,0.077c-0.134,0.011-0.191-0.072-0.136-0.197c0.041-0.09,0.106-0.174,0.175-0.25
		c0.232-0.258,0.379-0.553,0.476-0.893c0.162-0.572,0.165-1.15,0.17-1.735c0.004-0.344,0.023-0.687,0.026-1.028
		c0.003-0.313-0.006-0.628-0.008-0.94c-0.003-0.342,0.003-0.686,0-1.027c-0.004-0.475-0.008-0.952-0.02-1.425
		c-0.004-0.183-0.044-0.346-0.278-0.382C77.333,32.351,77.271,32.254,77.205,32.199z"/>
	<path fill-rule="evenodd" clip-rule="evenodd" fill="#AA2624" d="M79.722,38.087c0.033-0.029,0.056-0.062,0.087-0.077
		c0.193-0.078,0.237-0.248,0.25-0.423c0.021-0.27,0.021-0.539,0.028-0.808c0.004-0.101,0.004-0.203,0.006-0.307
		c0.005-1.161,0.012-2.324,0.015-3.487c0-0.088-0.001-0.176-0.014-0.263c-0.024-0.155-0.07-0.301-0.232-0.372
		c-0.032-0.016-0.063-0.036-0.089-0.062c-0.095-0.094-0.081-0.21,0.041-0.265c0.056-0.026,0.127-0.037,0.19-0.037
		c0.327-0.002,0.655,0,0.984,0.003c0.03,0,0.06-0.003,0.088,0.006c0.093,0.021,0.19,0.051,0.21,0.162
		c0.016,0.096-0.057,0.145-0.131,0.18c-0.175,0.084-0.231,0.24-0.233,0.415c-0.008,0.291-0.004,0.584-0.006,0.874
		c-0.004,0.611-0.012,1.226-0.012,1.837c0,0.634,0.01,1.271,0.015,1.905c0,0.072,0.009,0.146,0.02,0.218
		c0.028,0.202,0.109,0.36,0.345,0.391c0.083,0.009,0.149,0.062,0.156,0.157c0.005,0.077-0.081,0.163-0.199,0.167
		c-0.205,0.01-0.409-0.004-0.614-0.008c-0.122,0-0.244,0.002-0.369,0c-0.122-0.004-0.246-0.01-0.37-0.018
		C79.783,38.27,79.729,38.21,79.722,38.087z"/>
</g>
</svg>
