<?xml version="1.0" encoding="utf-8"?>
<!-- Generator: Adobe Illustrator 16.0.0, SVG Export Plug-In . SVG Version: 6.00 Build 0)  -->
<!DOCTYPE svg PUBLIC "-//W3C//DTD SVG 1.1//EN" "http://www.w3.org/Graphics/SVG/1.1/DTD/svg11.dtd">
<svg version="1.1" xmlns="http://www.w3.org/2000/svg" xmlns:xlink="http://www.w3.org/1999/xlink" x="0px" y="0px" width="100px"
	 height="100px" viewBox="0 0 100 100" enable-background="new 0 0 100 100" xml:space="preserve">
<g id="Warstwa_2" display="none">
	<rect display="inline" fill="#2D348B"  />
</g>
<g id="Warstwa_1">
	<path fill="#FFFFFF" d="M83.253,63.23h-25.47H24.14c-3.897,0-7.068,3.17-7.068,7.067s3.17,7.068,7.068,7.068h33.644h25.47
		c3.897,0,7.068-3.171,7.068-7.068S87.15,63.23,83.253,63.23z M83.253,73.511H65.194c0.496-0.965,0.78-2.056,0.78-3.213
		s-0.284-2.247-0.779-3.212h18.058c1.771,0,3.213,1.441,3.213,3.212C86.466,72.069,85.024,73.511,83.253,73.511z M24.14,65.709
		c2.53,0,4.589,2.059,4.589,4.589c0,2.531-2.059,4.59-4.589,4.59c-2.531,0-4.59-2.059-4.59-4.59
		C19.55,67.768,21.609,65.709,24.14,65.709z"/>
	<path fill="#FFFFFF" d="M22.368,60.201c0-15.421,8.089-31.117,0-49.567C22.368,32.113,2.817,50.013,22.368,60.201z"/>
</g>
</svg>
