<?xml version="1.0" encoding="utf-8"?>
<!-- Generator: Adobe Illustrator 16.0.0, SVG Export Plug-In . SVG Version: 6.00 Build 0)  -->
<!DOCTYPE svg PUBLIC "-//W3C//DTD SVG 1.1//EN" "http://www.w3.org/Graphics/SVG/1.1/DTD/svg11.dtd">
<svg version="1.1" xmlns="http://www.w3.org/2000/svg" xmlns:xlink="http://www.w3.org/1999/xlink" x="0px" y="0px" width="100px"
	 height="100px" viewBox="0 0 100 100" enable-background="new 0 0 100 100" xml:space="preserve">
<g id="Warstwa_2" display="none">
	<rect display="inline" fill="#2D348B" width="100" height="100"/>
</g>
<g id="Warstwa_1">
	<g>
		<path fill="#FFFFFF" d="M79.351,5.495h-58.7c-1.343,0-2.432,1.089-2.432,2.432v84.147c0,1.343,1.089,2.431,2.432,2.431h58.7
			c1.343,0,2.431-1.088,2.431-2.431V7.927C81.781,6.584,80.693,5.495,79.351,5.495z M77.762,90.485H22.238V9.517h55.523V90.485z"/>
		<path fill="#FFFFFF" d="M31.272,26.312h1.751c0.099,0,0.189-0.035,0.275-0.107c0.084-0.07,0.136-0.156,0.153-0.254l0.964-4.52
			l2.339,4.546c0.044,0.071,0.103,0.146,0.173,0.222c0.072,0.075,0.183,0.113,0.335,0.113h1.123c0.097,0,0.189-0.035,0.273-0.107
			c0.085-0.07,0.137-0.156,0.155-0.254l1.845-8.639c0.019-0.098-0.002-0.184-0.06-0.254c-0.058-0.071-0.137-0.107-0.233-0.107
			h-1.752c-0.098,0-0.189,0.036-0.274,0.107c-0.084,0.07-0.135,0.156-0.152,0.254l-0.964,4.52l-2.367-4.574
			c-0.018-0.043-0.064-0.105-0.141-0.188c-0.076-0.079-0.189-0.119-0.341-0.119h-1.123c-0.099,0-0.189,0.036-0.274,0.107
			c-0.085,0.07-0.136,0.156-0.154,0.254l-1.846,8.639c-0.017,0.098,0.002,0.184,0.06,0.254
			C31.095,26.276,31.173,26.312,31.272,26.312z"/>
		<path fill="#FFFFFF" d="M40.981,26.312h6.338c0.098,0,0.189-0.035,0.274-0.107c0.085-0.07,0.137-0.156,0.154-0.254l0.308-1.417
			c0.017-0.099,0-0.183-0.054-0.254c-0.054-0.072-0.129-0.107-0.228-0.107h-4.226l0.308-1.497h3.825c0.097,0,0.191-0.037,0.28-0.107
			c0.09-0.072,0.143-0.156,0.161-0.254l0.308-1.418c0.018-0.098-0.002-0.184-0.06-0.254c-0.058-0.071-0.135-0.107-0.234-0.107H44.31
			l0.307-1.443h4.12c0.098,0,0.191-0.036,0.281-0.108c0.089-0.071,0.143-0.155,0.16-0.254l0.308-1.417
			c0.017-0.098-0.002-0.184-0.061-0.254c-0.058-0.071-0.135-0.107-0.234-0.107h-6.231c-0.098,0-0.189,0.036-0.274,0.107
			c-0.083,0.07-0.135,0.156-0.152,0.254l-1.846,8.639c-0.018,0.098,0.002,0.184,0.061,0.254
			C40.805,26.276,40.882,26.312,40.981,26.312z"/>
		<path fill="#FFFFFF" d="M50.957,26.312h1.229c0.179,0,0.337-0.055,0.474-0.16c0.139-0.107,0.239-0.223,0.302-0.35l1.565-3.021
			l0.334,3.021c0.009,0.127,0.061,0.242,0.152,0.35c0.096,0.105,0.23,0.16,0.409,0.16h1.202c0.18,0,0.343-0.055,0.489-0.16
			c0.147-0.107,0.243-0.223,0.288-0.35l3.41-8.449c0.044-0.1,0.054-0.189,0.025-0.275c-0.025-0.084-0.101-0.127-0.227-0.127h-1.778
			c-0.091,0-0.179,0.027-0.268,0.081c-0.09,0.053-0.16,0.146-0.214,0.28l-1.818,4.52l-0.148-2.42
			c-0.009-0.063-0.032-0.143-0.073-0.241c-0.04-0.097-0.14-0.146-0.302-0.146h-1.456c-0.161,0-0.282,0.05-0.361,0.146
			c-0.079,0.099-0.138,0.179-0.175,0.241l-1.123,2.42l0.108-4.52c0-0.134-0.036-0.228-0.108-0.28c-0.07-0.054-0.15-0.081-0.24-0.081
			h-1.711c-0.106,0-0.195,0.043-0.261,0.127c-0.067,0.086-0.099,0.176-0.099,0.275l-0.187,8.449c-0.01,0.127,0.036,0.242,0.14,0.35
			C50.637,26.257,50.778,26.312,50.957,26.312z"/>
		<path fill="#FFFFFF" d="M63.393,22.487c0.464,0.106,0.867,0.197,1.21,0.273c0.344,0.074,0.626,0.154,0.851,0.234
			c0.222,0.08,0.381,0.168,0.473,0.26c0.095,0.095,0.127,0.208,0.102,0.342c-0.063,0.268-0.263,0.452-0.603,0.555
			c-0.338,0.102-0.744,0.154-1.217,0.154c-0.268,0-0.485-0.031-0.655-0.094c-0.17-0.062-0.305-0.136-0.407-0.221
			c-0.103-0.084-0.179-0.168-0.228-0.248c-0.049-0.079-0.092-0.137-0.127-0.174c-0.054-0.063-0.113-0.107-0.181-0.14
			c-0.066-0.031-0.163-0.048-0.288-0.048h-1.751c-0.071,0-0.143,0.03-0.214,0.088c-0.072,0.059-0.116,0.127-0.135,0.207
			c-0.025,0.339,0.05,0.676,0.229,1.01c0.178,0.335,0.432,0.631,0.762,0.889c0.33,0.26,0.725,0.469,1.184,0.629
			c0.46,0.16,0.956,0.242,1.491,0.242c1.337,0,2.392-0.237,3.162-0.711c0.771-0.471,1.256-1.162,1.451-2.071
			c0.179-0.839,0.071-1.484-0.32-1.939c-0.394-0.455-1.057-0.784-1.993-0.989c-0.473-0.098-0.867-0.186-1.184-0.262
			c-0.317-0.076-0.566-0.152-0.749-0.233c-0.184-0.081-0.305-0.167-0.367-0.262c-0.063-0.093-0.081-0.206-0.054-0.34
			c0.026-0.134,0.085-0.245,0.173-0.335c0.091-0.089,0.201-0.158,0.336-0.207c0.133-0.05,0.279-0.084,0.44-0.107
			c0.161-0.021,0.325-0.033,0.495-0.033c0.231,0,0.424,0.024,0.574,0.074c0.152,0.049,0.272,0.107,0.361,0.174
			s0.156,0.131,0.2,0.193c0.046,0.063,0.081,0.107,0.108,0.134c0.07,0.071,0.14,0.124,0.206,0.161
			c0.067,0.035,0.163,0.053,0.288,0.053h1.751c0.071,0,0.144-0.029,0.216-0.087c0.07-0.058,0.115-0.127,0.133-0.206
			c0.018-0.295-0.054-0.597-0.214-0.904s-0.396-0.59-0.709-0.849c-0.312-0.259-0.688-0.47-1.129-0.636
			c-0.442-0.164-0.93-0.248-1.466-0.248c-0.65,0-1.222,0.072-1.711,0.216c-0.49,0.142-0.909,0.338-1.258,0.587
			c-0.348,0.25-0.626,0.543-0.836,0.876c-0.209,0.335-0.354,0.694-0.435,1.078c-0.169,0.766-0.091,1.394,0.233,1.884
			C61.92,21.947,62.519,22.292,63.393,22.487z"/>
		<path fill="#FFFFFF" d="M29.889,35.899H70.11c0.807,0,1.459-0.654,1.459-1.461c0-0.805-0.652-1.458-1.459-1.458H29.889
			c-0.805,0-1.459,0.653-1.459,1.458C28.43,35.245,29.084,35.899,29.889,35.899z"/>
		<path fill="#FFFFFF" d="M70.11,42.706h-16.22c-0.807,0-1.459,0.654-1.459,1.459c0,0.807,0.652,1.458,1.459,1.458h16.22
			c0.807,0,1.459-0.651,1.459-1.458C71.569,43.36,70.917,42.706,70.11,42.706z"/>
		<path fill="#FFFFFF" d="M70.11,50h-16.22c-0.807,0-1.459,0.653-1.459,1.46c0,0.805,0.652,1.458,1.459,1.458h16.22
			c0.807,0,1.459-0.653,1.459-1.458C71.569,50.653,70.917,50,70.11,50z"/>
		<path fill="#FFFFFF" d="M70.11,57.294h-16.22c-0.807,0-1.459,0.654-1.459,1.459c0,0.807,0.652,1.459,1.459,1.459h16.22
			c0.807,0,1.459-0.652,1.459-1.459C71.569,57.948,70.917,57.294,70.11,57.294z"/>
		<path fill="#FFFFFF" d="M70.11,64.589h-16.22c-0.807,0-1.459,0.652-1.459,1.459c0,0.805,0.652,1.459,1.459,1.459h16.22
			c0.807,0,1.459-0.654,1.459-1.459C71.569,65.241,70.917,64.589,70.11,64.589z"/>
		<path fill="#FFFFFF" d="M29.889,67.507H46.11c0.806,0,1.458-0.654,1.458-1.459c0-0.807-0.653-1.459-1.458-1.459H29.889
			c-0.805,0-1.459,0.652-1.459,1.459C28.43,66.853,29.084,67.507,29.889,67.507z"/>
		<path fill="#FFFFFF" d="M70.11,71.883h-16.22c-0.807,0-1.459,0.654-1.459,1.458c0,0.808,0.652,1.459,1.459,1.459h16.22
			c0.807,0,1.459-0.651,1.459-1.459C71.569,72.537,70.917,71.883,70.11,71.883z"/>
		<path fill="#FFFFFF" d="M29.889,74.8H46.11c0.806,0,1.458-0.651,1.458-1.459c0-0.804-0.653-1.458-1.458-1.458H29.889
			c-0.805,0-1.459,0.654-1.459,1.458C28.43,74.148,29.084,74.8,29.889,74.8z"/>
		<path fill="#FFFFFF" d="M70.11,79.177h-16.22c-0.807,0-1.459,0.653-1.459,1.46c0,0.805,0.652,1.458,1.459,1.458h16.22
			c0.807,0,1.459-0.653,1.459-1.458C71.569,79.83,70.917,79.177,70.11,79.177z"/>
		<path fill="#FFFFFF" d="M29.889,82.095H46.11c0.806,0,1.458-0.653,1.458-1.458c0-0.807-0.653-1.46-1.458-1.46H29.889
			c-0.805,0-1.459,0.653-1.459,1.46C28.43,81.441,29.084,82.095,29.889,82.095z"/>
		<path fill="#FFFFFF" d="M29.889,60.212H46.11c0.806,0,1.458-0.652,1.458-1.459V44.165c0-0.805-0.653-1.459-1.458-1.459H29.889
			c-0.805,0-1.459,0.654-1.459,1.459v14.588C28.43,59.56,29.084,60.212,29.889,60.212z M30.375,44.65h15.249v13.616H30.375V44.65z"
			/>
	</g>
</g>
</svg>
