<?xml version="1.0" encoding="utf-8"?>
<!-- Generator: Adobe Illustrator 16.0.0, SVG Export Plug-In . SVG Version: 6.00 Build 0)  -->
<!DOCTYPE svg PUBLIC "-//W3C//DTD SVG 1.1//EN" "http://www.w3.org/Graphics/SVG/1.1/DTD/svg11.dtd">
<svg version="1.1" id="Warstwa_1" xmlns="http://www.w3.org/2000/svg" xmlns:xlink="http://www.w3.org/1999/xlink" x="0px" y="0px"
	   viewBox="0 0 500 480.769" enable-background="new 0 0 500 480.769" xml:space="preserve">
<g>
	<path fill="#FFFFFF" d="M161.49,210.954c6.896-2.124,10.766-9.439,8.644-16.334c-2.448-7.934-3.693-16.233-3.693-24.634
		c0-46.077,37.484-83.561,83.56-83.561c46.074,0,83.557,37.483,83.557,83.561c0,23.299-9.348,44.916-26.328,60.885
		c-5.261,4.937-5.519,13.208-0.569,18.468c2.571,2.723,6.045,4.109,9.52,4.109c3.206,0,6.422-1.162,8.944-3.549
		c21.96-20.643,34.562-49.778,34.562-79.914c0-60.486-49.207-109.688-109.685-109.688c-60.482,0-109.687,49.201-109.687,109.688
		c0,11.016,1.63,21.885,4.85,32.324C147.286,209.2,154.594,213.078,161.49,210.954z"/>
	<path fill="#FFFFFF" d="M183.931,288.339c-7.191-0.619-13.511,4.723-14.122,11.908c-0.214,2.543-1.755,25.262,10.567,38.672
		c5.733,6.238,13.451,9.539,22.318,9.539c20.639,0,29.115-17.184,35.307-29.742c3.194-6.471,6.499-13.166,10.955-17.787
		c29.472-30.588,41.192-62.679,31.337-85.85c-7.013-16.49-24.006-25.94-46.622-25.94c-18.013,0-38.65,10.09-50.185,24.553
		c-4.5,5.631-3.58,13.86,2.061,18.361c5.634,4.497,13.857,3.572,18.355-2.064c6.591-8.262,19.667-14.727,29.768-14.727
		c8.35,0,19.047,1.732,22.578,10.037c4.461,10.498-1.873,32.355-26.102,57.505c-7.277,7.541-11.69,16.469-15.579,24.359
		c-6.08,12.334-8.302,15.168-11.875,15.168c-2.071,0-2.646-0.619-3.066-1.07c-3.157-3.406-4.219-13.135-3.787-18.805
		C196.456,295.261,191.116,288.946,183.931,288.339z"/>
	<path fill="#FFFFFF" d="M365.737,54.251C334.821,23.336,293.72,6.314,250.001,6.314s-84.818,17.022-115.735,47.938
		c-30.913,30.911-47.935,72.018-47.935,115.734c0,26.758,6.6,53.311,19.099,76.794c3.385,6.361,11.299,8.777,17.668,5.389
		c6.371-3.389,8.785-11.295,5.397-17.664c-10.493-19.723-16.04-42.021-16.04-64.52c0-75.848,61.702-137.549,137.544-137.549
		c75.839,0,137.54,61.701,137.54,137.549c0,51.918-26.688,85.677-52.494,118.314c-22.977,29.066-46.732,59.104-46.732,99.244
		c0,35.225-25.559,60.775-60.783,60.775c-29.911,0-54.249-24.336-54.249-54.24c0-7.922,1.668-15.549,4.951-22.68
		c3.021-6.547,0.156-14.318-6.4-17.342c-6.548-3.016-14.308-0.15-17.328,6.4c-4.877,10.586-7.35,21.887-7.35,33.621
		c0,44.318,36.06,80.375,80.375,80.375c49.547,0,86.906-37.369,86.906-86.91c0-31.051,19.05-55.135,41.102-83.027
		c27.248-34.465,58.13-73.523,58.13-134.531C413.669,126.269,396.647,85.163,365.737,54.251z"/>
</g>
</svg>
