<?xml version="1.0" encoding="utf-8"?>
<!-- Generator: Adobe Illustrator 16.0.0, SVG Export Plug-In . SVG Version: 6.00 Build 0)  -->
<!DOCTYPE svg PUBLIC "-//W3C//DTD SVG 1.1//EN" "http://www.w3.org/Graphics/SVG/1.1/DTD/svg11.dtd">
<svg version="1.1" xmlns="http://www.w3.org/2000/svg" xmlns:xlink="http://www.w3.org/1999/xlink" x="0px" y="0px" width="100px"
	 height="100px" viewBox="0 0 100 100" enable-background="new 0 0 100 100" xml:space="preserve">
<g id="Warstwa_2" display="none">
	<rect display="inline" fill="#2D348B"  />
</g>
<g id="Warstwa_1">
	<path fill="#FFFFFF" d="M78.279,71.123c4.415-5.895,7.032-13.209,7.032-21.124c0-7.915-2.618-15.229-7.033-21.126
		c-0.063-0.098-0.133-0.188-0.213-0.27C71.609,20.153,61.433,14.688,50,14.688c-11.42,0-21.586,5.453-28.045,13.889
		c-0.063,0.067-0.121,0.142-0.173,0.221C17.331,34.706,14.688,42.049,14.688,50c0,8.006,2.683,15.395,7.191,21.327
		c0.034,0.043,0.063,0.09,0.101,0.129C28.441,79.871,38.595,85.313,50,85.313c11.431,0,21.607-5.465,28.064-13.914
		C78.146,71.314,78.216,71.223,78.279,71.123z M18.039,51.652h11.547c0.123,4.842,0.786,9.396,1.89,13.504
		c-2.762,0.824-5.362,1.85-7.784,3.035C20.399,63.447,18.352,57.777,18.039,51.652z M23.691,31.807
		c2.421,1.186,5.021,2.211,7.784,3.037c-1.104,4.105-1.767,8.662-1.89,13.502H18.039C18.352,42.222,20.399,36.551,23.691,31.807z
		 M81.962,48.346H70.415c-0.122-4.827-0.783-9.371-1.88-13.468c2.769-0.821,5.376-1.845,7.805-3.027
		C79.614,36.587,81.649,42.242,81.962,48.346z M67.106,48.346H51.654V37.434c4.695-0.108,9.291-0.676,13.61-1.692
		C66.323,39.592,66.978,43.862,67.106,48.346z M51.654,34.125V18.155c5.208,0.982,9.815,6.543,12.621,14.43
		C60.272,33.506,56.012,34.022,51.654,34.125z M48.347,18.155v15.967c-4.359-0.112-8.615-0.635-12.611-1.565
		C38.541,24.685,43.144,19.137,48.347,18.155z M48.347,37.43v10.916H32.894c0.129-4.494,0.787-8.774,1.849-12.632
		C39.058,36.737,43.65,37.314,48.347,37.43z M32.894,51.652h15.453V62.57c-4.697,0.113-9.289,0.691-13.604,1.715
		C33.681,60.428,33.023,56.148,32.894,51.652z M48.347,65.877v15.967c-5.203-0.98-9.806-6.531-12.611-14.4
		C39.732,66.512,43.988,65.988,48.347,65.877z M51.654,81.844V65.873c4.357,0.105,8.618,0.619,12.62,1.543
		C61.47,75.301,56.862,80.861,51.654,81.844z M51.654,62.566V51.652h15.452c-0.129,4.484-0.783,8.754-1.842,12.605
		C60.945,63.242,56.35,62.674,51.654,62.566z M70.415,51.652h11.547c-0.313,6.105-2.348,11.76-5.622,16.496
		c-2.429-1.186-5.036-2.207-7.805-3.029C69.632,61.023,70.293,56.48,70.415,51.652z M74.274,29.178
		c-2.1,0.98-4.337,1.836-6.702,2.537c-1.666-4.842-3.985-8.898-6.763-11.836C66.074,21.774,70.697,25.013,74.274,29.178z
		 M39.19,19.879c-2.771,2.932-5.086,6.975-6.75,11.802c-2.358-0.704-4.587-1.562-6.678-2.545
		C29.334,24.992,33.945,21.768,39.19,19.879z M25.762,70.863c2.091-0.984,4.32-1.84,6.678-2.545
		c1.665,4.826,3.98,8.869,6.751,11.803C33.945,78.23,29.334,75.008,25.762,70.863z M60.81,80.121
		c2.777-2.939,5.097-6.996,6.763-11.838c2.365,0.701,4.603,1.557,6.702,2.537C70.697,74.986,66.074,78.227,60.81,80.121z"/>
</g>
</svg>
