<?xml version="1.0" encoding="utf-8"?>
<!-- Generator: Adobe Illustrator 16.0.0, SVG Export Plug-In . SVG Version: 6.00 Build 0)  -->
<!DOCTYPE svg PUBLIC "-//W3C//DTD SVG 1.1//EN" "http://www.w3.org/Graphics/SVG/1.1/DTD/svg11.dtd">
<svg version="1.1" xmlns="http://www.w3.org/2000/svg" xmlns:xlink="http://www.w3.org/1999/xlink" x="0px" y="0px" width="230px"
	 height="230px" viewBox="0 0 230 230" enable-background="new 0 0 230 230" xml:space="preserve">
<g id="Warstwa_2" display="none">
	<rect display="inline" fill="#2D348B"  />
</g>
<g id="Warstwa_1">
	<g>
		<path fill="#FFFFFF" d="M112.066,90.96c0.428,0.563,1.098,0.932,1.858,0.932c1.294,0,2.343-1.05,2.343-2.343v-9.038l2.004-4.984
			c0.881-2.191-0.016-4.651-2.004-5.798V45.292h19.829c0.962,0,1.74-0.78,1.74-1.741V15.946c0-0.962-0.778-1.741-1.74-1.741h-19.829
			v-1.475c0-1.293-1.049-2.343-2.343-2.343c-1.293,0-2.341,1.049-2.341,2.343v1.475H91.754c-0.962,0-1.741,0.779-1.741,1.741v27.605
			c0,0.961,0.779,1.741,1.741,1.741h19.829v24.436c-0.876,0.506-1.598,1.293-2.005,2.305c0,0-10.028,24.943-13.371,33.258
			c-2.585,6.431-8.674,6.431-8.674,6.431H59.901c-0.018,0-0.036,0.003-0.053,0.003c-0.09,0.001-0.18,0.007-0.271,0.014
			c-0.068,0.004-0.136,0.008-0.203,0.015c-0.08,0.009-0.159,0.023-0.239,0.037c-0.076,0.012-0.152,0.023-0.228,0.039
			c-0.062,0.015-0.124,0.032-0.187,0.049c-0.089,0.023-0.177,0.045-0.264,0.073c-0.046,0.015-0.09,0.033-0.136,0.049
			c-0.1,0.036-0.198,0.072-0.294,0.114c-0.035,0.015-0.068,0.033-0.103,0.049c-0.103,0.048-0.205,0.097-0.303,0.151
			c-0.033,0.019-0.064,0.04-0.097,0.061c-0.096,0.056-0.19,0.112-0.281,0.176c-0.04,0.026-0.078,0.058-0.116,0.087
			c-0.081,0.059-0.16,0.117-0.236,0.181c-0.05,0.042-0.095,0.087-0.143,0.13c-0.062,0.057-0.125,0.111-0.183,0.171
			c-0.054,0.056-0.105,0.114-0.156,0.173c-0.047,0.053-0.096,0.104-0.141,0.159c-0.053,0.064-0.101,0.133-0.151,0.201
			c-0.039,0.054-0.08,0.106-0.117,0.161c-0.045,0.068-0.084,0.139-0.126,0.209c-0.037,0.062-0.074,0.122-0.108,0.185
			c-0.034,0.064-0.063,0.131-0.095,0.198c-0.035,0.074-0.072,0.147-0.103,0.223c-0.023,0.059-0.044,0.119-0.064,0.179
			c-0.033,0.088-0.064,0.175-0.091,0.266c-0.016,0.056-0.029,0.113-0.044,0.17c-0.024,0.097-0.048,0.19-0.067,0.288
			c-0.003,0.017-0.008,0.032-0.011,0.048l-7.963,44.344c-0.458,2.545,1.237,4.98,3.783,5.438c0.28,0.049,0.559,0.074,0.833,0.074
			c2.224,0,4.198-1.592,4.605-3.857l6.632-36.928v87.938c0,3.881,3.146,7.027,7.026,7.027c3.881,0,7.026-3.146,7.026-7.027v-45.592
			h4.684v45.592c0,3.881,3.146,7.027,7.026,7.027s7.027-3.146,7.027-7.027V131L112.066,90.96z"/>
		<circle fill="#FFFFFF" cx="78.325" cy="95.639" r="12.334"/>
		<path fill="#FFFFFF" d="M196.521,14.205h-19.829v-1.475c0-1.293-1.048-2.343-2.342-2.343s-2.342,1.049-2.342,2.343v1.475h-19.83
			c-0.961,0-1.74,0.779-1.74,1.741v27.605c0,0.961,0.779,1.741,1.74,1.741h19.83v38.932c-3.694,6.092-11.315,18.661-14.378,23.712
			c-2.295,3.785-7.446,3.785-7.446,3.785h-29.39c-0.018,0-0.035,0.003-0.054,0.003c-0.09,0.001-0.18,0.007-0.271,0.014
			c-0.068,0.004-0.136,0.008-0.202,0.015c-0.081,0.009-0.16,0.023-0.239,0.037c-0.076,0.012-0.152,0.023-0.228,0.039
			c-0.063,0.015-0.125,0.032-0.187,0.049c-0.09,0.023-0.178,0.045-0.265,0.073c-0.045,0.015-0.09,0.033-0.136,0.049
			c-0.1,0.036-0.197,0.072-0.294,0.114c-0.034,0.015-0.068,0.033-0.103,0.049c-0.102,0.048-0.204,0.097-0.302,0.151
			c-0.033,0.019-0.064,0.04-0.098,0.061c-0.096,0.056-0.191,0.112-0.281,0.176c-0.04,0.026-0.077,0.058-0.116,0.087
			c-0.08,0.059-0.16,0.117-0.236,0.181c-0.05,0.042-0.096,0.087-0.143,0.13c-0.062,0.057-0.124,0.111-0.183,0.171
			c-0.056,0.056-0.105,0.114-0.157,0.173c-0.047,0.053-0.096,0.104-0.141,0.159c-0.053,0.064-0.101,0.133-0.151,0.201
			c-0.039,0.054-0.08,0.106-0.116,0.161c-0.045,0.068-0.085,0.139-0.127,0.209c-0.037,0.062-0.074,0.122-0.107,0.185
			c-0.035,0.064-0.064,0.131-0.096,0.198c-0.035,0.074-0.071,0.147-0.103,0.223c-0.023,0.059-0.044,0.119-0.065,0.179
			c-0.032,0.088-0.063,0.175-0.09,0.266c-0.018,0.056-0.029,0.113-0.045,0.17c-0.023,0.097-0.048,0.19-0.066,0.288
			c-0.003,0.017-0.008,0.032-0.011,0.048l-0.019,0.146c-0.014,0.091-0.026,0.182-0.034,0.273l-5.605,44.337
			c-0.229,1.273,0.618,2.49,1.891,2.721c0.14,0.023,0.278,0.037,0.417,0.037c1.112,0,2.099-0.797,2.303-1.93l9.128-39.053
			c0.7,2.635,3.088,12.092,3.088,18.438c0,4.744-4.685,5.33-4.685,16.924l4.958,57.457c0,2.59,2.097,4.686,4.685,4.686
			c2.586,0,4.684-2.096,4.684-4.686l-0.256-39.502h6.287l-0.256,39.502c0,2.59,2.098,4.686,4.685,4.686s4.684-2.096,4.684-4.686
			l4.958-57.457c0-11.594-4.684-12.18-4.684-16.924c0-2.123,0.255-4.596,0.649-7.039c0.583-3.615,13.424-28.311,20.515-41.757
			c0.243,0.085,0.501,0.142,0.773,0.142c1.294,0,2.342-1.05,2.342-2.343v-3.685c0.938-1.765,1.492-2.8,1.492-2.8
			c0.623-1.133,0.21-2.557-0.922-3.181c-0.185-0.102-0.376-0.165-0.57-0.213V45.292h19.829c0.963,0,1.742-0.78,1.742-1.741V15.946
			C198.264,14.984,197.484,14.205,196.521,14.205z"/>
		<path fill="#FFFFFF" d="M128.429,90.593c-2.983,6.28-2.661,13.614,0.782,17.837c0.387,0.476,0.951,0.722,1.521,0.722
			c0.435,0,0.873-0.145,1.237-0.441c0.839-0.684,0.964-1.918,0.28-2.758c-1.605-1.97-2.2-5.19-1.773-8.531
			c0.656,5.526,4.535,9.771,9.221,9.771c4.688,0,8.566-4.244,9.223-9.77c0.427,3.34-0.169,6.561-1.774,8.53
			c-0.684,0.84-0.559,2.074,0.281,2.758c0.363,0.297,0.802,0.441,1.236,0.441c0.569,0,1.133-0.246,1.521-0.722
			c3.443-4.223,3.765-11.558,0.782-17.837c-2.482-5.228-6.591-8.226-11.269-8.226S130.911,85.366,128.429,90.593z"/>
	</g>
</g>
</svg>
