<?xml version="1.0" encoding="utf-8"?>
<!-- Generator: Adobe Illustrator 16.0.0, SVG Export Plug-In . SVG Version: 6.00 Build 0)  -->
<!DOCTYPE svg PUBLIC "-//W3C//DTD SVG 1.1//EN" "http://www.w3.org/Graphics/SVG/1.1/DTD/svg11.dtd">
<svg version="1.1" xmlns="http://www.w3.org/2000/svg" xmlns:xlink="http://www.w3.org/1999/xlink" x="0px" y="0px" width="230px"
	 height="230px" viewBox="0 0 230 230" enable-background="new 0 0 230 230" xml:space="preserve">
<g id="Warstwa_2" display="none">
	<rect display="inline" fill="#2D348B" width="230" height="230"/>
</g>
<g id="Warstwa_1">
	<g>
		<path fill="#FFFFFF" d="M173.79,112.1h-59.507l29.334-51.766c1.151-2.03,0.438-4.608-1.589-5.761
			c-10.639-6.042-22.741-9.234-35-9.234c-39.144,0-70.989,31.846-70.989,70.989c0,39.145,31.846,70.99,70.989,70.99
			c39.143,0,70.99-31.846,70.99-70.99C178.019,113.993,176.126,112.1,173.79,112.1z M107.029,178.863
			c-34.48,0-62.535-28.055-62.535-62.535c0-34.481,28.054-62.534,62.535-62.534c9.384,0,18.662,2.123,27.08,6.171l-30.757,54.277
			c-0.742,1.311-0.731,2.914,0.024,4.214c0.758,1.299,2.148,2.098,3.653,2.098h62.393
			C167.24,153.072,140.089,178.863,107.029,178.863z"/>
		<path fill="#FFFFFF" d="M165.968,41.234c-0.977-0.555-2.131-0.699-3.213-0.398c-1.08,0.298-2,1.014-2.552,1.99l-32.91,58.079
			c-0.742,1.308-0.732,2.913,0.025,4.212c0.756,1.301,2.148,2.1,3.652,2.1h66.762c2.335,0,4.228-1.893,4.228-4.229
			C201.96,77.503,188.168,53.84,165.968,41.234z M138.225,98.761L165.402,50.8c16.259,10.752,26.635,28.549,27.958,47.961H138.225z"
			/>
	</g>
</g>
</svg>
