<?xml version="1.0" encoding="utf-8"?>
<!-- Generator: Adobe Illustrator 16.0.0, SVG Export Plug-In . SVG Version: 6.00 Build 0)  -->
<!DOCTYPE svg PUBLIC "-//W3C//DTD SVG 1.1//EN" "http://www.w3.org/Graphics/SVG/1.1/DTD/svg11.dtd">
<svg version="1.1" xmlns="http://www.w3.org/2000/svg" xmlns:xlink="http://www.w3.org/1999/xlink" x="0px" y="0px"
	  viewBox="0 0 230 230" enable-background="new 0 0 230 230" xml:space="preserve">
<g id="Warstwa_2" display="none">
	<rect display="inline" fill="#2D348B"  />
</g>
<g id="Warstwa_1">
	<g>
		<path fill="#FFFFFF" d="M178.549,18.638H51.451c-2.907,0-5.265,2.357-5.265,5.265v182.196c0,2.907,2.357,5.264,5.265,5.264
			h127.098c2.908,0,5.265-2.356,5.265-5.264V23.902C183.813,20.995,181.457,18.638,178.549,18.638z M173.285,200.834H56.715V29.167
			h116.57V200.834z"/>
		<path fill="#FFFFFF" d="M74.45,63.708h3.793c0.211,0,0.409-0.077,0.593-0.231c0.183-0.154,0.294-0.338,0.333-0.55l2.084-9.787
			l5.067,9.845c0.097,0.154,0.223,0.314,0.377,0.478c0.155,0.165,0.396,0.246,0.724,0.246h2.433c0.211,0,0.41-0.077,0.593-0.231
			c0.183-0.154,0.294-0.338,0.333-0.55l3.996-18.704c0.039-0.213-0.005-0.396-0.13-0.551s-0.294-0.232-0.507-0.232h-3.793
			c-0.212,0-0.411,0.078-0.594,0.232s-0.294,0.338-0.333,0.551l-2.084,9.785l-5.125-9.902c-0.039-0.096-0.14-0.23-0.304-0.404
			c-0.165-0.174-0.41-0.262-0.737-0.262h-2.434c-0.212,0-0.41,0.078-0.593,0.232c-0.183,0.154-0.294,0.338-0.333,0.551
			l-3.996,18.704c-0.039,0.212,0.005,0.396,0.131,0.55C74.068,63.631,74.237,63.708,74.45,63.708z"/>
		<path fill="#FFFFFF" d="M95.47,63.708h13.725c0.211,0,0.409-0.077,0.593-0.231c0.183-0.154,0.294-0.338,0.333-0.55l0.666-3.069
			c0.039-0.213,0-0.396-0.116-0.551c-0.116-0.154-0.28-0.23-0.493-0.23h-9.149l0.666-3.244h8.281c0.212,0,0.415-0.076,0.607-0.231
			c0.193-0.153,0.309-0.337,0.348-0.55l0.666-3.069c0.039-0.212-0.005-0.396-0.13-0.55c-0.126-0.154-0.294-0.231-0.507-0.231h-8.281
			l0.666-3.128h8.917c0.213,0,0.415-0.076,0.608-0.23c0.192-0.154,0.309-0.338,0.348-0.551l0.665-3.068
			c0.039-0.213-0.004-0.396-0.129-0.551c-0.126-0.154-0.295-0.232-0.507-0.232H99.755c-0.213,0-0.411,0.078-0.593,0.232
			c-0.184,0.154-0.294,0.338-0.333,0.551l-3.996,18.704c-0.039,0.212,0.005,0.396,0.13,0.55S95.258,63.708,95.47,63.708z"/>
		<path fill="#FFFFFF" d="M117.07,63.708h2.664c0.386,0,0.729-0.115,1.027-0.347c0.3-0.232,0.517-0.482,0.651-0.754l3.388-6.543
			l0.725,6.543c0.019,0.271,0.13,0.521,0.332,0.754c0.203,0.231,0.498,0.347,0.884,0.347h2.606c0.385,0,0.737-0.115,1.057-0.347
			c0.318-0.232,0.525-0.482,0.622-0.754l7.384-18.299c0.096-0.212,0.115-0.41,0.058-0.594c-0.058-0.183-0.222-0.275-0.493-0.275
			h-3.85c-0.193,0-0.387,0.059-0.58,0.175c-0.193,0.115-0.348,0.317-0.463,0.608l-3.938,9.785l-0.318-5.24
			c-0.021-0.135-0.073-0.309-0.16-0.521c-0.087-0.212-0.304-0.318-0.651-0.318h-3.155c-0.348,0-0.608,0.106-0.782,0.318
			c-0.174,0.213-0.3,0.387-0.376,0.521l-2.433,5.24l0.231-9.785c0-0.291-0.077-0.493-0.231-0.608
			c-0.154-0.116-0.328-0.175-0.521-0.175h-3.707c-0.231,0-0.42,0.093-0.563,0.275c-0.146,0.184-0.218,0.382-0.218,0.594
			l-0.405,18.299c-0.021,0.271,0.081,0.521,0.304,0.754C116.38,63.593,116.685,63.708,117.07,63.708z"/>
		<path fill="#FFFFFF" d="M143.997,55.427c1.004,0.231,1.878,0.43,2.621,0.594c0.742,0.164,1.356,0.333,1.839,0.507
			s0.825,0.362,1.027,0.564c0.202,0.203,0.275,0.449,0.217,0.738c-0.135,0.58-0.568,0.98-1.303,1.202
			c-0.733,0.222-1.611,0.333-2.635,0.333c-0.579,0-1.053-0.067-1.419-0.202c-0.366-0.136-0.661-0.294-0.883-0.479
			c-0.223-0.183-0.386-0.362-0.492-0.535c-0.106-0.174-0.198-0.3-0.274-0.377c-0.116-0.136-0.247-0.235-0.392-0.304
			c-0.145-0.067-0.353-0.102-0.622-0.102h-3.793c-0.155,0-0.31,0.063-0.464,0.188c-0.154,0.127-0.251,0.275-0.289,0.449
			c-0.058,0.734,0.106,1.463,0.492,2.187s0.936,1.366,1.65,1.925c0.714,0.561,1.567,1.014,2.563,1.361
			c0.994,0.348,2.069,0.521,3.229,0.521c2.895,0,5.178-0.512,6.848-1.535c1.669-1.022,2.717-2.52,3.142-4.487
			c0.386-1.814,0.154-3.214-0.695-4.198c-0.85-0.985-2.286-1.699-4.314-2.143c-1.022-0.213-1.877-0.4-2.562-0.565
			c-0.687-0.163-1.227-0.333-1.622-0.507s-0.661-0.361-0.796-0.564c-0.136-0.203-0.174-0.448-0.116-0.738
			c0.059-0.289,0.183-0.531,0.376-0.724s0.435-0.343,0.725-0.448c0.289-0.106,0.608-0.184,0.955-0.232
			c0.348-0.047,0.704-0.072,1.072-0.072c0.501,0,0.916,0.054,1.244,0.16c0.328,0.105,0.589,0.23,0.782,0.375
			c0.193,0.146,0.337,0.285,0.435,0.421c0.096,0.136,0.173,0.231,0.231,0.289c0.153,0.155,0.304,0.271,0.448,0.348
			c0.146,0.077,0.353,0.116,0.623,0.116h3.793c0.154,0,0.308-0.063,0.463-0.188c0.154-0.126,0.251-0.275,0.29-0.448
			c0.038-0.638-0.116-1.289-0.464-1.955s-0.858-1.279-1.534-1.839s-1.491-1.018-2.447-1.375c-0.955-0.357-2.012-0.536-3.17-0.536
			c-1.409,0-2.645,0.155-3.706,0.464c-1.062,0.31-1.969,0.733-2.722,1.274c-0.753,0.54-1.356,1.172-1.81,1.896
			c-0.454,0.724-0.768,1.5-0.941,2.33c-0.367,1.66-0.198,3.021,0.507,4.083S142.105,55.003,143.997,55.427z"/>
		<path fill="#FFFFFF" d="M71.456,84.466h87.088c1.744,0,3.159-1.414,3.159-3.159c0-1.744-1.415-3.158-3.159-3.158H71.456
			c-1.745,0-3.159,1.414-3.159,3.158C68.296,83.052,69.711,84.466,71.456,84.466z"/>
		<path fill="#FFFFFF" d="M158.544,99.207h-35.121c-1.744,0-3.159,1.414-3.159,3.158s1.415,3.158,3.159,3.158h35.121
			c1.744,0,3.159-1.414,3.159-3.158S160.288,99.207,158.544,99.207z"/>
		<path fill="#FFFFFF" d="M158.544,115h-35.121c-1.744,0-3.159,1.413-3.159,3.158c0,1.744,1.415,3.159,3.159,3.159h35.121
			c1.744,0,3.159-1.415,3.159-3.159C161.703,116.413,160.288,115,158.544,115z"/>
		<path fill="#FFFFFF" d="M158.544,130.793h-35.121c-1.744,0-3.159,1.415-3.159,3.159s1.415,3.158,3.159,3.158h35.121
			c1.744,0,3.159-1.414,3.159-3.158S160.288,130.793,158.544,130.793z"/>
		<path fill="#FFFFFF" d="M158.544,146.586h-35.121c-1.744,0-3.159,1.415-3.159,3.159c0,1.745,1.415,3.159,3.159,3.159h35.121
			c1.744,0,3.159-1.414,3.159-3.159C161.703,148.001,160.288,146.586,158.544,146.586z"/>
		<path fill="#FFFFFF" d="M71.456,152.904h35.121c1.745,0,3.159-1.414,3.159-3.159c0-1.744-1.415-3.159-3.159-3.159H71.456
			c-1.745,0-3.159,1.415-3.159,3.159C68.296,151.49,69.711,152.904,71.456,152.904z"/>
		<path fill="#FFFFFF" d="M158.544,162.38h-35.121c-1.744,0-3.159,1.414-3.159,3.158c0,1.745,1.415,3.159,3.159,3.159h35.121
			c1.744,0,3.159-1.414,3.159-3.159C161.703,163.794,160.288,162.38,158.544,162.38z"/>
		<path fill="#FFFFFF" d="M71.456,168.697h35.121c1.744,0,3.158-1.414,3.158-3.159c0-1.744-1.414-3.158-3.158-3.158H71.456
			c-1.745,0-3.159,1.414-3.159,3.158C68.296,167.283,69.711,168.697,71.456,168.697z"/>
		<path fill="#FFFFFF" d="M158.544,178.173h-35.121c-1.744,0-3.159,1.415-3.159,3.159s1.415,3.158,3.159,3.158h35.121
			c1.744,0,3.159-1.414,3.159-3.158S160.288,178.173,158.544,178.173z"/>
		<path fill="#FFFFFF" d="M71.456,184.49h35.121c1.744,0,3.158-1.414,3.158-3.158s-1.414-3.159-3.158-3.159H71.456
			c-1.745,0-3.159,1.415-3.159,3.159S69.711,184.49,71.456,184.49z"/>
		<path fill="#FFFFFF" d="M71.456,137.11h35.121c1.745,0,3.159-1.414,3.159-3.158v-31.587c0-1.744-1.415-3.158-3.159-3.158H71.456
			c-1.745,0-3.159,1.414-3.159,3.158v31.587C68.296,135.696,69.711,137.11,71.456,137.11z M72.509,103.418h33.015v29.481H72.509
			V103.418z"/>
	</g>
</g>
</svg>
