<?xml version="1.0" encoding="utf-8"?>
<!-- Generator: Adobe Illustrator 16.0.0, SVG Export Plug-In . SVG Version: 6.00 Build 0)  -->
<!DOCTYPE svg PUBLIC "-//W3C//DTD SVG 1.1//EN" "http://www.w3.org/Graphics/SVG/1.1/DTD/svg11.dtd">
<svg version="1.1" id="Warstwa_1" xmlns="http://www.w3.org/2000/svg" xmlns:xlink="http://www.w3.org/1999/xlink" x="0px" y="0px"
	 width="95.213px" height="60px" viewBox="0 0 95.213 60" enable-background="new 0 0 95.213 60" xml:space="preserve">
<path fill="#FFFFFF" d="M95.213,43.417C95.213,52.575,87.787,60,78.628,60h-61.8C7.669,60,0.244,52.575,0.244,43.417V16.584
	C0.244,7.425,7.669,0,16.828,0h61.8c9.159,0,16.585,7.425,16.585,16.584V43.417z"/>
<g>
	<path fill="#EA1B47" d="M69.891,30.82c-0.408-5.673-2.546-9.936-6.401-12.802c-1.556-1.154-3.348-2.071-5.366-2.76
		c0.088,0.548,0.149,1.115,0.178,1.705c0.057,1.235,0.085,2.515,0.085,3.838c0,1.12-0.022,2.199-0.063,3.199h2.127
		c0.103,0,0.277,0.041,0.351,0.117C60.874,24.189,61,24.282,61,24.383v1.672c0,0.102-0.126,0.474-0.199,0.548
		C60.728,26.679,60.553,27,60.45,27h-2.336c-0.005,0-0.009-0.286-0.013-0.286c-0.045,0.262-0.096,0.285-0.154,0.537
		C57.979,27.244,58.012,27,58.045,27h2.475c0.101,0,0.241,0.132,0.317,0.205C60.91,27.278,61,27.46,61,27.562V34
		c0,0.103-0.09,0.002-0.163,0.078C60.761,34.15,60.62,34,60.52,34h-2.475c-0.1,0-0.023,0.15-0.098,0.078
		C57.873,34.002,58,34.103,58,34v-5.811c0,0.506-0.231,0.99-0.46,1.449C57.341,30.042,57,30.426,57,30.794v2.654
		c0,0.101-0.322-0.223-0.398-0.147C56.527,33.375,56.154,33,56.053,33H53.58c-0.056,0-0.107,0.399-0.154,0.377
		c-0.717,0.478-1.501,1.089-2.358,1.424l1.09,3.129l1.173-3.101c0.038-0.082,0.09-0.407,0.158-0.478
		C53.558,34.283,53.662,34,53.801,34h2.308c0.082,0,0.156,0.303,0.22,0.365c0.064,0.059,0.098,0.263,0.098,0.336
		c0,0.056-0.005,0.173-0.013,0.209l-3.897,9.085c-0.037,0.082-0.093-0.004-0.167,0.064C52.275,44.129,52.17,44,52.031,44h-2.267
		c-0.083,0-0.152,0.153-0.214,0.097c-0.059-0.055-0.09-0.034-0.09-0.114c0-0.021-0.002,0.003-0.005-0.02
		c-0.007-0.022,0.001-0.025,0.02-0.053l1.104-2.642l-2.535-5.459C47.148,35.987,46,36.113,45,36.175V38h2.184
		c0.101,0-0.09-0.374-0.016-0.301C47.241,37.772,47,37.447,47,37.549v1.672c0,0.102,0.241,0.393,0.168,0.466
		C47.094,39.762,47.285,40,47.184,40H45v1.114c0,0.212,0.268,0.476,0.36,0.603C45.451,41.84,45.825,42,46.037,42h1.257
		c0.101,0-0.146-0.063-0.072,0.012C47.296,42.088,47,42.077,47,42.179v1.809c0,0.103,0.296,0.007,0.222,0.082
		C47.149,44.145,47.396,44,47.294,44h-1.563c-0.496,0-0.957,0.133-1.38,0.036c-0.424-0.097-0.79-0.171-1.099-0.402
		c-0.309-0.229-0.688-0.488-0.858-0.866C42.224,42.389,42,41.963,42,41.39V40h-0.813c-0.102,0,0.405-0.238,0.33-0.313
		C41.443,39.613,42,39.322,42,39.221v-1.672c0-0.102-0.557,0.224-0.483,0.15C41.591,37.626,41.084,38,41.187,38H42v-1.827
		c0-0.081-1-0.265-3-0.548v0.449c0,0.101-0.228-0.035-0.301,0.041C38.626,36.188,38.348,36,38.247,36h-2.557
		c-0.101,0-0.346,0.188-0.419,0.115c-0.075-0.076-0.27,0.06-0.27-0.041v-1.693c-1-0.324-1.013-0.688-1.537-1.097
		c-1.252-0.979-2.16-2.195-2.876-3.646c-0.724-1.456-1.088-3.147-1.173-5.077c-0.058-1.178-0.064-2.431-0.064-3.755
		c0-0.167,0.014-0.33,0.015-0.495c-2.31,2.69-3.616,6.189-3.924,10.509c-0.155,2.399-0.153,4.804,0.002,7.201
		c0.769,11.395,8.168,17.09,22.223,17.09c14.047,0,21.462-5.695,22.225-17.09C70.047,35.624,70.047,33.219,69.891,30.82z
		 M39.377,47.57c0.018,0.294,0.061,0.513,0.13,0.655c0.069,0.144,0.21,0.214,0.422,0.214c0.165,0,0.279-0.037,0.339-0.11
		c0.059-0.073,0.117-0.05,0.172-0.177C40.514,47.967,40.648,48,40.842,48h2.694c0.102,0,0.191-0.09,0.27-0.016
		c0.078,0.076,0.112,0.1,0.104,0.2c-0.01,0.102-0.045,0.206-0.104,0.376c-0.061,0.171-0.154,0.341-0.283,0.538
		c-0.13,0.198-0.297,0.391-0.504,0.594c-0.208,0.202-0.461,0.384-0.76,0.547c-0.3,0.166-0.647,0.302-1.043,0.407
		c-0.396,0.106-0.848,0.157-1.355,0.157c-0.524,0-1.018-0.068-1.479-0.209c-0.459-0.137-0.862-0.34-1.208-0.607
		c-0.345-0.266-0.622-0.596-0.829-0.988c-0.208-0.389-0.325-0.845-0.352-1.36c-0.01-0.147-0.015-0.332-0.015-0.552
		c0-0.222,0.005-0.41,0.015-0.567c0.027-0.506,0.144-0.958,0.352-1.354c0.207-0.396,0.484-0.729,0.829-1.003
		c0.346-0.271,0.749-0.475,1.208-0.614c0.461-0.138,0.955-0.206,1.479-0.206c0.729,0,1.349,0.105,1.859,0.317
		c0.512,0.212,0.926,0.464,1.244,0.753c0.318,0.291,0.553,0.585,0.706,0.884c0.152,0.301,0.232,0.542,0.242,0.726
		c0.008,0.103-0.026-0.008-0.104,0.066C43.727,46.161,43.637,46,43.536,46h-2.694c-0.103,0-0.183,0.173-0.242,0.121
		c-0.061-0.05-0.114-0.018-0.159-0.102c-0.065-0.128-0.13-0.18-0.201-0.254c-0.069-0.072-0.173-0.086-0.311-0.086
		c-0.212,0-0.354,0.091-0.428,0.247c-0.075,0.157-0.116,0.379-0.124,0.654C39.367,46.979,39.367,47.313,39.377,47.57z M52,49.117
		c0,0.102,0.03-0.057-0.043,0.018C51.883,49.209,51.863,49,51.763,49H47v0.561c0,0.276,0.361,0.484,0.439,0.628
		s0.378,0.215,0.581,0.215c0.086,0,0.234-0.023,0.29-0.069c0.053-0.046,0.158-0.105,0.232-0.18c0.083-0.083,0.173-0.116,0.229-0.14
		C48.825,49.992,48.928,50,49.04,50h2.611c0.091,0,0.167,0.008,0.228,0.063c0.06,0.055,0.084,0.118,0.075,0.212
		c-0.009,0.174-0.088,0.379-0.241,0.623c-0.152,0.245-0.38,0.476-0.685,0.703c-0.304,0.225-0.69,0.416-1.159,0.571
		c-0.47,0.157-1.024,0.234-1.659,0.234c-0.608,0-1.154-0.072-1.637-0.215c-0.483-0.143-0.899-0.366-1.244-0.67
		c-0.344-0.304-0.61-0.69-0.795-1.161c-0.183-0.47-0.276-1.027-0.276-1.672c0-0.608,0.093-1.144,0.276-1.609
		c0.185-0.465,0.451-0.857,0.795-1.175c0.345-0.318,0.761-0.557,1.244-0.719c0.483-0.162,1.025-0.241,1.622-0.241
		c0.673,0,1.26,0.102,1.756,0.303c0.499,0.203,0.908,0.476,1.23,0.815c0.322,0.342,0.494,0.739,0.651,1.194
		C51.989,47.715,52,48.198,52,48.703V49.117z"/>
	<path fill="#EA1B47" d="M48.194,46.879c-0.183,0-0.321,0.27-0.413,0.409c-0.091,0.139-0.138,0.371-0.138,0.878h1.106
		c0-0.507-0.047-0.739-0.14-0.878C48.52,47.148,48.381,46.879,48.194,46.879z"/>
	<path fill="#00B58D" d="M31.84,18.018c2.733-2.024,6.178-3.333,10.331-3.925c0.384-0.081,0.791-0.13,1.221-0.151
		c1.354-0.144,2.778-0.214,4.274-0.214c3.989,0,7.473,0.513,10.457,1.531c-0.039-0.241-0.082-0.479-0.133-0.711
		c-0.205-0.944-0.503-1.824-0.9-2.637c-0.718-1.469-1.703-2.706-2.958-3.712c-1.252-1.011-2.749-1.771-4.489-2.292
		C47.898,5.39,45.98,5.13,43.876,5.13c-2.13,0-4.059,0.26-5.786,0.776c-1.727,0.521-3.217,1.281-4.469,2.292
		c-1.253,1.006-2.238,2.244-2.956,3.712c-0.724,1.469-1.127,3.152-1.213,5.053c-0.049,1.047-0.07,2.137-0.077,3.247
		c-0.001,0.035-0.001,0.067-0.001,0.101C30.099,19.468,30.919,18.702,31.84,18.018z"/>
	<path fill="#2E338A" d="M42.634,18.502c-0.033,0.918-0.033,1.847,0,2.785c0.021,0.463,0.14,0.803,0.355,1.019
		c0.215,0.216,0.505,0.323,0.871,0.323s0.655-0.106,0.87-0.323c0.216-0.216,0.335-0.556,0.356-1.019
		c0.033-0.938,0.033-1.867,0-2.785c-0.021-0.464-0.144-0.803-0.365-1.018c-0.22-0.216-0.508-0.324-0.861-0.324
		c-0.354,0-0.641,0.108-0.861,0.324C42.777,17.699,42.656,18.039,42.634,18.502z"/>
	<path fill="#2E338A" d="M38.799,31.307c0.101,0.12,0.271,0.18,0.511,0.18c0.258,0,0.431-0.072,0.519-0.214
		c0.087-0.143,0.145-0.338,0.172-0.587c0.02-0.139,0.028-0.29,0.028-0.457c0-0.165-0.008-0.317-0.028-0.455
		c-0.027-0.249-0.085-0.445-0.172-0.588c-0.088-0.144-0.261-0.215-0.519-0.215s-0.433,0.071-0.524,0.215
		c-0.092,0.143-0.148,0.339-0.167,0.588c-0.019,0.211-0.027,0.381-0.027,0.51c0,0.129,0.008,0.3,0.027,0.512
		C38.638,31.017,38.697,31.188,38.799,31.307z"/>
	<path fill="#2E338A" d="M47.566,30.809c0.009,0.167,0.023,0.306,0.041,0.421s0.048,0.213,0.09,0.289
		c0.042,0.079,0.102,0.137,0.18,0.175c0.078,0.036,0.181,0.054,0.31,0.054c0.258,0,0.421-0.076,0.491-0.229
		c0.068-0.15,0.112-0.388,0.131-0.71c0-0.064,0.002-0.149,0.009-0.255c0.002-0.105,0.005-0.215,0.005-0.326
		c0-0.11-0.003-0.215-0.005-0.317c-0.007-0.102-0.009-0.189-0.009-0.263c-0.019-0.304-0.063-0.536-0.131-0.697
		c-0.07-0.162-0.233-0.242-0.491-0.242c-0.129,0-0.232,0.02-0.31,0.063c-0.079,0.041-0.139,0.101-0.18,0.18
		c-0.042,0.078-0.072,0.177-0.09,0.297s-0.032,0.253-0.041,0.4c0,0.073-0.004,0.161-0.007,0.263
		c-0.005,0.102-0.006,0.207-0.006,0.317c0,0.111,0.001,0.221,0.006,0.326C47.563,30.66,47.566,30.745,47.566,30.809z"/>
	<path fill="#2E338A" d="M29.453,24.561c0.085,1.93,0.489,3.621,1.213,5.077c0.717,1.451,1.545,2.668,2.797,3.646
		C33.987,33.693,34,34.057,35,34.381V27.01c0-0.103,0.195-0.008,0.27-0.081C35.343,26.854,35.588,27,35.689,27h2.349
		c0.102,0-0.017-0.146,0.057-0.071C38.17,27.002,38,26.907,38,27.01v0.414c1-0.266,0.692-0.487,1.029-0.663
		c0.336-0.175,0.846-0.263,1.326-0.263c0.396,0,0.819,0.058,1.171,0.172c0.35,0.117,0.678,0.303,0.937,0.56
		c0.259,0.259,0.479,0.587,0.635,0.988c0.156,0.401,0.255,0.892,0.283,1.472c0.009,0.212,0.017,0.394,0.017,0.546
		c0,0.152-0.002,0.334-0.011,0.546c-0.019,0.543-0.105,1.014-0.262,1.408c-0.156,0.396-0.366,0.727-0.628,0.988
		c-0.263,0.264-0.568,0.46-0.919,0.587c-0.35,0.13-0.723,0.194-1.119,0.194c-0.386,0-0.547-0.064-0.859-0.194
		C39.284,33.639,39,33.426,39,33.132v2.493c2,0.283,3,0.467,3,0.548v-1.25c0-0.101,0.176-0.462,0.25-0.536
		C42.323,34.313,42.549,34,42.65,34h2.419c0.102,0-0.032,0.313,0.041,0.387c0.075,0.074-0.11,0.436-0.11,0.536v1.252
		c1-0.062,2.148-0.183,3.045-0.36l-0.241-0.836c-0.01-0.028,0.041-0.061,0.041-0.097c0.018-0.093,0.084-0.446,0.146-0.511
		C48.05,34.307,48.153,34,48.246,34h2.334c0.139,0,0.24,0.313,0.306,0.387c0.063,0.074,0.109,0.282,0.137,0.356l0.045,0.196
		c0.857-0.336,1.642-0.709,2.358-1.185c-0.039-0.02-0.18-0.027-0.212-0.06C53.139,33.621,53,33.549,53,33.448v-9.065
		c0-0.101,0.139-0.193,0.214-0.266C53.285,24.041,53.477,24,53.58,24h2.473c0.102,0,0.475,0.041,0.549,0.117
		C56.678,24.189,57,24.282,57,24.383v6.411c0-0.368,0.341-0.752,0.54-1.156c0.229-0.459,0.46-0.943,0.46-1.449v-0.627
		c0-0.102-0.127-0.188-0.053-0.263c0.049-0.048,0.021-0.079,0.083-0.096c0.058-0.252,0.067-0.512,0.111-0.775
		c-0.095-0.002-0.07-0.04-0.141-0.109C57.928,26.244,58,26.157,58,26.055v-1.672c0-0.101-0.092-0.193-0.02-0.266
		C58.055,24.041,58.014,24,58.114,24h0.209c0.04-1,0.063-2.079,0.063-3.199c0-1.323-0.028-2.605-0.085-3.841
		c-0.028-0.59-0.09-1.156-0.178-1.704c-2.984-1.018-6.468-1.53-10.457-1.53c-1.496,0-2.92,0.072-4.274,0.215
		c0.153-0.007,0.309-0.012,0.468-0.012c0.807,0,1.543,0.099,2.212,0.297c0.668,0.2,1.242,0.493,1.723,0.879
		c0.482,0.386,0.859,0.862,1.134,1.426c0.278,0.563,0.432,1.209,0.466,1.938c0.021,0.475,0.033,0.967,0.033,1.474
		c0,0.509-0.013,0.99-0.033,1.442c-0.034,0.74-0.188,1.39-0.466,1.947c-0.275,0.558-0.652,1.024-1.134,1.399
		c-0.48,0.376-1.054,0.658-1.723,0.846c-0.669,0.188-1.405,0.282-2.212,0.282c-0.817,0-1.558-0.094-2.221-0.282
		c-0.663-0.188-1.234-0.469-1.715-0.846c-0.481-0.375-0.859-0.842-1.134-1.399c-0.278-0.558-0.434-1.208-0.465-1.947
		c-0.022-0.453-0.033-0.934-0.033-1.442c0-0.507,0.011-1,0.033-1.474c0.031-0.729,0.187-1.375,0.465-1.938
		c0.275-0.564,0.653-1.039,1.134-1.425c0.48-0.388,1.052-0.679,1.715-0.879c0.172-0.052,0.349-0.096,0.531-0.135
		c-4.153,0.592-7.597,1.901-10.331,3.925c-0.921,0.684-1.741,1.451-2.466,2.293c-0.002,0.165-0.004,0.327-0.004,0.495
		C29.37,22.13,29.396,23.383,29.453,24.561z M44.181,29.579c0.073-1.022,0.457-1.791,1.153-2.307
		c0.696-0.517,1.648-0.774,2.854-0.774c1.206,0,2.157,0.258,2.854,0.774c0.695,0.516,1.08,1.285,1.154,2.307
		c0.027,0.434,0.027,0.867,0,1.299c-0.139,2.055-1.475,3.082-4.008,3.082c-2.534,0-3.868-1.026-4.006-3.082
		C44.153,30.446,44.153,30.013,44.181,29.579z"/>
	<path fill="#FFFFFF" d="M48.188,33.96c2.533,0,3.869-1.026,4.008-3.082c0.027-0.433,0.027-0.866,0-1.299
		c-0.074-1.022-0.459-1.791-1.154-2.307c-0.696-0.517-1.647-0.774-2.854-0.774c-1.206,0-2.157,0.258-2.854,0.774
		c-0.696,0.516-1.08,1.285-1.153,2.307c-0.028,0.434-0.028,0.867,0,1.299C44.32,32.934,45.653,33.96,48.188,33.96z M47.559,29.911
		c0.003-0.102,0.007-0.189,0.007-0.263c0.009-0.147,0.023-0.281,0.041-0.4s0.048-0.219,0.09-0.297
		c0.042-0.079,0.102-0.139,0.18-0.18c0.078-0.042,0.181-0.063,0.31-0.063c0.258,0,0.421,0.08,0.491,0.242
		c0.068,0.161,0.112,0.393,0.131,0.697c0,0.073,0.002,0.161,0.009,0.263c0.002,0.102,0.005,0.207,0.005,0.317
		c0,0.111-0.003,0.221-0.005,0.326c-0.007,0.105-0.009,0.19-0.009,0.255c-0.019,0.323-0.063,0.56-0.131,0.71
		c-0.07,0.152-0.233,0.229-0.491,0.229c-0.129,0-0.232-0.018-0.31-0.054c-0.079-0.038-0.139-0.096-0.18-0.175
		c-0.042-0.076-0.072-0.174-0.09-0.289s-0.032-0.255-0.041-0.421c0-0.064-0.004-0.149-0.007-0.255
		c-0.005-0.105-0.006-0.215-0.006-0.326C47.553,30.118,47.554,30.013,47.559,29.911z"/>
	<path fill="#FFFFFF" d="M39.598,33.766c0.313,0.13,0.568,0.194,0.955,0.194c0.395,0,0.721-0.064,1.071-0.194
		c0.351-0.127,0.634-0.323,0.896-0.587c0.263-0.262,0.459-0.593,0.615-0.988c0.157-0.395,0.24-0.865,0.258-1.408
		c0.009-0.212,0.01-0.394,0.01-0.546c0-0.152-0.006-0.334-0.015-0.546c-0.028-0.58-0.121-1.071-0.278-1.472
		c-0.156-0.401-0.363-0.729-0.621-0.988c-0.258-0.257-0.563-0.443-0.913-0.56c-0.35-0.114-0.723-0.172-1.119-0.172
		c-0.479,0-1.092,0.087-1.428,0.263C38.692,26.936,39,27.157,38,27.423V27.01c0-0.103,0.17-0.008,0.096-0.081
		C38.021,26.854,38.141,27,38.039,27h-2.349c-0.101,0-0.346-0.146-0.419-0.071C35.195,27.002,35,26.907,35,27.01v7.371v1.693
		c0,0.101,0.195-0.035,0.27,0.041C35.343,36.188,35.588,36,35.689,36h2.557c0.102,0,0.379,0.188,0.453,0.115
		C38.772,36.039,39,36.175,39,36.074v-0.449v-2.493C39,33.426,39.284,33.639,39.598,33.766z M38.619,29.773
		c0.019-0.249,0.075-0.445,0.167-0.588c0.091-0.144,0.266-0.215,0.524-0.215s0.431,0.071,0.519,0.215
		c0.087,0.143,0.145,0.339,0.172,0.588c0.02,0.138,0.028,0.29,0.028,0.455c0,0.167-0.008,0.318-0.028,0.457
		c-0.027,0.249-0.085,0.445-0.172,0.587c-0.088,0.142-0.261,0.214-0.519,0.214c-0.239,0-0.41-0.06-0.511-0.18
		c-0.102-0.119-0.162-0.29-0.181-0.511c-0.019-0.211-0.027-0.382-0.027-0.512C38.592,30.155,38.6,29.985,38.619,29.773z"/>
	<path fill="#FFFFFF" d="M56.602,24.117C56.527,24.041,56.154,24,56.053,24H53.58c-0.104,0-0.295,0.041-0.366,0.117
		C53.139,24.189,53,24.282,53,24.383v9.065c0,0.101,0.139,0.19,0.214,0.264c0.032,0.032,0.122-0.354,0.161-0.335
		C53.421,33.399,53.524,33,53.58,33h2.473c0.102,0,0.475,0.375,0.549,0.301C56.678,33.226,57,33.549,57,33.448v-2.654v-6.411
		C57,24.282,56.678,24.189,56.602,24.117z"/>
	<path fill="#FFFFFF" d="M58,27.562v0.627V34c0,0.103-0.127,0.002-0.053,0.078C58.021,34.15,57.945,34,58.045,34h2.475
		c0.101,0,0.241,0.15,0.317,0.078C60.91,34.002,61,34.103,61,34v-6.438c0-0.102-0.09-0.284-0.163-0.357
		C60.761,27.132,60.62,27,60.52,27h-2.475c-0.033,0-0.066,0.1-0.098,0.108c-0.06,0.018,0.049,0.096,0,0.145
		C57.873,27.327,58,27.46,58,27.562z"/>
	<path fill="#FFFFFF" d="M57.98,24.117C57.908,24.189,58,24.282,58,24.383v1.672c0,0.102-0.092,0.189-0.02,0.264
		c0.07,0.07,0.09,0.391,0.185,0.395c0.006,0-0.056,0.286-0.051,0.286h2.336c0.103,0,0.277-0.321,0.351-0.396
		C60.874,26.529,61,26.157,61,26.055v-1.672c0-0.101-0.126-0.193-0.199-0.266C60.728,24.041,60.553,24,60.45,24h-2.127h-0.209
		C58.014,24,58.055,24.041,57.98,24.117z"/>
	<path fill="#FFFFFF" d="M50.886,34.387C50.82,34.313,50.719,34,50.58,34h-2.334c-0.093,0-0.17,0.307-0.229,0.371
		c-0.061,0.064-0.1,0.279-0.118,0.372c0,0.037,0.004,0.139,0.015,0.167l0.353,0.87l2.313,5.482l-1.104,2.661
		c-0.019,0.028-0.026,0.058-0.02,0.081c0.003,0.021,0.005,0.045,0.005,0.063c0,0.082,0.031-0.028,0.09,0.027
		C49.612,44.151,49.682,44,49.765,44h2.267c0.139,0,0.244,0.147,0.317,0.078c0.074-0.069,0.13-0.058,0.167-0.139l3.897-9.006
		c0.008-0.037,0.013-0.059,0.013-0.117c0-0.07-0.033-0.402-0.098-0.464C56.265,34.294,56.19,34,56.108,34h-2.308
		c-0.139,0-0.243,0.309-0.313,0.377c-0.068,0.07-0.12,0.283-0.158,0.366l-1.173,3.22l-1.09-2.991l-0.045-0.245
		C50.995,34.653,50.949,34.461,50.886,34.387z"/>
	<path fill="#FFFFFF" d="M39.501,45.939c0.074-0.156,0.216-0.235,0.428-0.235c0.138,0,0.242,0.038,0.311,0.11
		c0.07,0.074,0.136,0.176,0.201,0.305c0.045,0.084,0.099-0.048,0.159,0.002C40.659,46.173,40.739,46,40.842,46h2.694
		c0.102,0,0.191,0.161,0.27,0.088c0.078-0.074,0.112-0.062,0.104-0.164c-0.01-0.185-0.09-0.377-0.242-0.678
		c-0.152-0.299-0.388-0.568-0.706-0.857c-0.318-0.293-0.731-0.529-1.244-0.742c-0.51-0.213-1.13-0.313-1.859-0.313
		c-0.524,0-1.018,0.074-1.479,0.212c-0.459,0.138-0.862,0.345-1.208,0.615c-0.345,0.273-0.622,0.607-0.829,1.004
		c-0.208,0.396-0.325,0.849-0.352,1.354c-0.01,0.157-0.015,0.346-0.015,0.567c0,0.22,0.005,0.404,0.015,0.552
		c0.027,0.516,0.144,0.972,0.352,1.36c0.207,0.393,0.484,0.723,0.829,0.988c0.346,0.268,0.749,0.47,1.208,0.608
		c0.461,0.14,0.955,0.207,1.479,0.207c0.508,0,0.959-0.053,1.355-0.159c0.396-0.105,0.743-0.241,1.043-0.408
		c0.299-0.164,0.552-0.349,0.76-0.551c0.207-0.203,0.374-0.403,0.504-0.603c0.129-0.197,0.223-0.381,0.283-0.552
		c0.059-0.171,0.094-0.307,0.104-0.408c0.008-0.102-0.026-0.062-0.104-0.138C43.727,47.91,43.637,48,43.536,48h-2.694
		c-0.194,0-0.328-0.033-0.401,0.152c-0.056,0.127-0.114,0.167-0.172,0.24c-0.06,0.073-0.174,0.078-0.339,0.078
		c-0.212,0-0.353-0.087-0.422-0.229c-0.069-0.142-0.113-0.369-0.13-0.664c-0.01-0.257-0.01-0.588,0-0.984
		C39.385,46.316,39.427,46.096,39.501,45.939z"/>
	<path fill="#FFFFFF" d="M51.181,46.063c-0.322-0.34-0.731-0.612-1.23-0.815c-0.496-0.201-1.083-0.303-1.756-0.303
		c-0.597,0-1.139,0.079-1.622,0.241c-0.483,0.162-0.899,0.4-1.244,0.719c-0.344,0.317-0.61,0.71-0.795,1.175
		c-0.183,0.466-0.276,1.001-0.276,1.609c0,0.645,0.093,1.201,0.276,1.673c0.185,0.47,0.451,0.855,0.795,1.159
		c0.345,0.305,0.761,0.528,1.244,0.671c0.483,0.143,1.029,0.214,1.637,0.214c0.635,0,1.189-0.078,1.659-0.233
		c0.469-0.157,0.855-0.35,1.159-0.573c0.305-0.228,0.532-0.461,0.685-0.706c0.153-0.244,0.232-0.454,0.241-0.629
		c0.009-0.093-0.016-0.146-0.075-0.201C51.818,50.008,51.742,50,51.651,50H49.04c-0.112,0-0.195-0.008-0.248,0.015
		c-0.056,0.023-0.126,0.067-0.208,0.149c-0.075,0.074-0.14,0.129-0.194,0.175s-0.124,0.066-0.208,0.066
		c-0.202,0-0.665-0.072-0.743-0.215C47.361,50.047,47,49.837,47,49.561V49h4.763c0.101,0,0.12,0.209,0.194,0.135
		C52.03,49.061,52,49.219,52,49.117v-0.414c0-0.505-0.011-0.988-0.168-1.445C51.675,46.803,51.503,46.405,51.181,46.063z
		 M47.644,48.166c0-0.507,0.046-0.739,0.138-0.878c0.092-0.14,0.23-0.308,0.413-0.308c0.187,0,0.325,0.22,0.416,0.356
		c0.093,0.14,0.14,0.322,0.14,0.829H47.644z"/>
	<path fill="#FFFFFF" d="M45.11,34.387C45.037,34.313,45.171,34,45.069,34H42.65c-0.101,0-0.328,0.313-0.401,0.387
		C42.176,34.461,42,34.822,42,34.923v1.25V38h-0.813c-0.102,0,0.405-0.374,0.33-0.301C41.443,37.772,42,37.447,42,37.549v1.672
		c0,0.102-0.557,0.393-0.483,0.466C41.591,39.762,41.084,40,41.187,40H42v1.39c0,0.573,0.224,1.046,0.394,1.424
		c0.17,0.378,0.48,0.681,0.789,0.911c0.308,0.231,0.709,0.215,1.133,0.312S45.236,44,45.731,44h1.563
		c0.101,0-0.146,0.145-0.072,0.069C47.296,43.994,47,44.09,47,43.987v-1.809c0-0.102,0.296-0.091,0.222-0.167
		C47.149,41.938,47.396,42,47.294,42h-1.257c-0.212,0-0.586-0.16-0.677-0.283C45.268,41.59,45,41.326,45,41.114V40h2.184
		c0.101,0-0.09-0.238-0.016-0.313C47.241,39.613,47,39.322,47,39.221v-1.672c0-0.102,0.241,0.224,0.168,0.15
		C47.094,37.626,47.285,38,47.184,38H45v-1.825v-1.252C45,34.822,45.185,34.461,45.11,34.387z"/>
	<path fill="#FFFFFF" d="M41.64,14.228c-0.663,0.2-1.234,0.491-1.715,0.879c-0.481,0.386-0.859,0.861-1.134,1.425
		c-0.278,0.563-0.434,1.209-0.465,1.938c-0.022,0.474-0.033,0.967-0.033,1.474c0,0.509,0.011,0.99,0.033,1.442
		c0.031,0.74,0.187,1.39,0.465,1.947c0.275,0.558,0.653,1.024,1.134,1.399c0.48,0.376,1.052,0.658,1.715,0.846
		c0.663,0.188,1.403,0.282,2.221,0.282c0.807,0,1.543-0.094,2.212-0.282c0.668-0.188,1.242-0.469,1.723-0.846
		c0.482-0.375,0.859-0.842,1.134-1.399c0.278-0.558,0.432-1.208,0.466-1.947c0.021-0.453,0.033-0.934,0.033-1.442
		c0-0.507-0.013-1-0.033-1.474c-0.034-0.729-0.188-1.375-0.466-1.938c-0.275-0.564-0.652-1.039-1.134-1.425
		c-0.48-0.388-1.054-0.679-1.723-0.879c-0.669-0.199-1.405-0.299-2.212-0.299c-0.16,0-0.315,0.005-0.468,0.013
		c-0.43,0.021-0.837,0.071-1.221,0.151C41.988,14.131,41.812,14.176,41.64,14.228z M44.722,17.484
		c0.221,0.215,0.343,0.554,0.365,1.018c0.033,0.918,0.033,1.847,0,2.785c-0.021,0.463-0.141,0.803-0.356,1.019
		c-0.214,0.216-0.504,0.323-0.87,0.323s-0.656-0.106-0.871-0.323c-0.215-0.216-0.334-0.556-0.355-1.019
		c-0.033-0.938-0.033-1.867,0-2.785c0.021-0.464,0.143-0.803,0.365-1.018c0.22-0.216,0.507-0.324,0.861-0.324
		C44.214,17.161,44.501,17.269,44.722,17.484z"/>
</g>
</svg>
