<?xml version="1.0" encoding="utf-8"?>
<!-- Generator: Adobe Illustrator 16.0.0, SVG Export Plug-In . SVG Version: 6.00 Build 0)  -->
<!DOCTYPE svg PUBLIC "-//W3C//DTD SVG 1.1//EN" "http://www.w3.org/Graphics/SVG/1.1/DTD/svg11.dtd">
<svg version="1.1" id="Warstwa_1" xmlns="http://www.w3.org/2000/svg" xmlns:xlink="http://www.w3.org/1999/xlink" x="0px" y="0px"
	 width="100px" height="88.348px" viewBox="0 0 100 88.348" enable-background="new 0 0 100 88.348" xml:space="preserve">
<g>
	<g>
		<path fill="#00B58D" d="M85.056,65.801c-1.073,4.498-5.045,7.711-9.779,6.586c-13.424-3.199-7.604-18.014-19.872-20.939
			c-17.684-4.212-17.731,11.029-30.458,7.998c-5.388-1.283-10.671-5.725-8.585-14.481c1.25-5.245,6.594-8.123,13.108-7.919
			c30.514,0.951,29.529-1.962,40.427,0.635C79.928,40.072,87.26,56.549,85.056,65.801z"/>
	</g>
	<path fill="#00B58D" d="M92.146,59.289c-1.75-0.418-3.508,0.662-3.926,2.412l0,0c-0.417,1.752,0.664,3.51,2.415,3.926l2.051,0.488
		c1.749,0.42,3.506-0.664,3.926-2.412l0,0c0.415-1.752-0.664-3.51-2.414-3.926L92.146,59.289z"/>
	<path fill="#00B58D" d="M90.471,52.385c-1.463-0.348-2.931,0.555-3.279,2.018l0,0c-0.348,1.461,0.555,2.928,2.018,3.277l1.93,0.461
		c1.463,0.348,2.931-0.555,3.279-2.018l0,0c0.349-1.461-0.554-2.928-2.016-3.279L90.471,52.385z"/>
	<path fill="#00B58D" d="M87.77,45.191c-1.441-0.343-2.886,0.546-3.229,1.985l0,0c-0.343,1.441,0.546,2.886,1.985,3.229l1.11,0.266
		c1.44,0.345,2.885-0.545,3.229-1.985l0,0c0.343-1.44-0.546-2.887-1.985-3.229L87.77,45.191z"/>
	<path fill="#00B58D" d="M83.464,39.254c-1.316-0.314-2.637,0.499-2.951,1.814l0,0c-0.314,1.317,0.498,2.639,1.815,2.953
		l0.775,0.185c1.318,0.313,2.64-0.5,2.951-1.815l0,0c0.314-1.316-0.497-2.638-1.815-2.952L83.464,39.254z"/>
	<path fill="#00B58D" d="M92.567,67.244c-2.724-0.65-5.457,1.031-6.106,3.756l0,0c-0.648,2.721,1.034,5.453,3.754,6.104l3.54,0.842
		c2.724,0.648,5.456-1.029,6.106-3.752l0,0c0.648-2.725-1.033-5.459-3.755-6.105L92.567,67.244z"/>
</g>
<g>
	<path fill="#FFFFFF" d="M20.994,23.977c0.07,0.094,0.106,0.225,0.106,0.389c0,0.212-0.077,0.396-0.229,0.548
		c-0.154,0.155-0.337,0.231-0.549,0.231H14.69c-0.331,0-0.603-0.07-0.815-0.212c-0.212-0.142-0.425-0.341-0.637-0.601l-6.694-8.43
		v8.288c0,0.26-0.095,0.485-0.283,0.673c-0.189,0.189-0.413,0.283-0.673,0.283h-4.64c-0.26,0-0.484-0.094-0.673-0.283
		c-0.189-0.188-0.283-0.413-0.283-0.673V1.31c0-0.259,0.094-0.484,0.283-0.674c0.189-0.188,0.413-0.282,0.673-0.282h4.64
		c0.26,0,0.484,0.094,0.673,0.282c0.188,0.19,0.283,0.415,0.283,0.674v7.473l6.233-7.649c0.117-0.143,0.271-0.307,0.46-0.497
		c0.188-0.188,0.507-0.282,0.956-0.282h5.525c0.213,0,0.395,0.076,0.549,0.229c0.153,0.153,0.23,0.337,0.23,0.549
		c0,0.164-0.036,0.294-0.106,0.389l-8.748,10.695L20.994,23.977z"/>
	<path fill="#FFFFFF" d="M34.38,0.354c1.559,0,2.951,0.165,4.179,0.495c1.227,0.331,2.272,0.827,3.134,1.487
		c0.862,0.661,1.523,1.505,1.983,2.533c0.46,1.026,0.69,2.225,0.69,3.595c0,1.77-0.367,3.24-1.098,4.408
		c-0.732,1.169-1.771,2.06-3.116,2.674l4.391,8.43c0.071,0.141,0.106,0.271,0.106,0.389c0,0.212-0.077,0.396-0.23,0.548
		c-0.154,0.155-0.336,0.231-0.549,0.231h-4.817c-0.472,0-0.809-0.106-1.009-0.318c-0.201-0.213-0.36-0.425-0.478-0.638l-3.931-7.578
		h-3.258v7.578c0,0.26-0.095,0.485-0.284,0.673c-0.189,0.189-0.413,0.283-0.673,0.283h-4.639c-0.26,0-0.484-0.094-0.673-0.283
		c-0.189-0.188-0.283-0.413-0.283-0.673V1.31c0-0.259,0.094-0.484,0.283-0.674c0.188-0.188,0.413-0.282,0.673-0.282H34.38z
		 M30.378,11.085h4.002c0.992,0,1.812-0.189,2.461-0.566c0.649-0.378,0.975-1.063,0.975-2.054c0-0.993-0.325-1.677-0.975-2.055
		c-0.649-0.377-1.469-0.566-2.461-0.566h-4.002V11.085z"/>
	<path fill="#FFFFFF" d="M47.625,9.598c0.071-1.322,0.36-2.568,0.868-3.737c0.507-1.168,1.228-2.184,2.16-3.045
		c0.933-0.861,2.065-1.547,3.4-2.054C55.389,0.253,56.929,0,58.676,0c1.722,0,3.257,0.253,4.604,0.761
		c1.345,0.507,2.484,1.193,3.417,2.054s1.653,1.877,2.16,3.045c0.508,1.169,0.798,2.415,0.868,3.737
		c0.048,1.016,0.069,2.078,0.069,3.187c0,1.111-0.021,2.149-0.069,3.117c-0.07,1.323-0.36,2.568-0.868,3.737
		c-0.507,1.168-1.228,2.19-2.16,3.063c-0.933,0.873-2.072,1.557-3.417,2.053c-1.348,0.497-2.883,0.744-4.604,0.744
		c-1.747,0-3.287-0.247-4.623-0.744c-1.335-0.496-2.467-1.18-3.4-2.053c-0.932-0.874-1.652-1.896-2.16-3.063
		c-0.508-1.169-0.796-2.414-0.868-3.737c-0.047-0.968-0.07-2.006-0.07-3.117C47.555,11.675,47.578,10.613,47.625,9.598z
		 M63.174,15.724c0.022-0.424,0.047-0.897,0.07-1.417c0.023-0.518,0.036-1.049,0.036-1.592c0-0.544-0.013-1.069-0.036-1.577
		c-0.023-0.507-0.048-0.961-0.07-1.362c-0.048-0.591-0.173-1.134-0.372-1.629c-0.203-0.497-0.485-0.927-0.851-1.292
		c-0.365-0.366-0.82-0.657-1.363-0.869c-0.543-0.212-1.182-0.318-1.912-0.318c-0.732,0-1.371,0.106-1.912,0.318
		c-0.544,0.212-0.999,0.502-1.362,0.869c-0.368,0.365-0.651,0.796-0.853,1.292c-0.2,0.495-0.325,1.038-0.371,1.629
		c-0.049,0.401-0.076,0.855-0.089,1.362c-0.012,0.508-0.018,1.033-0.018,1.577c0,0.543,0.006,1.074,0.018,1.592
		c0.013,0.521,0.04,0.993,0.089,1.417c0.095,1.18,0.502,2.161,1.224,2.939c0.717,0.779,1.809,1.168,3.274,1.168
		c1.463,0,2.55-0.39,3.257-1.168C62.642,17.885,63.056,16.904,63.174,15.724z"/>
	<path fill="#FFFFFF" d="M94.868,23.977c0.072,0.094,0.107,0.225,0.107,0.389c0,0.212-0.076,0.396-0.229,0.548
		c-0.155,0.155-0.338,0.231-0.549,0.231h-5.632c-0.331,0-0.603-0.07-0.813-0.212c-0.214-0.142-0.426-0.341-0.639-0.601l-6.694-8.43
		v8.288c0,0.26-0.094,0.485-0.283,0.673c-0.189,0.189-0.412,0.283-0.672,0.283h-4.64c-0.26,0-0.483-0.094-0.672-0.283
		c-0.19-0.188-0.285-0.413-0.285-0.673V1.31c0-0.259,0.095-0.484,0.285-0.674c0.188-0.188,0.412-0.282,0.672-0.282h4.64
		c0.26,0,0.482,0.094,0.672,0.282c0.189,0.19,0.283,0.415,0.283,0.674v7.473l6.234-7.649c0.118-0.143,0.271-0.307,0.46-0.497
		c0.188-0.188,0.509-0.282,0.956-0.282h5.525c0.213,0,0.396,0.076,0.549,0.229c0.153,0.153,0.229,0.337,0.229,0.549
		c0,0.164-0.034,0.294-0.104,0.389l-8.748,10.695L94.868,23.977z"/>
</g>
<g>
	<g>
		<path fill="#FFFFFF" d="M38.611,71.523c-0.166-0.211-0.225-0.447-0.177-0.707c0.047-0.258,0.177-0.473,0.39-0.637l7.614-5.844
			c0.189-0.141,0.419-0.307,0.691-0.496c0.271-0.189,0.584-0.283,0.938-0.283h4.32c0.261,0,0.483,0.094,0.675,0.283
			c0.188,0.189,0.282,0.412,0.282,0.672v22.879c0,0.26-0.094,0.484-0.282,0.674c-0.191,0.189-0.414,0.283-0.675,0.283h-4.64
			c-0.26,0-0.484-0.094-0.672-0.283c-0.189-0.189-0.283-0.414-0.283-0.674V71.914l-4.215,3.188c-0.212,0.166-0.449,0.23-0.708,0.195
			c-0.261-0.035-0.473-0.158-0.637-0.371L38.611,71.523z"/>
	</g>
</g>
</svg>
