<?xml version="1.0" encoding="utf-8"?>
<!-- Generator: Adobe Illustrator 16.0.0, SVG Export Plug-In . SVG Version: 6.00 Build 0)  -->
<!DOCTYPE svg PUBLIC "-//W3C//DTD SVG 1.1//EN" "http://www.w3.org/Graphics/SVG/1.1/DTD/svg11.dtd">
<svg version="1.1" id="Warstwa_1" xmlns="http://www.w3.org/2000/svg" xmlns:xlink="http://www.w3.org/1999/xlink" x="0px" y="0px"
	 width="205.463px" height="230px" viewBox="0 0 205.463 230" enable-background="new 0 0 205.463 230" xml:space="preserve">
<g>
	<path fill="#EB1D48" d="M204.923,118.29c-1.876-26.085-11.7-45.692-29.432-58.873c-7.157-5.306-15.399-9.525-24.686-12.692
		c0.41,2.52,0.69,5.127,0.817,7.844c0.259,5.681,0.395,11.097,0.395,17.18c0,5.157-0.102,10.251-0.289,14.251h9.781
		c0.468,0,0.552,0.657,0.89,1c0.334,0.339,0.188,1.227,0.188,1.694v7.687c0,0.471,0.146,0.821-0.188,1.161
		c-0.338,0.34-0.422,0.458-0.89,0.458h-10.74c-0.021,0-0.042,0.045-0.062,0.045c-0.206,1.21-0.435,1.631-0.705,2.793
		c0.145-0.04,0.291-0.838,0.45-0.838h11.375c0.466,0,0.89,0.969,1.229,1.308c0.339,0.337,0.53,1.535,0.53,2.002v29.609
		c0,0.47-0.191,0.553-0.53,0.887c-0.339,0.346-0.763,0.193-1.229,0.193h-11.375c-0.464,0-0.442,0.152-0.782-0.193
		c-0.336-0.334-0.084-0.417-0.084-0.887v-26.727c-2,2.324-1.77,4.553-2.814,6.661c-0.92,1.86-3.186,3.627-3.186,5.319v12.207
		c0,0.467-0.458-0.181-0.798,0.159c-0.341,0.34-1.033-0.539-1.502-0.539h-11.372c-0.257,0-0.492,0.994-0.707,0.895
		c-3.296,2.188-6.906,4.585-10.843,6.128l5.005,14.172l5.4-14.355c0.169-0.38,0.409-1.39,0.726-1.709
		c0.318-0.316,0.8-1.13,1.435-1.13h10.612c0.382,0,0.717,0.861,1.01,1.131c0.3,0.279,0.448,0.953,0.448,1.289
		c0,0.252-0.019,0.646-0.057,0.813l-17.923,41.719c-0.169,0.376-0.425,0.492-0.768,0.81c-0.337,0.316-0.823,0.238-1.457,0.238
		h-10.422c-0.385,0-0.713,0.155-0.987-0.099c-0.273-0.255-0.414-0.437-0.414-0.81c0-0.088-0.009-0.111-0.026-0.218
		c-0.026-0.104,0.006-0.188,0.093-0.314l5.082-12.184l-11.093-25.129c-4.132,0.824-8.442,1.387-13.442,1.668V146h8.915
		c0.465,0,0.554,0.928,0.892,1.268c0.335,0.34,0.193,1.504,0.193,1.969v7.69c0,0.466,0.142,1.548-0.193,1.882
		c-0.338,0.347-0.427,1.191-0.892,1.191h-8.915v5.631c0,0.977,0.665,1.846,1.091,2.414c0.421,0.572,1.576,0.955,2.547,0.955h5.785
		c0.465,0,0.297,0.074,0.634,0.412c0.34,0.344-0.058,0.646-0.058,1.114v8.32c0,0.472,0.397,0.588,0.058,0.927
		c-0.337,0.34-0.169,0.227-0.634,0.227h-7.185c-2.283,0-4.404,0.063-6.352-0.385c-1.948-0.442-3.632-1.055-5.051-2.115
		c-1.422-1.057-2.7-2.385-3.484-4.123c-0.783-1.739-1.352-3.843-1.352-6.476V160h-4.665c-0.468,0-0.677-0.845-1.02-1.191
		c-0.338-0.334-0.316-1.416-0.316-1.882v-7.69c0-0.465-0.022-1.629,0.316-1.969c0.342-0.34,0.551-1.268,1.02-1.268h4.665v-3.091
		c-6-0.373-11-1.218-16-2.522v2.068c0,0.463-0.405,0.283-0.744,0.624C60.504,143.416,59.868,143,59.4,143H47.643
		c-0.465,0-0.539,0.416-0.877,0.079c-0.338-0.341-0.179-0.161-0.179-0.624v-7.789c-3-1.487-5.721-3.161-8.126-5.043
		c-5.761-4.493-10.459-10.09-13.756-16.769c-3.33-6.693-5.268-14.472-5.662-23.343c-0.261-5.422-0.425-11.182-0.425-17.274
		c0-0.768-0.004-1.516,0.003-2.271C7.997,82.338,1.956,98.43,0.542,118.29c-0.719,11.03-0.724,22.093-0.005,33.114
		C4.07,203.812,38.087,230,102.722,230c64.607,0,98.69-26.188,102.2-78.596C205.644,140.383,205.642,129.32,204.923,118.29z
		 M64.599,195.319c0.083,1.355,0.284,2.363,0.601,3.021c0.32,0.656,0.965,0.983,1.94,0.983c0.76,0,1.28-0.169,1.559-0.508
		c0.27-0.338,0.536-0.376,0.791-0.968c0.34-0.852,0.955-0.848,1.845-0.848h12.391c0.465,0,0.879-0.256,1.242,0.08
		c0.357,0.348,0.515,0.526,0.476,0.993c-0.047,0.47-0.206,0.987-0.476,1.77c-0.28,0.79-0.712,1.58-1.302,2.489
		c-0.598,0.913-1.369,1.806-2.323,2.739c-0.954,0.931-2.121,1.769-3.496,2.523c-1.377,0.765-2.973,1.387-4.795,1.87
		c-1.824,0.49-3.897,0.727-6.232,0.727c-2.411,0-4.679-0.312-6.799-0.95c-2.113-0.637-3.968-1.571-5.559-2.8
		c-1.585-1.229-2.862-2.74-3.809-4.546c-0.958-1.794-1.494-3.886-1.621-6.258c-0.046-0.675-0.068-1.524-0.068-2.539
		c0-1.019,0.022-1.886,0.068-2.606c0.126-2.327,0.663-4.405,1.621-6.227c0.947-1.822,2.224-3.356,3.809-4.609
		c1.59-1.248,3.445-2.192,5.559-2.829c2.12-0.631,4.388-0.951,6.799-0.951c3.349,0,6.2,0.485,8.547,1.46
		c2.354,0.979,4.259,2.129,5.721,3.465c1.461,1.333,2.541,2.69,3.244,4.065c0.698,1.379,1.065,2.487,1.112,3.337
		c0.039,0.471-0.119,1.408-0.476,1.748c-0.363,0.344-0.776,1.049-1.242,1.049H71.335c-0.468,0-0.839-0.656-1.113-0.889
		c-0.277-0.236-0.521-0.811-0.731-1.191c-0.295-0.596-0.6-1.193-0.92-1.533c-0.317-0.337-0.795-0.575-1.429-0.575
		c-0.976,0-1.631,0.327-1.97,1.045c-0.341,0.723-0.532,1.7-0.572,2.968C64.556,192.648,64.556,194.136,64.599,195.319z
		 M122.587,202.437c0,0.47,0.174,1.793-0.167,2.134c-0.345,0.338-0.404,1.43-0.864,1.43h-19.969v-1.525
		c0,1.271,0.695,2.233,1.055,2.891c0.359,0.656,1.262,0.983,2.193,0.983c0.383,0,0.83-0.104,1.082-0.317
		c0.252-0.211,0.617-0.485,0.959-0.826c0.379-0.379,0.73,0.222,0.984,0.111c0.25-0.104,0.664,0.684,1.174,0.684h12.01
		c0.422,0,0.771-0.714,1.048-0.463c0.276,0.254,0.392,0.175,0.349,0.598c-0.042,0.808-0.409,1.559-1.112,2.68
		c-0.698,1.127-1.747,2.098-3.143,3.139c-1.399,1.039-3.179,1.866-5.337,2.585c-2.162,0.719-4.706,1.054-7.627,1.054
		c-2.797,0-5.309-0.341-7.531-0.997c-2.224-0.654-4.133-1.69-5.721-3.094c-1.583-1.395-2.804-3.177-3.653-5.336
		c-0.846-2.164-1.271-4.728-1.271-7.692c0-2.801,0.425-5.264,1.271-7.403c0.849-2.14,2.07-3.942,3.653-5.401
		c1.588-1.464,3.497-2.564,5.721-3.305c2.222-0.743,4.713-1.114,7.464-1.114c3.091,0,5.788,0.47,8.069,1.399
		c2.291,0.931,4.178,2.183,5.657,3.749c1.482,1.57,2.246,3.398,2.967,5.49c0.722,2.1,0.739,4.32,0.739,6.645V202.437z"/>
	<path fill="#EB1D48" d="M105.154,192.146c-0.847,0-1.481,0.712-1.905,1.347c-0.42,0.637-0.633,2.508-0.633,3.508h5.083
		c0-1-0.216-2.871-0.634-3.508C106.642,192.857,106.004,192.146,105.154,192.146z"/>
	<path fill="#0DB58E" d="M29.94,59.417c12.571-9.31,28.409-15.327,47.507-18.048c1.766-0.37,3.639-0.601,5.616-0.697
		c6.228-0.659,12.777-0.99,19.656-0.99c18.346,0,34.369,2.361,48.086,7.042c-0.18-1.107-0.376-2.198-0.608-3.27
		c-0.939-4.338-2.308-8.388-4.144-12.125c-3.298-6.754-7.829-12.446-13.601-17.072c-5.761-4.647-12.637-8.146-20.646-10.538
		c-8.021-2.375-16.839-3.57-26.516-3.57c-9.797,0-18.663,1.195-26.604,3.57c-7.943,2.392-14.794,5.891-20.555,10.538
		c-5.759,4.626-10.294,10.317-13.59,17.072c-3.33,6.757-5.186,14.494-5.58,23.238c-0.222,4.817-0.321,9.825-0.354,14.933
		c-0.002,0.157-0.005,0.31-0.006,0.464C21.933,66.089,25.704,62.564,29.94,59.417z"/>
	<path fill="#2D348B" d="M79.579,61.65c-0.151,4.22-0.151,8.489,0,12.803c0.099,2.13,0.646,3.693,1.634,4.687
		c0.991,0.994,2.328,1.484,4.005,1.484c1.678,0,3.012-0.49,4-1.484c0.994-0.993,1.538-2.557,1.636-4.687
		c0.154-4.313,0.154-8.583,0-12.803c-0.099-2.135-0.661-3.697-1.674-4.684c-1.015-0.994-2.336-1.491-3.962-1.491
		c-1.628,0-2.95,0.497-3.961,1.491C80.233,57.953,79.678,59.515,79.579,61.65z"/>
	<path fill="#2D348B" d="M61.942,120.529c0.464,0.555,1.249,0.828,2.351,0.828c1.188,0,1.979-0.328,2.387-0.986
		c0.399-0.656,0.666-1.555,0.788-2.7c0.089-0.635,0.13-1.333,0.13-2.099c0-0.76-0.041-1.458-0.13-2.095
		c-0.123-1.142-0.389-2.045-0.788-2.7c-0.408-0.66-1.199-0.988-2.387-0.988c-1.188,0-1.991,0.328-2.412,0.988
		c-0.425,0.654-0.681,1.558-0.767,2.7c-0.086,0.975-0.125,1.757-0.125,2.35c0,0.595,0.039,1.378,0.125,2.352
		C61.2,119.198,61.475,119.979,61.942,120.529z"/>
	<path fill="#2D348B" d="M102.258,118.243c0.044,0.764,0.106,1.407,0.192,1.938c0.082,0.532,0.219,0.977,0.414,1.333
		c0.191,0.361,0.464,0.627,0.825,0.795c0.359,0.172,0.836,0.254,1.428,0.254c1.186,0,1.938-0.35,2.26-1.049
		c0.315-0.698,0.514-1.784,0.604-3.271c0-0.297,0.012-0.688,0.033-1.173c0.018-0.486,0.028-0.987,0.028-1.499
		c0-0.504-0.011-0.993-0.028-1.458c-0.021-0.468-0.033-0.872-0.033-1.209c-0.09-1.396-0.288-2.466-0.604-3.208
		c-0.321-0.743-1.074-1.113-2.26-1.113c-0.592,0-1.068,0.094-1.428,0.289c-0.36,0.187-0.634,0.464-0.825,0.824
		c-0.194,0.36-0.332,0.817-0.414,1.365c-0.086,0.553-0.148,1.166-0.192,1.843c0,0.338-0.014,0.741-0.031,1.209
		c-0.022,0.465-0.029,0.954-0.029,1.458c0,0.511,0.007,1.012,0.029,1.499C102.245,117.555,102.258,117.946,102.258,118.243z"/>
	<path fill="#2D348B" d="M18.961,89.511c0.395,8.871,2.25,16.649,5.58,23.343c3.295,6.679,8.159,12.276,13.92,16.769
		c2.405,1.882,5.126,3.556,8.126,5.043v-33.897c0-0.468-0.159-0.898,0.179-1.236C47.104,99.194,47.178,99,47.643,99h10.804
		c0.468,0,1.079,0.194,1.418,0.533c0.342,0.338,0.722,0.768,0.722,1.236v1.904c1-1.227,2.021-2.243,3.569-3.049
		c1.548-0.806,3.314-1.209,5.518-1.209c1.821,0,3.481,0.266,5.094,0.795c1.61,0.534,2.979,1.391,4.167,2.574
		c1.184,1.188,2.125,2.7,2.846,4.54c0.719,1.847,1.138,4.103,1.267,6.771c0.042,0.977,0.055,1.813,0.055,2.511
		c0,0.702-0.019,1.537-0.059,2.512c-0.086,2.499-0.491,4.663-1.211,6.479c-0.72,1.822-1.681,3.339-2.89,4.544
		c-1.208,1.21-2.618,2.11-4.229,2.699c-1.612,0.595-3.326,0.89-5.148,0.89c-1.777,0-3.154-0.295-4.59-0.89
		c-1.442-0.589-3.389-1.562-3.389-2.918v11.465c5,1.305,10,2.149,16,2.522v-5.747c0-0.466,0.345-1.592,0.684-1.932
		c0.338-0.338,0.92-1.23,1.384-1.23h11.124c0.465,0,0.415,0.893,0.753,1.23c0.343,0.34,0.056,1.466,0.056,1.932v5.753
		c5-0.281,9.311-0.834,13.442-1.657l-1.399-3.842c-0.042-0.128,0.051-0.276,0.051-0.445c0.086-0.426,0.321-1.51,0.601-1.805
		c0.274-0.295,0.679-1.166,1.103-1.166h10.738c0.637,0,1.105,0.893,1.402,1.23c0.295,0.34,0.507,1.038,0.633,1.377l0.208,0.759
		c3.937-1.543,7.547-3.322,10.843-5.512c-0.184-0.087-0.654-0.155-0.809-0.31c-0.338-0.338-0.813-0.698-0.813-1.165V88.694
		c0-0.468,0.475-1.355,0.813-1.694c0.335-0.343,1.044-1,1.516-1h11.372c0.469,0,1.161,0.657,1.502,1
		c0.34,0.339,0.798,1.227,0.798,1.694v29.479c0-1.691,2.266-3.459,3.186-5.319c1.045-2.108,0.814-4.337,2.814-6.661v-2.882
		c0-0.467-0.252-0.868,0.084-1.207c0.225-0.223,0.266-0.368,0.545-0.444c0.271-1.163,0.393-2.354,0.598-3.565
		c-0.438-0.015-0.606-0.179-0.93-0.502c-0.34-0.341-0.297-0.741-0.297-1.212v-7.687c0-0.468-0.095-1.355,0.242-1.694
		c0.339-0.343,0.476-1,0.94-1h0.959c0.188-4,0.289-9.094,0.289-14.251c0-6.083-0.136-11.744-0.395-17.424
		c-0.127-2.717-0.407-5.203-0.817-7.723c-13.718-4.68-29.74-6.98-48.086-6.98c-6.879,0-13.428,0.361-19.656,1.02
		c0.706-0.035,1.421-0.042,2.155-0.042c3.711,0,7.096,0.464,10.175,1.378c3.074,0.919,5.711,2.266,7.922,4.048
		c2.214,1.774,3.953,3.962,5.22,6.553c1.271,2.593,1.982,5.564,2.135,8.919c0.101,2.179,0.152,4.446,0.152,6.779
		c0,2.34-0.052,4.55-0.152,6.631c-0.152,3.402-0.863,6.39-2.135,8.957c-1.267,2.563-3.006,4.709-5.22,6.434
		c-2.21,1.731-4.848,3.028-7.922,3.888c-3.079,0.864-6.464,1.3-10.175,1.3c-3.762,0-7.163-0.436-10.211-1.3
		c-3.049-0.859-5.677-2.156-7.887-3.888c-2.211-1.725-3.952-3.87-5.216-6.434c-1.279-2.567-1.993-5.555-2.141-8.957
		c-0.102-2.081-0.147-4.292-0.147-6.631c0-2.333,0.046-4.6,0.147-6.779c0.148-3.355,0.862-6.325,2.141-8.917
		c1.264-2.592,3.005-4.777,5.216-6.552c2.21-1.782,4.838-3.124,7.887-4.042c0.789-0.237,1.605-0.442,2.441-0.617
		c-19.098,2.721-34.936,8.738-47.507,18.048c-4.236,3.146-8.008,6.671-11.34,10.549c-0.007,0.755-0.023,1.503-0.023,2.271
		C18.578,78.329,18.701,84.089,18.961,89.511z M86.692,112.588c0.335-4.702,2.102-8.237,5.302-10.613
		c3.202-2.374,7.575-3.561,13.122-3.561c5.55,0,9.927,1.187,13.124,3.561c3.196,2.375,4.967,5.911,5.307,10.613
		c0.13,1.991,0.13,3.985,0,5.973c-0.635,9.448-6.78,14.169-18.431,14.169c-11.652,0-17.787-4.721-18.424-14.169
		C86.562,116.573,86.562,114.579,86.692,112.588z"/>
	<path fill="#FFFFFF" d="M105.116,132.729c11.65,0,17.796-4.721,18.431-14.169c0.13-1.987,0.13-3.982,0-5.973
		c-0.34-4.702-2.11-8.237-5.307-10.613c-3.197-2.374-7.574-3.561-13.124-3.561c-5.546,0-9.92,1.187-13.122,3.561
		c-3.2,2.375-4.967,5.911-5.302,10.613c-0.13,1.991-0.13,3.985,0,5.973C87.33,128.009,93.464,132.729,105.116,132.729z
		 M102.228,114.114c0.017-0.468,0.031-0.872,0.031-1.209c0.044-0.677,0.106-1.29,0.192-1.843c0.082-0.548,0.219-1.004,0.414-1.365
		c0.191-0.36,0.464-0.637,0.825-0.824c0.359-0.195,0.836-0.289,1.428-0.289c1.186,0,1.938,0.37,2.26,1.113
		c0.315,0.742,0.514,1.811,0.604,3.208c0,0.338,0.012,0.741,0.033,1.209c0.018,0.465,0.028,0.954,0.028,1.458
		c0,0.511-0.011,1.012-0.028,1.499c-0.021,0.484-0.033,0.876-0.033,1.173c-0.09,1.487-0.288,2.573-0.604,3.271
		c-0.321,0.699-1.074,1.049-2.26,1.049c-0.592,0-1.068-0.082-1.428-0.254c-0.36-0.168-0.634-0.434-0.825-0.795
		c-0.194-0.356-0.332-0.801-0.414-1.333c-0.086-0.531-0.148-1.175-0.192-1.938c0-0.297-0.014-0.688-0.031-1.173
		c-0.022-0.486-0.029-0.987-0.029-1.499C102.198,115.068,102.205,114.579,102.228,114.114z"/>
	<path fill="#FFFFFF" d="M64.976,131.84c1.436,0.595,2.931,0.89,4.708,0.89c1.822,0,3.477-0.295,5.091-0.89
		c1.61-0.589,2.991-1.489,4.197-2.699c1.21-1.205,2.156-2.722,2.876-4.544c0.721-1.816,1.117-3.98,1.202-6.479
		c0.04-0.976,0.055-1.811,0.055-2.512c0-0.698-0.021-1.534-0.061-2.511c-0.13-2.667-0.556-4.923-1.276-6.771
		c-0.719-1.84-1.674-3.352-2.858-4.54c-1.188-1.184-2.584-2.04-4.195-2.574c-1.612-0.529-3.326-0.795-5.148-0.795
		c-2.203,0-3.862,0.403-5.41,1.209c-1.548,0.807-2.569,1.822-3.569,3.049v-1.904c0-0.468-0.38-0.898-0.722-1.236
		C59.525,99.194,58.915,99,58.447,99H47.643c-0.465,0-0.539,0.194-0.877,0.533c-0.338,0.338-0.179,0.768-0.179,1.236v33.897v7.789
		c0,0.463-0.159,0.283,0.179,0.624c0.339,0.337,0.412-0.079,0.877-0.079H59.4c0.468,0,1.104,0.416,1.443,0.079
		c0.339-0.341,0.744-0.161,0.744-0.624v-2.068v-11.465C61.587,130.278,63.534,131.251,64.976,131.84z M61.114,113.477
		c0.086-1.142,0.342-2.045,0.767-2.7c0.421-0.66,1.224-0.988,2.412-0.988c1.188,0,1.979,0.328,2.387,0.988
		c0.399,0.654,0.666,1.558,0.788,2.7c0.089,0.637,0.13,1.335,0.13,2.095c0,0.766-0.041,1.464-0.13,2.099
		c-0.123,1.146-0.389,2.044-0.788,2.7c-0.408,0.658-1.199,0.986-2.387,0.986c-1.102,0-1.886-0.273-2.351-0.828
		c-0.468-0.551-0.743-1.331-0.829-2.351c-0.086-0.974-0.125-1.757-0.125-2.352C60.988,115.234,61.027,114.452,61.114,113.477z"/>
	<path fill="#FFFFFF" d="M142.789,87c-0.341-0.343-1.033-1-1.502-1h-11.372c-0.472,0-1.181,0.657-1.516,1
		c-0.338,0.339-0.813,1.227-0.813,1.694v41.686c0,0.467,0.475,0.871,0.813,1.211c0.154,0.152,0.475-0.782,0.655-0.696
		c0.216,0.1,0.604-0.895,0.86-0.895h11.372c0.469,0,1.161,0.879,1.502,0.539c0.34-0.34,0.798,0.308,0.798-0.159v-12.207V88.694
		C143.587,88.226,143.129,87.338,142.789,87z"/>
	<path fill="#FFFFFF" d="M149.587,103.311v2.882v26.727c0,0.47-0.252,0.553,0.084,0.887c0.34,0.346,0.318,0.193,0.782,0.193h11.375
		c0.466,0,0.89,0.152,1.229-0.193c0.339-0.334,0.53-0.417,0.53-0.887v-29.609c0-0.467-0.191-1.666-0.53-2.002
		c-0.339-0.339-0.763-1.308-1.229-1.308h-11.375c-0.159,0-0.306,0.824-0.45,0.863c-0.279,0.078-0.107,0.619-0.332,0.843
		C149.335,102.044,149.587,102.843,149.587,103.311z"/>
	<path fill="#FFFFFF" d="M149.829,87c-0.337,0.339-0.242,1.227-0.242,1.694v7.687c0,0.471-0.095,0.871,0.242,1.212
		c0.323,0.323,0.57,0.437,1.012,0.452c0.02,0-0.093-0.045-0.071-0.045h10.74c0.468,0,0.552-0.118,0.89-0.458
		c0.334-0.34,0.188-0.69,0.188-1.161v-7.687c0-0.468,0.146-1.355-0.188-1.694c-0.338-0.343-0.422-1-0.89-1h-9.781h-0.959
		C150.305,86,150.168,86.657,149.829,87z"/>
	<path fill="#FFFFFF" d="M117.524,135.23c-0.297-0.338-0.766-1.23-1.402-1.23h-10.738c-0.424,0-0.773,0.871-1.048,1.166
		c-0.276,0.295-0.457,1.017-0.544,1.441c0,0.172,0.023,0.499,0.065,0.626l1.626,3.935l10.639,25.182l-5.082,12.222
		c-0.087,0.128-0.119,0.256-0.093,0.361c0.018,0.104,0.026,0.207,0.026,0.294c0,0.374,0.141,0.418,0.414,0.671
		c0.274,0.257,0.603,0.103,0.987,0.103h10.422c0.634,0,1.12,0.121,1.457-0.195c0.343-0.313,0.599-0.525,0.768-0.904l17.923-41.554
		c0.038-0.167,0.057-0.346,0.057-0.602c0-0.334-0.148-1.351-0.448-1.634c-0.293-0.269-0.628-1.111-1.01-1.111h-10.612
		c-0.635,0-1.116,0.879-1.435,1.195c-0.316,0.322-0.557,1.033-0.726,1.412l-5.4,14.669l-5.005-13.818l-0.208-0.895
		C118.031,136.226,117.819,135.57,117.524,135.23z"/>
	<path fill="#FFFFFF" d="M65.171,187.823c0.338-0.718,0.994-1.079,1.97-1.079c0.634,0,1.112,0.17,1.429,0.508
		c0.32,0.339,0.625,0.802,0.92,1.397c0.21,0.383,0.455,1.226,0.731,1.462c0.274,0.232,0.645,0.889,1.113,0.889h12.391
		c0.465,0,0.879-0.705,1.242-1.049c0.357-0.34,0.515-1.009,0.476-1.479c-0.047-0.85-0.414-2.091-1.112-3.468
		c-0.703-1.377-1.783-2.803-3.244-4.134c-1.462-1.337-3.366-2.521-5.721-3.5c-2.348-0.976-5.198-1.479-8.547-1.479
		c-2.411,0-4.679,0.314-6.799,0.944c-2.113,0.639-3.968,1.576-5.559,2.824c-1.585,1.254-2.862,2.785-3.809,4.608
		c-0.958,1.821-1.494,3.896-1.621,6.224c-0.046,0.721-0.068,1.588-0.068,2.606c0,1.016,0.022,1.864,0.068,2.539
		c0.126,2.372,0.663,4.464,1.621,6.258c0.947,1.806,2.224,3.317,3.809,4.546c1.59,1.229,3.445,2.16,5.559,2.797
		c2.12,0.639,4.388,0.95,6.799,0.95c2.334,0,4.408-0.24,6.232-0.73c1.822-0.484,3.418-1.112,4.795-1.876
		c1.375-0.756,2.542-1.605,3.496-2.537c0.954-0.933,1.725-1.854,2.323-2.766c0.59-0.911,1.022-1.754,1.302-2.544
		c0.271-0.781,0.429-1.407,0.476-1.876c0.039-0.465-0.119-0.432-0.476-0.779c-0.363-0.336-0.776-0.08-1.242-0.08H71.335
		c-0.89,0-1.505-0.004-1.845,0.848c-0.255,0.592-0.521,0.842-0.791,1.182c-0.278,0.338-0.799,0.4-1.559,0.4
		c-0.976,0-1.621-0.381-1.94-1.035c-0.317-0.658-0.518-1.694-0.601-3.049c-0.043-1.184-0.043-2.7,0-4.524
		C64.639,189.553,64.83,188.546,65.171,187.823z"/>
	<path fill="#FFFFFF" d="M118.881,188.397c-1.479-1.566-3.366-2.818-5.657-3.749c-2.281-0.93-4.979-1.399-8.069-1.399
		c-2.75,0-5.242,0.371-7.464,1.114c-2.224,0.74-4.133,1.841-5.721,3.305c-1.583,1.459-2.804,3.262-3.653,5.401
		c-0.846,2.142-1.271,4.603-1.271,7.402c0,2.965,0.425,5.526,1.271,7.69c0.849,2.158,2.07,3.938,3.653,5.333
		c1.588,1.403,3.497,2.431,5.721,3.085c2.222,0.658,4.734,0.985,7.531,0.985c2.921,0,5.465-0.361,7.627-1.081
		c2.158-0.719,3.938-1.598,5.337-2.636c1.396-1.041,2.444-2.117,3.143-3.242c0.703-1.123,1.07-2.084,1.112-2.893
		c0.043-0.423-0.072,0.077-0.349-0.177c-0.276-0.251-0.626,0.463-1.048,0.463h-12.01c-0.51,0-0.892-0.787-1.141-0.684
		c-0.256,0.11-0.576-0.07-0.954,0.309c-0.343,0.343-0.642,0.406-0.893,0.617c-0.253,0.213-0.572,0.213-0.954,0.213
		c-0.932,0-2.092-0.381-2.451-1.036c-0.359-0.659-1.055-1.673-1.055-2.944V206h19.969c0.46,0,0.52-1.092,0.864-1.43
		c0.341-0.341,0.167-1.664,0.167-2.134v-1.904c0-2.324-0.018-4.545-0.739-6.645C121.127,191.796,120.363,189.968,118.881,188.397z
		 M102.616,197c0-1,0.213-2.871,0.633-3.508c0.424-0.635,1.059-1.149,1.905-1.149c0.85,0,1.487,0.613,1.911,1.248
		c0.418,0.639,0.634,2.409,0.634,3.409H102.616z"/>
	<path fill="#FFFFFF" d="M91.531,135.23c-0.338-0.338-0.288-1.23-0.753-1.23H79.654c-0.464,0-1.045,0.893-1.384,1.23
		c-0.338,0.34-0.684,1.466-0.684,1.932v5.747V146h-4.665c-0.468,0-0.677,0.928-1.02,1.268c-0.338,0.34-0.316,1.504-0.316,1.969v7.69
		c0,0.466-0.022,1.548,0.316,1.882c0.342,0.347,0.551,1.191,1.02,1.191h4.665v6.901c0,2.633,0.569,4.806,1.352,6.545
		c0.784,1.738,1.975,3.137,3.396,4.194c1.419,1.063,3.148,1.532,5.096,1.975c1.948,0.448,4.112,0.385,6.395,0.385h7.185
		c0.465,0,0.297,0.113,0.634-0.227c0.34-0.339-0.058-0.455-0.058-0.927v-8.32c0-0.468,0.397-0.771,0.058-1.114
		c-0.337-0.338-0.169-0.412-0.634-0.412h-5.785c-0.972,0-2.126-0.383-2.547-0.955c-0.426-0.568-1.091-1.438-1.091-2.414V160h8.915
		c0.465,0,0.554-0.845,0.892-1.191c0.335-0.334,0.193-1.416,0.193-1.882v-7.69c0-0.465,0.142-1.629-0.193-1.969
		c-0.338-0.34-0.427-1.268-0.892-1.268h-8.915v-3.085v-5.753C91.587,136.696,91.874,135.57,91.531,135.23z"/>
	<path fill="#FFFFFF" d="M75.006,41.987c-3.049,0.919-5.677,2.261-7.887,4.042c-2.211,1.775-3.952,3.96-5.216,6.552
		c-1.279,2.592-1.993,5.562-2.141,8.917c-0.102,2.179-0.147,4.446-0.147,6.779c0,2.34,0.046,4.55,0.147,6.631
		c0.148,3.402,0.862,6.39,2.141,8.957c1.264,2.563,3.005,4.709,5.216,6.434c2.21,1.731,4.838,3.028,7.887,3.888
		c3.048,0.864,6.45,1.3,10.211,1.3c3.711,0,7.096-0.436,10.175-1.3c3.074-0.859,5.711-2.156,7.922-3.888
		c2.214-1.725,3.953-3.87,5.22-6.434c1.271-2.567,1.982-5.555,2.135-8.957c0.101-2.081,0.152-4.292,0.152-6.631
		c0-2.333-0.052-4.6-0.152-6.779c-0.152-3.355-0.863-6.325-2.135-8.917c-1.267-2.592-3.006-4.777-5.22-6.552
		c-2.21-1.782-4.848-3.124-7.922-4.042c-3.079-0.915-6.464-1.372-10.175-1.372c-0.733,0-1.449,0.023-2.155,0.058
		c-1.977,0.096-3.85,0.327-5.616,0.697C76.611,41.544,75.795,41.75,75.006,41.987z M89.18,56.966
		c1.014,0.986,1.576,2.548,1.674,4.684c0.154,4.22,0.154,8.489,0,12.803c-0.099,2.13-0.642,3.693-1.636,4.687
		c-0.988,0.994-2.322,1.484-4,1.484c-1.677,0-3.014-0.49-4.005-1.484c-0.988-0.993-1.535-2.557-1.634-4.687
		c-0.151-4.313-0.151-8.583,0-12.803c0.099-2.135,0.655-3.697,1.678-4.684c1.011-0.994,2.333-1.491,3.961-1.491
		C86.844,55.476,88.165,55.973,89.18,56.966z"/>
</g>
</svg>
