<?xml version="1.0" encoding="utf-8"?>
<!-- Generator: Adobe Illustrator 16.0.0, SVG Export Plug-In . SVG Version: 6.00 Build 0)  -->
<!DOCTYPE svg PUBLIC "-//W3C//DTD SVG 1.1//EN" "http://www.w3.org/Graphics/SVG/1.1/DTD/svg11.dtd">
<svg version="1.1" id="Warstwa_1" xmlns="http://www.w3.org/2000/svg" xmlns:xlink="http://www.w3.org/1999/xlink" x="0px" y="0px"
	 width="45px" height="45px" viewBox="0 0 45 45" enable-background="new 0 0 45 45" xml:space="preserve">
<g>
	<path fill="#00B58D" d="M37.416,0H7.584C3.396,0,0,3.396,0,7.584V45h45V7.584C45,3.396,41.604,0,37.416,0z M32.441,21.698
		c-0.011,0.055-0.039,0.125-0.082,0.213l-8.35,12.328c-0.197,0.308-0.391,0.543-0.576,0.707c-0.187,0.164-0.455,0.247-0.806,0.247
		h-1.38c-0.35,0-0.619-0.083-0.805-0.247c-0.187-0.164-0.378-0.399-0.576-0.707l-8.351-12.328c-0.043-0.088-0.071-0.159-0.082-0.213
		c-0.011-0.055-0.017-0.104-0.017-0.148c0-0.197,0.066-0.361,0.198-0.493c0.132-0.132,0.296-0.197,0.494-0.197h4.503
		c0.373,0,0.668,0.12,0.888,0.361c0.22,0.241,0.406,0.471,0.559,0.69l1.349,2.012V10.694c0-0.241,0.086-0.449,0.262-0.625
		c0.176-0.176,0.384-0.263,0.625-0.263h3.32c0.241,0,0.45,0.087,0.625,0.263c0.175,0.175,0.263,0.383,0.263,0.625v13.179
		l1.315-1.962c0.153-0.219,0.339-0.449,0.559-0.69c0.219-0.242,0.515-0.361,0.888-0.361h4.504c0.197,0,0.361,0.065,0.493,0.197
		c0.132,0.131,0.196,0.296,0.196,0.493C32.457,21.593,32.451,21.643,32.441,21.698z"/>
</g>
</svg>
